<svg width="204" height="204" viewBox="0 0 204 204" fill="none" xmlns="http://www.w3.org/2000/svg">
<g filter="url(#filter0_d_1103_1539)">
<rect x="42" y="30" width="120" height="120" rx="10" fill="#FFC000"/>
</g>
<g filter="url(#filter1_d_1103_1539)">
<rect x="47" y="35" width="110" height="110" rx="10" fill="white"/>
</g>
<g filter="url(#filter2_d_1103_1539)">
<rect x="52" y="40" width="100" height="100" rx="10" fill="#1D59FC"/>
</g>
<g filter="url(#filter3_d_1103_1539)">
<path fill-rule="evenodd" clip-rule="evenodd" d="M83 62V113.677H102.808C106.812 113.677 110.1 113.072 112.674 111.86C115.248 110.632 117.149 108.976 118.377 106.89C119.622 104.787 120.244 102.415 120.244 99.7739C120.244 97.0992 119.706 94.8282 118.629 92.9609C117.552 91.0937 116.19 89.6554 114.541 88.6461C112.91 87.62 111.236 87.0648 109.52 86.9807V86.4761C111.101 86.0723 112.548 85.4331 113.86 84.5583C115.189 83.6668 116.249 82.4892 117.039 81.0257C117.83 79.5454 118.225 77.7286 118.225 75.5754C118.225 73.0184 117.628 70.7222 116.434 68.6868C115.239 66.6345 113.439 65.0111 111.034 63.8168C108.628 62.6056 105.592 62 101.925 62H83ZM102.051 106.991H90.797V90.4376H102.329C104.414 90.4376 106.214 90.8414 107.728 91.6488C109.259 92.4563 110.437 93.5413 111.261 94.9039C112.085 96.2665 112.497 97.7636 112.497 99.3954C112.497 101.565 111.69 103.374 110.075 104.82C108.46 106.267 105.785 106.991 102.051 106.991ZM101.243 84.3565H90.797V68.6363H101.445C104.541 68.6363 106.837 69.3596 108.334 70.8063C109.831 72.253 110.58 74.0446 110.58 76.181C110.58 77.8464 110.159 79.293 109.318 80.5211C108.494 81.7322 107.375 82.6743 105.962 83.3472C104.566 84.02 102.993 84.3565 101.243 84.3565ZM120.649 117.1V120.254H133.044V116.753H126.736V116.658L128.25 115.397C129.48 114.371 130.429 113.488 131.097 112.747C131.764 112.006 132.227 111.33 132.485 110.721C132.742 110.106 132.871 109.488 132.871 108.868C132.871 107.863 132.611 106.988 132.09 106.242C131.575 105.495 130.842 104.917 129.89 104.507C128.944 104.092 127.824 103.884 126.531 103.884C125.28 103.884 124.189 104.105 123.259 104.546C122.328 104.988 121.608 105.619 121.098 106.439C120.588 107.259 120.333 108.237 120.333 109.372H124.497C124.497 108.92 124.581 108.536 124.749 108.221C124.917 107.906 125.154 107.666 125.459 107.503C125.769 107.34 126.126 107.259 126.531 107.259C126.936 107.259 127.293 107.34 127.604 107.503C127.914 107.661 128.156 107.887 128.329 108.182C128.508 108.476 128.597 108.831 128.597 109.246C128.597 109.625 128.518 109.969 128.361 110.279C128.208 110.589 127.987 110.891 127.698 111.186C127.414 111.475 127.073 111.785 126.673 112.116L120.649 117.1Z" fill="white"/>
</g>
<defs>
<filter id="filter0_d_1103_1539" x="0" y="0" width="204" height="204" filterUnits="userSpaceOnUse" color-interpolation-filters="sRGB">
<feFlood flood-opacity="0" result="BackgroundImageFix"/>
<feColorMatrix in="SourceAlpha" type="matrix" values="0 0 0 0 0 0 0 0 0 0 0 0 0 0 0 0 0 0 127 0" result="hardAlpha"/>
<feOffset dy="12"/>
<feGaussianBlur stdDeviation="21"/>
<feComposite in2="hardAlpha" operator="out"/>
<feColorMatrix type="matrix" values="0 0 0 0 0.741667 0 0 0 0 0.741667 0 0 0 0 0.741667 0 0 0 0.25 0"/>
<feBlend mode="normal" in2="BackgroundImageFix" result="effect1_dropShadow_1103_1539"/>
<feBlend mode="normal" in="SourceGraphic" in2="effect1_dropShadow_1103_1539" result="shape"/>
</filter>
<filter id="filter1_d_1103_1539" x="5" y="5" width="194" height="194" filterUnits="userSpaceOnUse" color-interpolation-filters="sRGB">
<feFlood flood-opacity="0" result="BackgroundImageFix"/>
<feColorMatrix in="SourceAlpha" type="matrix" values="0 0 0 0 0 0 0 0 0 0 0 0 0 0 0 0 0 0 127 0" result="hardAlpha"/>
<feOffset dy="12"/>
<feGaussianBlur stdDeviation="21"/>
<feComposite in2="hardAlpha" operator="out"/>
<feColorMatrix type="matrix" values="0 0 0 0 0.741667 0 0 0 0 0.741667 0 0 0 0 0.741667 0 0 0 0.25 0"/>
<feBlend mode="normal" in2="BackgroundImageFix" result="effect1_dropShadow_1103_1539"/>
<feBlend mode="normal" in="SourceGraphic" in2="effect1_dropShadow_1103_1539" result="shape"/>
</filter>
<filter id="filter2_d_1103_1539" x="10" y="10" width="184" height="184" filterUnits="userSpaceOnUse" color-interpolation-filters="sRGB">
<feFlood flood-opacity="0" result="BackgroundImageFix"/>
<feColorMatrix in="SourceAlpha" type="matrix" values="0 0 0 0 0 0 0 0 0 0 0 0 0 0 0 0 0 0 127 0" result="hardAlpha"/>
<feOffset dy="12"/>
<feGaussianBlur stdDeviation="21"/>
<feComposite in2="hardAlpha" operator="out"/>
<feColorMatrix type="matrix" values="0 0 0 0 0.741667 0 0 0 0 0.741667 0 0 0 0 0.741667 0 0 0 0.25 0"/>
<feBlend mode="normal" in2="BackgroundImageFix" result="effect1_dropShadow_1103_1539"/>
<feBlend mode="normal" in="SourceGraphic" in2="effect1_dropShadow_1103_1539" result="shape"/>
</filter>
<filter id="filter3_d_1103_1539" x="65.2359" y="48.677" width="85.5726" height="93.782" filterUnits="userSpaceOnUse" color-interpolation-filters="sRGB">
<feFlood flood-opacity="0" result="BackgroundImageFix"/>
<feColorMatrix in="SourceAlpha" type="matrix" values="0 0 0 0 0 0 0 0 0 0 0 0 0 0 0 0 0 0 127 0" result="hardAlpha"/>
<feOffset dy="4.44102"/>
<feGaussianBlur stdDeviation="8.88203"/>
<feComposite in2="hardAlpha" operator="out"/>
<feColorMatrix type="matrix" values="0 0 0 0 0 0 0 0 0 0 0 0 0 0 0 0 0 0 0.25 0"/>
<feBlend mode="normal" in2="BackgroundImageFix" result="effect1_dropShadow_1103_1539"/>
<feBlend mode="normal" in="SourceGraphic" in2="effect1_dropShadow_1103_1539" result="shape"/>
</filter>
</defs>
</svg>
