<svg width="83" height="83" viewBox="0 0 83 83" fill="none" xmlns="http://www.w3.org/2000/svg">
<g filter="url(#filter0_d_31_325)">
<rect x="11" y="8.71155" width="60.5769" height="60.5769" rx="6.73077" fill="white"/>
<g filter="url(#filter1_d_31_325)">
<path d="M53.6194 60L48.8869 47.8005H33.4797L28.7734 60H24.2512L39.2903 21.4032H43.3129L58.2468 60H53.6194ZM47.546 43.8304L43.05 31.7097C42.9449 31.3942 42.7696 30.8772 42.5242 30.1585C42.2963 29.4399 42.0597 28.6949 41.8143 27.9237C41.5689 27.1524 41.3673 26.5302 41.2096 26.0569C41.0343 26.7756 40.8415 27.4942 40.6311 28.2129C40.4383 28.914 40.2455 29.5713 40.0527 30.1848C39.8599 30.7807 39.6934 31.2891 39.5532 31.7097L34.9784 43.8304H47.546Z" fill="#1D59FC"/>
</g>
<g filter="url(#filter2_d_31_325)">
<path d="M62.9896 63.0961H61.9247V56.2865C61.9247 56.0279 61.9247 55.8067 61.9247 55.6226C61.9291 55.4342 61.9335 55.2633 61.9379 55.1099C61.9466 54.9522 61.9576 54.7922 61.9708 54.6301C61.8349 54.7703 61.7078 54.8908 61.5895 54.9916C61.4712 55.088 61.3244 55.2085 61.1491 55.3531L60.0514 56.2339L59.4796 55.4911L62.0825 53.4864H62.9896V63.0961Z" fill="#1D59FC"/>
</g>
</g>
<defs>
<filter id="filter0_d_31_325" x="0.230769" y="-4.07692" width="82.1154" height="91.5385" filterUnits="userSpaceOnUse" color-interpolation-filters="sRGB">
<feFlood flood-opacity="0" result="BackgroundImageFix"/>
<feColorMatrix in="SourceAlpha" type="matrix" values="0 0 0 0 0 0 0 0 0 0 0 0 0 0 0 0 0 0 127 0" result="hardAlpha"/>
<feOffset dy="2.69231"/>
<feGaussianBlur stdDeviation="5.38462"/>
<feColorMatrix type="matrix" values="0 0 0 0 0 0 0 0 0 0 0 0 0 0 0 0 0 0 0.25 0"/>
<feBlend mode="normal" in2="BackgroundImageFix" result="effect1_dropShadow_31_325"/>
<feBlend mode="normal" in="SourceGraphic" in2="effect1_dropShadow_31_325" result="shape"/>
</filter>
<filter id="filter1_d_31_325" x="21.5589" y="19.384" width="39.3802" height="43.9814" filterUnits="userSpaceOnUse" color-interpolation-filters="sRGB">
<feFlood flood-opacity="0" result="BackgroundImageFix"/>
<feColorMatrix in="SourceAlpha" type="matrix" values="0 0 0 0 0 0 0 0 0 0 0 0 0 0 0 0 0 0 127 0" result="hardAlpha"/>
<feOffset dy="0.673077"/>
<feGaussianBlur stdDeviation="1.34615"/>
<feColorMatrix type="matrix" values="0 0 0 0 0 0 0 0 0 0 0 0 0 0 0 0 0 0 0.25 0"/>
<feBlend mode="normal" in2="BackgroundImageFix" result="effect1_dropShadow_31_325"/>
<feBlend mode="normal" in="SourceGraphic" in2="effect1_dropShadow_31_325" result="shape"/>
</filter>
<filter id="filter2_d_31_325" x="58.1335" y="52.8133" width="6.20232" height="12.302" filterUnits="userSpaceOnUse" color-interpolation-filters="sRGB">
<feFlood flood-opacity="0" result="BackgroundImageFix"/>
<feColorMatrix in="SourceAlpha" type="matrix" values="0 0 0 0 0 0 0 0 0 0 0 0 0 0 0 0 0 0 127 0" result="hardAlpha"/>
<feOffset dy="0.673077"/>
<feGaussianBlur stdDeviation="0.673077"/>
<feColorMatrix type="matrix" values="0 0 0 0 0 0 0 0 0 0 0 0 0 0 0 0 0 0 0.25 0"/>
<feBlend mode="normal" in2="BackgroundImageFix" result="effect1_dropShadow_31_325"/>
<feBlend mode="normal" in="SourceGraphic" in2="effect1_dropShadow_31_325" result="shape"/>
</filter>
</defs>
</svg>
