<svg width="1029" height="154" viewBox="0 0 1029 154" fill="none" xmlns="http://www.w3.org/2000/svg">
<path d="M88.4896 39.2923L86.7948 39.493L86.9732 40.999H88.4896V39.2923ZM77.8716 22.1289L76.9352 23.5557L76.9352 23.5557L77.8716 22.1289ZM37.7267 19.2199L37.0507 17.6528L37.045 17.6552L37.7267 19.2199ZM26.2359 28.0197L24.8642 27.0043L24.8599 27.0101L24.8557 27.0159L26.2359 28.0197ZM24.9995 51.0013L23.5758 51.9424L23.5851 51.9564L23.5946 51.9702L24.9995 51.0013ZM32.4176 58.0557L31.5089 59.5003L31.5173 59.5056L31.5258 59.5108L32.4176 58.0557ZM41.8721 62.6375L41.2832 64.2393L41.2936 64.2431L41.304 64.2468L41.8721 62.6375ZM50.9628 65.4738L51.4065 63.8258L51.3972 63.8234L50.9628 65.4738ZM66.0899 69.5465L65.6462 71.1945L65.6566 71.1972L66.0899 69.5465ZM79.0352 73.7646L78.4324 75.3613L78.4377 75.3633L79.0352 73.7646ZM92.7805 81.11L91.7915 82.5008L91.8002 82.507L91.8091 82.5132L92.7805 81.11ZM103.689 92.8916L105.156 92.0179L105.156 92.0179L103.689 92.8916ZM101.653 132.382L100.222 131.453L100.217 131.46L101.653 132.382ZM83.3261 147.873L82.5927 146.332L82.5891 146.333L83.3261 147.873ZM26.4541 148.455L25.7618 150.015L25.7654 150.016L26.4541 148.455ZM8.12703 134.055L6.73974 135.049L6.74492 135.056L8.12703 134.055ZM0.636216 112.6V110.894H-1.19668L-1.06609 112.722L0.636216 112.6ZM19.2542 112.6L20.9545 112.454L20.82 110.894H19.2542V112.6ZM24.9268 126.564L23.655 127.702L23.6628 127.711L23.6708 127.719L24.9268 126.564ZM37.5812 134.709L37.014 136.319L37.0232 136.322L37.0324 136.325L37.5812 134.709ZM72.708 133.982L73.3515 135.563L73.3634 135.558L72.708 133.982ZM85.726 124.528L87.0619 125.59L87.068 125.582L85.726 124.528ZM86.3806 98.2007L87.655 97.0656L87.655 97.0656L86.3806 98.2007ZM75.4716 90.6371L74.7973 92.2049L74.7973 92.2049L75.4716 90.6371ZM60.8536 85.5463L60.3848 87.1873L60.3969 87.1907L60.8536 85.5463ZM42.5266 80.31L42.055 81.9502L42.0577 81.951L42.5266 80.31ZM14.8906 65.9829L13.739 67.2425L13.739 67.2425L14.8906 65.9829ZM11.4724 19.8017L10.0931 18.7966L10.0918 18.7985L11.4724 19.8017ZM29.7995 5.2564L30.499 6.8131L30.5035 6.81107L29.7995 5.2564ZM81.217 5.18367L80.5025 6.73355L80.5108 6.73734L81.217 5.18367ZM98.9622 19.1471L97.5888 20.1603L97.5942 20.1675L98.9622 19.1471ZM105.944 39.2923V40.999H107.707L107.65 39.2373L105.944 39.2923ZM90.1844 39.0916C89.2524 31.2212 85.4353 25.0513 78.808 20.7021L76.9352 23.5557C82.7198 27.3519 85.9814 32.6243 86.7948 39.493L90.1844 39.0916ZM78.808 20.7021C72.2691 16.4109 64.3142 14.3132 55.0355 14.3132V17.7265C63.793 17.7265 71.0622 19.7015 76.9352 23.5557L78.808 20.7021ZM55.0355 14.3132C48.26 14.3132 42.2517 15.4092 37.0507 17.6528L38.4026 20.7869C43.0924 18.7639 48.6233 17.7265 55.0355 17.7265V14.3132ZM37.045 17.6552C31.9156 19.8898 27.831 22.9966 24.8642 27.0043L27.6076 29.0352C30.168 25.5763 33.7439 22.8165 38.4083 20.7845L37.045 17.6552ZM24.8557 27.0159C21.9218 31.0499 20.4566 35.646 20.4566 40.7468H23.8699C23.8699 36.3448 25.1197 32.4561 27.6161 29.0235L24.8557 27.0159ZM20.4566 40.7468C20.4566 45.0025 21.4724 48.7603 23.5758 51.9424L26.4233 50.0602C24.7449 47.5211 23.8699 44.4426 23.8699 40.7468H20.4566ZM23.5946 51.9702C25.6706 54.9804 28.3149 57.4912 31.5089 59.5003L33.3263 56.6111C30.5083 54.8385 28.2072 52.6463 26.4045 50.0324L23.5946 51.9702ZM31.5258 59.5108C34.6274 61.4118 37.8803 62.9882 41.2832 64.2393L42.461 61.0357C39.27 59.8625 36.2199 58.3845 33.3095 56.6006L31.5258 59.5108ZM41.304 64.2468C44.6357 65.4227 47.7112 66.3829 50.5285 67.1243L51.3972 63.8234C48.6873 63.1102 45.7023 62.1795 42.4401 61.0281L41.304 64.2468ZM50.5192 67.1218L65.6462 71.1945L66.5336 67.8985L51.4065 63.8258L50.5192 67.1218ZM65.6566 71.1972C69.4652 72.197 73.7226 73.5831 78.4324 75.3613L79.638 72.168C74.8449 70.3583 70.4721 68.9323 66.5232 67.8958L65.6566 71.1972ZM78.4377 75.3633C83.0926 77.1029 87.5434 79.48 91.7915 82.5008L93.7695 79.7191C89.2905 76.534 84.5777 74.0141 79.6327 72.166L78.4377 75.3633ZM91.8091 82.5132C96.0119 85.4229 99.4826 89.1664 102.223 93.7653L105.156 92.0179C102.175 87.017 98.3732 82.9061 93.7519 79.7068L91.8091 82.5132ZM102.223 93.7653C104.892 98.2426 106.274 103.814 106.274 110.564H109.687C109.687 103.351 108.208 97.1406 105.156 92.0179L102.223 93.7653ZM106.274 110.564C106.274 118.296 104.253 125.244 100.222 131.453L103.085 133.311C107.49 126.527 109.687 118.929 109.687 110.564H106.274ZM100.217 131.46C96.2444 137.65 90.3989 142.617 82.5927 146.332L84.0595 149.414C92.35 145.468 98.7226 140.108 103.089 133.304L100.217 131.46ZM82.5891 146.333C74.8759 150.026 65.4213 151.912 54.1628 151.912V155.325C65.7888 155.325 75.7764 153.38 84.0631 149.412L82.5891 146.333ZM54.1628 151.912C43.6759 151.912 34.6846 150.219 27.1427 146.893L25.7654 150.016C33.8355 153.575 43.3167 155.325 54.1628 155.325V151.912ZM27.1463 146.895C19.6313 143.56 13.7732 138.94 9.50914 133.054L6.74492 135.056C11.402 141.485 17.7619 146.465 25.7618 150.015L27.1463 146.895ZM9.51431 133.061C5.30011 127.179 2.8997 120.335 2.33852 112.479L-1.06609 112.722C-0.46365 121.156 2.12982 128.615 6.73975 135.049L9.51431 133.061ZM0.636216 114.307H19.2542V110.894H0.636216V114.307ZM17.5538 112.747C18.0657 118.685 20.0775 123.704 23.655 127.702L26.1987 125.426C23.1823 122.055 21.4123 117.764 20.9545 112.454L17.5538 112.747ZM23.6708 127.719C27.2223 131.58 31.6847 134.441 37.014 136.319L38.1484 133.1C33.296 131.39 29.3221 128.821 26.1828 125.408L23.6708 127.719ZM37.0324 136.325C42.3636 138.136 48.0778 139.034 54.1628 139.034V135.621C48.4177 135.621 43.0774 134.774 38.13 133.093L37.0324 136.325ZM54.1628 139.034C61.2325 139.034 67.6378 137.889 73.3515 135.563L72.0646 132.401C66.8208 134.536 60.8626 135.621 54.1628 135.621V139.034ZM73.3634 135.558C79.0673 133.185 83.6562 129.873 87.0618 125.59L84.3902 123.465C81.396 127.231 77.3062 130.221 72.0526 132.406L73.3634 135.558ZM87.068 125.582C90.5162 121.193 92.2326 116.066 92.2326 110.273H88.8193C88.8193 115.341 87.3358 119.717 84.3841 123.473L87.068 125.582ZM92.2326 110.273C92.2326 104.993 90.7482 100.539 87.655 97.0656L85.1061 99.3357C87.5402 102.069 88.8193 105.662 88.8193 110.273H92.2326ZM87.655 97.0656C84.698 93.7454 80.8431 91.0896 76.1459 89.0694L74.7973 92.2049C79.1182 94.0634 82.5359 96.4499 85.1061 99.3357L87.655 97.0656ZM76.1459 89.0694C71.5592 87.0965 66.6131 85.3749 61.3104 83.9019L60.3969 87.1907C65.5668 88.6268 70.366 90.299 74.7973 92.2049L76.1459 89.0694ZM61.3225 83.9053L42.9954 78.669L42.0577 81.951L60.3848 87.1873L61.3225 83.9053ZM42.9982 78.6698C31.5381 75.375 22.5842 70.7046 16.0422 64.7233L13.739 67.2425C20.7725 73.6731 30.2427 78.5541 42.055 81.9502L42.9982 78.6698ZM16.0422 64.7233C9.64251 58.8722 6.41554 51.2255 6.41554 41.6196H3.00225C3.00225 52.0861 6.56306 60.6816 13.739 67.2425L16.0422 64.7233ZM6.41554 41.6196C6.41554 33.6076 8.57462 26.6935 12.8531 20.8048L10.0918 18.7985C5.35219 25.3218 3.00225 32.953 3.00225 41.6196H6.41554ZM12.8517 20.8067C17.2198 14.8123 23.0854 10.1445 30.499 6.81309L29.1 3.6997C21.1925 7.25304 14.8402 12.2821 10.0931 18.7966L12.8517 20.8067ZM30.5035 6.81107C37.9656 3.43202 46.3273 1.72674 55.6173 1.72674V-1.68655C45.9016 -1.68655 37.0514 0.0990397 29.0955 3.70172L30.5035 6.81107ZM55.6173 1.72674C65.0115 1.72674 73.2944 3.41035 80.5025 6.73353L81.9316 3.63381C74.2064 0.0722271 65.4229 -1.68655 55.6173 -1.68655V1.72674ZM80.5108 6.73734C87.7438 10.0251 93.4173 14.5055 97.5889 20.1603L100.336 18.134C95.78 11.9586 89.6233 7.13004 81.9232 3.62999L80.5108 6.73734ZM97.5942 20.1675C101.793 25.7973 104.007 32.174 104.238 39.3474L107.65 39.2373C107.396 31.3805 104.955 24.3271 100.33 18.1267L97.5942 20.1675ZM105.944 37.5857H88.4896V40.999H105.944V37.5857ZM257.488 48.6013V50.3079H259.523L259.168 48.3035L257.488 48.6013ZM239.451 48.6013L237.78 48.945L238.06 50.3079H239.451V48.6013ZM233.851 34.9287L232.431 35.8754L232.435 35.8815L232.44 35.8875L233.851 34.9287ZM224.252 25.038L223.248 26.4182L223.258 26.4255L223.268 26.4327L224.252 25.038ZM211.815 18.929L211.328 20.5646L211.328 20.5646L211.815 18.929ZM173.052 23.7289L172.15 22.28L172.146 22.2827L173.052 23.7289ZM155.671 43.8741L154.136 43.1277L154.133 43.1345L155.671 43.8741ZM155.671 109.182L154.133 109.922L154.136 109.929L155.671 109.182ZM173.052 129.328L172.146 130.774L172.15 130.776L173.052 129.328ZM211.815 134.127L211.328 132.492L211.328 132.492L211.815 134.127ZM224.252 128.091L225.244 129.48L225.247 129.478L224.252 128.091ZM233.851 118.128L232.434 117.177L232.431 117.181L233.851 118.128ZM239.451 104.455V102.748H238.063L237.78 104.108L239.451 104.455ZM257.488 104.455L259.168 104.755L259.525 102.748H257.488V104.455ZM250.069 124.891L248.604 124.017L248.604 124.017L250.069 124.891ZM236.688 140.237L237.739 141.581L237.746 141.575L236.688 140.237ZM218.724 149.764L218.192 148.142L218.188 148.143L218.724 149.764ZM163.671 143.727L162.763 145.173L162.763 145.173L163.671 143.727ZM140.325 117.255L141.854 116.497L141.854 116.497L140.325 117.255ZM140.325 35.8015L138.796 35.0434L140.325 35.8015ZM218.724 3.29279L218.188 4.91304L218.192 4.9142L218.724 3.29279ZM236.688 12.8927L235.629 14.2313L235.637 14.2372L236.688 12.8927ZM250.069 28.1652L248.604 29.0398L248.607 29.045L250.069 28.1652ZM257.488 46.8947H239.451V50.3079H257.488V46.8947ZM241.123 48.2576C240.016 42.8751 238.07 38.1035 235.263 33.97L232.44 35.8875C234.966 39.6084 236.753 43.9518 237.78 48.945L241.123 48.2576ZM235.271 33.9821C232.539 29.8834 229.192 26.4335 225.235 23.6432L223.268 26.4327C226.874 28.9757 229.928 32.1196 232.431 35.8754L235.271 33.9821ZM225.255 23.6577C221.361 20.8254 217.04 18.7044 212.303 17.2933L211.328 20.5646C215.706 21.8686 219.676 23.8203 223.248 26.4182L225.255 23.6577ZM212.303 17.2933C207.581 15.8868 202.665 15.186 197.561 15.186V18.5993C202.348 18.5993 206.935 19.256 211.328 20.5646L212.303 17.2933ZM197.561 15.186C188.239 15.186 179.755 17.5461 172.15 22.28L173.954 25.1777C180.992 20.7966 188.846 18.5993 197.561 18.5993V15.186ZM172.146 22.2827C164.564 27.0342 158.569 34.0115 154.136 43.1277L157.205 44.6205C161.402 35.9915 166.995 29.5386 173.958 25.175L172.146 22.2827ZM154.133 43.1345C149.726 52.2979 147.564 63.4515 147.564 76.5282H150.977C150.977 63.8113 153.082 53.1956 157.209 44.6137L154.133 43.1345ZM147.564 76.5282C147.564 89.6049 149.726 100.759 154.133 109.922L157.209 108.443C153.082 99.8609 150.977 89.2451 150.977 76.5282H147.564ZM154.136 109.929C158.569 119.045 164.564 126.022 172.146 130.774L173.958 127.881C166.995 123.518 161.402 117.065 157.205 108.436L154.136 109.929ZM172.15 130.776C179.755 135.51 188.239 137.87 197.561 137.87V134.457C188.846 134.457 180.992 132.26 173.954 127.879L172.15 130.776ZM197.561 137.87C202.665 137.87 207.581 137.17 212.303 135.763L211.328 132.492C206.935 133.8 202.348 134.457 197.561 134.457V137.87ZM212.303 135.763C217.034 134.354 221.351 132.26 225.244 129.48L223.26 126.702C219.685 129.255 215.712 131.186 211.328 132.492L212.303 135.763ZM225.247 129.478C229.198 126.641 232.541 123.17 235.271 119.074L232.431 117.181C229.926 120.94 226.869 124.111 223.256 126.705L225.247 129.478ZM235.269 119.078C238.07 114.903 240.015 110.136 241.122 104.802L237.78 104.108C236.754 109.053 234.967 113.401 232.434 117.177L235.269 119.078ZM239.451 106.162H257.488V102.748H239.451V106.162ZM255.807 104.155C254.482 111.586 252.076 118.199 248.604 124.017L251.535 125.766C255.239 119.559 257.778 112.549 259.168 104.755L255.807 104.155ZM248.604 124.017C245.119 129.856 240.795 134.812 235.629 138.898L237.746 141.575C243.247 137.224 247.844 131.951 251.535 125.766L248.604 124.017ZM235.637 138.892C230.464 142.936 224.653 146.02 218.192 148.142L219.257 151.385C226.081 149.144 232.245 145.876 237.739 141.581L235.637 138.892ZM218.188 148.143C211.781 150.263 204.909 151.33 197.561 151.33V154.743C205.243 154.743 212.48 153.627 219.26 151.384L218.188 148.143ZM197.561 151.33C185.15 151.33 174.173 148.302 164.578 142.282L162.763 145.173C172.95 151.564 184.567 154.743 197.561 154.743V151.33ZM164.578 142.282C154.978 136.259 147.401 127.684 141.854 116.497L138.796 118.013C144.595 129.71 152.581 138.784 162.763 145.173L164.578 142.282ZM141.854 116.497C136.322 105.338 133.523 92.0335 133.523 76.5282H130.11C130.11 92.4407 132.983 106.287 138.796 118.013L141.854 116.497ZM133.523 76.5282C133.523 61.0229 136.322 47.7182 141.854 36.5595L138.796 35.0434C132.983 46.7693 130.11 60.6157 130.11 76.5282H133.523ZM141.854 36.5595C147.401 25.3721 154.978 16.7978 164.578 10.7747L162.763 7.88344C152.581 14.2724 144.595 23.3463 138.796 35.0434L141.854 36.5595ZM164.578 10.7747C174.173 4.75419 185.15 1.72674 197.561 1.72674V-1.68655C184.567 -1.68655 172.95 1.49198 162.763 7.88344L164.578 10.7747ZM197.561 1.72674C204.909 1.72674 211.781 2.79298 218.188 4.91304L219.26 1.67253C212.48 -0.57099 205.243 -1.68655 197.561 -1.68655V1.72674ZM218.192 4.9142C224.649 7.03517 230.458 10.1411 235.629 14.2312L237.746 11.5541C232.251 7.20796 226.084 3.91398 219.257 1.67137L218.192 4.9142ZM235.637 14.2372C240.798 18.2726 245.12 23.2023 248.604 29.0398L251.535 27.2906C247.843 21.104 243.244 15.852 237.739 11.5482L235.637 14.2372ZM248.607 29.045C252.075 34.8097 254.482 41.4202 255.807 48.8991L259.168 48.3035C257.778 40.4614 255.239 33.4478 251.532 27.2854L248.607 29.045ZM286.633 151H284.926V152.707H286.633V151ZM286.633 2.05644V0.349791H284.926V2.05644H286.633ZM365.613 8.02L364.811 9.52642L364.819 9.53045L365.613 8.02ZM382.195 24.238L380.682 25.0267L380.682 25.0267L382.195 24.238ZM382.195 71.0737L380.686 70.2762L380.686 70.2762L382.195 71.0737ZM365.686 87.0735L366.469 88.59L366.477 88.5859L365.686 87.0735ZM296.523 92.8189H294.817V94.5256H296.523V92.8189ZM296.523 76.5282V74.8216H294.817V76.5282H296.523ZM355.868 73.0374L355.135 71.4959L355.13 71.4988L355.868 73.0374ZM366.486 63.1466L364.97 62.363L364.967 62.3696L366.486 63.1466ZM355.795 21.7653L355.026 23.2888L355.038 23.2948L355.795 21.7653ZM304.669 18.0562V16.3496H302.962V18.0562H304.669ZM304.669 151V152.707H306.375V151H304.669ZM356.741 84.0918L358.238 83.2718L357.752 82.3851H356.741V84.0918ZM393.395 151V152.707H396.276L394.892 150.18L393.395 151ZM372.45 151L370.947 151.81L371.431 152.707H372.45V151ZM336.377 84.0918V82.3851H333.518L334.875 84.9017L336.377 84.0918ZM288.339 151V2.05644H284.926V151H288.339ZM286.633 3.76308H336.959V0.349791H286.633V3.76308ZM336.959 3.76308C348.415 3.76308 357.667 5.72221 364.811 9.5264L366.415 6.51359C358.627 2.36637 348.775 0.349791 336.959 0.349791V3.76308ZM364.819 9.53045C372.006 13.3106 377.268 18.477 380.682 25.0267L383.708 23.4493C379.946 16.2294 374.154 10.5838 366.408 6.50954L364.819 9.53045ZM380.682 25.0267C384.127 31.6377 385.87 39.1914 385.87 47.7286H389.283C389.283 38.7145 387.439 30.6077 383.708 23.4493L380.682 25.0267ZM385.87 47.7286C385.87 56.2663 384.127 63.7673 380.686 70.2762L383.704 71.8713C387.439 64.8046 389.283 56.7421 389.283 47.7286H385.87ZM380.686 70.2762C377.274 76.7309 372.036 81.8274 364.895 85.5612L366.477 88.5859C374.172 84.5622 379.94 78.9922 383.704 71.8713L380.686 70.2762ZM364.903 85.5571C357.802 89.2239 348.615 91.1123 337.25 91.1123V94.5256C348.963 94.5256 358.734 92.5837 366.469 88.59L364.903 85.5571ZM337.25 91.1123H296.523V94.5256H337.25V91.1123ZM298.23 92.8189V76.5282H294.817V92.8189H298.23ZM296.523 78.2349H336.668V74.8216H296.523V78.2349ZM336.668 78.2349C344.763 78.2349 351.444 77.0539 356.607 74.5759L355.13 71.4988C350.595 73.6753 344.476 74.8216 336.668 74.8216V78.2349ZM356.601 74.5788C361.79 72.1125 365.631 68.5681 368.006 63.9236L364.967 62.3696C362.978 66.2583 359.74 69.3077 355.135 71.4959L356.601 74.5788ZM368.002 63.9302C370.383 59.3238 371.538 53.9037 371.538 47.7286H368.125C368.125 53.4806 367.05 58.3391 364.97 62.363L368.002 63.9302ZM371.538 47.7286C371.538 41.5515 370.382 36.0688 368.013 31.3292L364.96 32.8557C367.05 37.0372 368.125 41.9786 368.125 47.7286H371.538ZM368.013 31.3292C365.6 26.5042 361.749 22.8082 356.552 20.2358L355.038 23.2948C359.636 25.5708 362.912 28.7596 364.96 32.8557L368.013 31.3292ZM356.565 20.2418C351.344 17.6057 344.578 16.3496 336.377 16.3496V19.7629C344.274 19.7629 350.453 20.9795 355.026 23.2887L356.565 20.2418ZM336.377 16.3496H304.669V19.7629H336.377V16.3496ZM302.962 18.0562V151H306.375V18.0562H302.962ZM304.669 149.293H286.633V152.707H304.669V149.293ZM355.244 84.9117L391.898 151.82L394.892 150.18L358.238 83.2718L355.244 84.9117ZM393.395 149.293H372.45V152.707H393.395V149.293ZM373.952 150.19L337.88 83.2819L334.875 84.9017L370.947 151.81L373.952 150.19ZM336.377 85.7984H356.741V82.3851H336.377V85.7984ZM423.74 151V152.707H424.945L425.348 151.571L423.74 151ZM404.831 151L403.229 150.412L402.386 152.707H404.831V151ZM459.521 2.05644V0.349791H458.33L457.919 1.46818L459.521 2.05644ZM478.139 2.05644L479.741 1.46818L479.331 0.349791H478.139V2.05644ZM532.829 151V152.707H535.274L534.432 150.412L532.829 151ZM513.921 151L512.312 151.571L512.715 152.707H513.921V151ZM469.412 25.6198L471.02 25.0488L470.617 23.9131H469.412V25.6198ZM468.248 25.6198V23.9131H467.043L466.64 25.0488L468.248 25.6198ZM430.722 92.8189V91.1123H429.015V92.8189H430.722ZM506.939 92.8189H508.646V91.1123H506.939V92.8189ZM506.939 108.819V110.525H508.646V108.819H506.939ZM430.722 108.819H429.015V110.525H430.722V108.819ZM423.74 149.293H404.831V152.707H423.74V149.293ZM406.433 151.588L461.123 2.64469L457.919 1.46818L403.229 150.412L406.433 151.588ZM459.521 3.76308H478.139V0.349791H459.521V3.76308ZM476.537 2.64469L531.227 151.588L534.432 150.412L479.741 1.46818L476.537 2.64469ZM532.829 149.293H513.921V152.707H532.829V149.293ZM515.529 150.429L471.02 25.0488L467.804 26.1907L512.312 151.571L515.529 150.429ZM469.412 23.9131H468.248V27.3264H469.412V23.9131ZM466.64 25.0488L422.132 150.429L425.348 151.571L469.857 26.1907L466.64 25.0488ZM430.722 94.5256H506.939V91.1123H430.722V94.5256ZM505.232 92.8189V108.819H508.646V92.8189H505.232ZM506.939 107.112H430.722V110.525H506.939V107.112ZM432.428 108.819V92.8189H429.015V108.819H432.428ZM556.029 151H554.323V152.707H556.029V151ZM556.029 2.05644V0.349791H554.323V2.05644H556.029ZM633.774 7.43819L632.972 8.94468L632.98 8.94914L633.774 7.43819ZM648.828 21.7653L647.332 22.5859L647.334 22.591L648.828 21.7653ZM650.355 57.4739L648.858 56.6555L648.854 56.6622L648.85 56.669L650.355 57.4739ZM641.483 67.3647L640.545 65.9389L640.536 65.9447L641.483 67.3647ZM629.628 72.7464L629.179 71.0999L627.922 71.4429V72.7464H629.628ZM629.628 74.201H627.922V75.8022L629.52 75.9042L629.628 74.201ZM643.374 79.0009L642.462 80.4439L642.462 80.4439L643.374 79.0009ZM654.501 131.582L655.984 132.426L655.984 132.426L654.501 131.582ZM638.428 145.764L637.694 144.223L637.694 144.223L638.428 145.764ZM574.065 135H572.359V136.707H574.065V135ZM634.937 128.164L636.094 129.419L636.094 129.418L634.937 128.164ZM638.574 97.4734L637.107 98.3466L637.112 98.3539L638.574 97.4734ZM627.592 87.1463L626.768 88.6411L626.78 88.6474L627.592 87.1463ZM574.065 83.219V81.5124H572.359V83.219H574.065ZM574.065 67.5102H572.359V69.2168H574.065V67.5102ZM622.21 64.3102L621.467 62.7737L621.461 62.777L622.21 64.3102ZM632.683 55.2921L631.268 54.3373L631.264 54.3434L631.26 54.3496L632.683 55.2921ZM629.774 24.9652L628.561 26.1656L628.567 26.172L629.774 24.9652ZM574.065 18.0562V16.3496H572.359V18.0562H574.065ZM557.736 151V2.05644H554.323V151H557.736ZM556.029 3.76308H608.101V0.349791H556.029V3.76308ZM608.101 3.76308C618.293 3.76308 626.552 5.52691 632.972 8.94465L634.576 5.93173C627.517 2.1738 618.661 0.349791 608.101 0.349791V3.76308ZM632.98 8.94914C639.456 12.3503 644.214 16.9 647.332 22.5859L650.324 20.9447C646.849 14.6065 641.57 9.60475 634.567 5.92724L632.98 8.94914ZM647.334 22.591C650.482 28.2848 652.067 34.6157 652.067 41.6196H655.48C655.48 34.0781 653.768 27.1729 650.322 20.9396L647.334 22.591ZM652.067 41.6196C652.067 47.8286 650.96 52.8088 648.858 56.6555L651.853 58.2924C654.308 53.7997 655.48 48.2104 655.48 41.6196H652.067ZM648.85 56.669C646.744 60.6063 643.975 63.6824 640.545 65.9389L642.421 68.7905C646.36 66.1986 649.506 62.6809 651.86 58.2789L648.85 56.669ZM640.536 65.9447C637.054 68.2659 633.271 69.984 629.179 71.0999L630.077 74.393C634.519 73.1817 638.639 71.3119 642.429 68.7847L640.536 65.9447ZM627.922 72.7464V74.201H631.335V72.7464H627.922ZM629.52 75.9042C633.742 76.1737 638.051 77.658 642.462 80.4439L644.285 77.558C639.484 74.5257 634.63 72.8101 629.737 72.4978L629.52 75.9042ZM642.462 80.4439C646.799 83.1831 650.47 87.1326 653.455 92.3566L656.419 90.6631C653.198 85.0266 649.16 80.6369 644.285 77.558L642.462 80.4439ZM653.455 92.3566C656.378 97.4709 657.885 103.805 657.885 111.437H661.298C661.298 103.36 659.702 96.4093 656.419 90.6631L653.455 92.3566ZM657.885 111.437C657.885 118.634 656.252 125.054 653.017 130.738L655.984 132.426C659.537 126.183 661.298 119.173 661.298 111.437H657.885ZM653.017 130.738C649.826 136.346 644.759 140.854 637.694 144.223L639.163 147.304C646.74 143.691 652.388 138.745 655.984 132.426L653.017 130.738ZM637.694 144.223C630.681 147.567 621.431 149.293 609.847 149.293V152.707C621.729 152.707 631.533 150.942 639.163 147.304L637.694 144.223ZM609.847 149.293H556.029V152.707H609.847V149.293ZM574.065 136.707H609.847V133.294H574.065V136.707ZM609.847 136.707C621.762 136.707 630.669 134.419 636.094 129.419L633.781 126.909C629.315 131.024 621.494 133.294 609.847 133.294V136.707ZM636.094 129.418C641.423 124.503 644.135 118.479 644.135 111.437H640.721C640.721 117.486 638.439 122.613 633.78 126.909L636.094 129.418ZM644.135 111.437C644.135 106.088 642.767 101.129 640.036 96.5929L637.112 98.3539C639.519 102.351 640.721 106.701 640.721 111.437H644.135ZM640.04 96.6002C637.301 92.0006 633.405 88.3497 628.404 85.6451L626.78 88.6474C631.282 91.0821 634.707 94.316 637.107 98.3466L640.04 96.6002ZM628.416 85.6515C623.366 82.8693 617.448 81.5124 610.719 81.5124V84.9257C616.985 84.9257 622.315 86.1869 626.768 88.641L628.416 85.6515ZM610.719 81.5124H574.065V84.9257H610.719V81.5124ZM572.359 83.219V135H575.772V83.219H572.359ZM574.065 69.2168H607.519V65.8035H574.065V69.2168ZM607.519 69.2168C613.179 69.2168 618.336 68.1037 622.96 65.8434L621.461 62.777C617.357 64.7833 612.721 65.8035 607.519 65.8035V69.2168ZM622.953 65.8467C627.626 63.5874 631.357 60.3826 634.105 56.2347L631.26 54.3496C628.869 57.9591 625.619 60.7664 621.467 62.7737L622.953 65.8467ZM634.097 56.2469C636.928 52.0533 638.317 47.1541 638.317 41.6196H634.903C634.903 46.5576 633.674 50.7735 631.268 54.3373L634.097 56.2469ZM638.317 41.6196C638.317 34.6295 635.864 28.6416 630.98 23.7585L628.567 26.172C632.799 30.4039 634.903 35.5189 634.903 41.6196H638.317ZM630.987 23.7649C625.974 18.6988 618.212 16.3496 608.101 16.3496V19.7629C617.772 19.7629 624.458 22.0196 628.561 26.1656L630.987 23.7649ZM608.101 16.3496H574.065V19.7629H608.101V16.3496ZM572.359 18.0562V67.5102H575.772V18.0562H572.359ZM689.227 151H687.521V152.707H689.227V151ZM689.227 2.05644V0.349791H687.521V2.05644H689.227ZM766.972 7.43819L766.17 8.94468L766.178 8.94914L766.972 7.43819ZM782.026 21.7653L780.53 22.5859L780.533 22.591L782.026 21.7653ZM783.554 57.4739L782.056 56.6555L782.052 56.6622L782.049 56.669L783.554 57.4739ZM774.681 67.3647L773.743 65.9389L773.734 65.9447L774.681 67.3647ZM762.827 72.7464L762.377 71.0999L761.12 71.4429V72.7464H762.827ZM762.827 74.201H761.12V75.8022L762.718 75.9042L762.827 74.201ZM776.572 79.0009L775.66 80.4439L775.66 80.4439L776.572 79.0009ZM787.699 131.582L789.182 132.426L789.182 132.426L787.699 131.582ZM771.626 145.764L770.892 144.223L770.892 144.223L771.626 145.764ZM707.264 135H705.557V136.707H707.264V135ZM768.136 128.164L769.292 129.419L769.293 129.418L768.136 128.164ZM771.772 97.4734L770.306 98.3466L770.31 98.3539L771.772 97.4734ZM760.79 87.1463L759.967 88.6411L759.978 88.6474L760.79 87.1463ZM707.264 83.219V81.5124H705.557V83.219H707.264ZM707.264 67.5102H705.557V69.2168H707.264V67.5102ZM755.408 64.3102L754.666 62.7737L754.659 62.777L755.408 64.3102ZM765.881 55.2921L764.467 54.3373L764.462 54.3434L764.458 54.3496L765.881 55.2921ZM762.972 24.9652L761.759 26.1656L761.765 26.172L762.972 24.9652ZM707.264 18.0562V16.3496H705.557V18.0562H707.264ZM690.934 151V2.05644H687.521V151H690.934ZM689.227 3.76308H741.3V0.349791H689.227V3.76308ZM741.3 3.76308C751.491 3.76308 759.75 5.52691 766.17 8.94465L767.774 5.93173C760.715 2.1738 751.859 0.349791 741.3 0.349791V3.76308ZM766.178 8.94914C772.655 12.3503 777.412 16.9 780.53 22.5859L783.523 20.9447C780.047 14.6065 774.768 9.60475 767.765 5.92724L766.178 8.94914ZM780.533 22.591C783.681 28.2848 785.265 34.6157 785.265 41.6196H788.678C788.678 34.0781 786.966 27.1729 783.52 20.9396L780.533 22.591ZM785.265 41.6196C785.265 47.8286 784.158 52.8088 782.056 56.6555L785.051 58.2924C787.506 53.7997 788.678 48.2104 788.678 41.6196H785.265ZM782.049 56.669C779.943 60.6063 777.173 63.6824 773.743 65.9389L775.619 68.7905C779.559 66.1986 782.704 62.6809 785.058 58.2789L782.049 56.669ZM773.734 65.9447C770.252 68.2659 766.469 69.984 762.377 71.0999L763.276 74.393C767.717 73.1817 771.837 71.3119 775.628 68.7847L773.734 65.9447ZM761.12 72.7464V74.201H764.533V72.7464H761.12ZM762.718 75.9042C766.94 76.1737 771.25 77.658 775.66 80.4439L777.483 77.558C772.682 74.5257 767.828 72.8101 762.935 72.4978L762.718 75.9042ZM775.66 80.4439C779.998 83.1831 783.668 87.1326 786.654 92.3566L789.617 90.6631C786.396 85.0266 782.358 80.6369 777.483 77.558L775.66 80.4439ZM786.654 92.3566C789.576 97.4709 791.083 103.805 791.083 111.437H794.496C794.496 103.36 792.901 96.4093 789.617 90.6631L786.654 92.3566ZM791.083 111.437C791.083 118.634 789.45 125.054 786.216 130.738L789.182 132.426C792.735 126.183 794.496 119.173 794.496 111.437H791.083ZM786.216 130.738C783.024 136.346 777.957 140.854 770.892 144.223L772.361 147.304C779.938 143.691 785.586 138.745 789.182 132.426L786.216 130.738ZM770.892 144.223C763.879 147.567 754.629 149.293 743.045 149.293V152.707C754.927 152.707 764.731 150.942 772.361 147.304L770.892 144.223ZM743.045 149.293H689.227V152.707H743.045V149.293ZM707.264 136.707H743.045V133.294H707.264V136.707ZM743.045 136.707C754.961 136.707 763.867 134.419 769.292 129.419L766.979 126.909C762.513 131.024 754.693 133.294 743.045 133.294V136.707ZM769.293 129.418C774.622 124.503 777.333 118.479 777.333 111.437H773.92C773.92 117.486 771.637 122.613 766.978 126.909L769.293 129.418ZM777.333 111.437C777.333 106.088 775.966 101.129 773.234 96.5929L770.31 98.3539C772.717 102.351 773.92 106.701 773.92 111.437H777.333ZM773.238 96.6002C770.499 92.0006 766.603 88.3497 761.602 85.6451L759.978 88.6474C764.48 91.0821 767.905 94.316 770.306 98.3466L773.238 96.6002ZM761.614 85.6515C756.565 82.8693 750.646 81.5124 743.918 81.5124V84.9257C750.183 84.9257 755.513 86.1869 759.967 88.641L761.614 85.6515ZM743.918 81.5124H707.264V84.9257H743.918V81.5124ZM705.557 83.219V135H708.97V83.219H705.557ZM707.264 69.2168H740.718V65.8035H707.264V69.2168ZM740.718 69.2168C746.377 69.2168 751.535 68.1037 756.158 65.8434L754.659 62.777C750.555 64.7833 745.919 65.8035 740.718 65.8035V69.2168ZM756.151 65.8467C760.824 63.5874 764.556 60.3826 767.304 56.2347L764.458 54.3496C762.067 57.9591 758.817 60.7664 754.666 62.7737L756.151 65.8467ZM767.296 56.2469C770.126 52.0533 771.515 47.1541 771.515 41.6196H768.102C768.102 46.5576 766.872 50.7735 764.467 54.3373L767.296 56.2469ZM771.515 41.6196C771.515 34.6295 769.062 28.6416 764.179 23.7585L761.765 26.172C765.997 30.4039 768.102 35.5189 768.102 41.6196H771.515ZM764.185 23.7649C759.172 18.6988 751.41 16.3496 741.3 16.3496V19.7629C750.97 19.7629 757.657 22.0196 761.759 26.1656L764.185 23.7649ZM741.3 16.3496H707.264V19.7629H741.3V16.3496ZM705.557 18.0562V67.5102H708.97V18.0562H705.557ZM822.426 151H820.719V152.707H822.426V151ZM822.426 2.05644V0.349791H820.719V2.05644H822.426ZM840.462 2.05644H842.169V0.349791H840.462V2.05644ZM840.462 135H838.755V136.707H840.462V135ZM909.697 135H911.404V133.294H909.697V135ZM909.697 151V152.707H911.404V151H909.697ZM824.132 151V2.05644H820.719V151H824.132ZM822.426 3.76308H840.462V0.349791H822.426V3.76308ZM838.755 2.05644V135H842.169V2.05644H838.755ZM840.462 136.707H909.697V133.294H840.462V136.707ZM907.991 135V151H911.404V135H907.991ZM909.697 149.293H822.426V152.707H909.697V149.293ZM937.624 151H935.918V152.707H937.624V151ZM937.624 2.05644V0.349791H935.918V2.05644H937.624ZM1027.51 2.05644H1029.22V0.349791H1027.51V2.05644ZM1027.51 18.0562V19.7629H1029.22V18.0562H1027.51ZM955.66 18.0562V16.3496H953.954V18.0562H955.66ZM955.66 68.3829H953.954V70.0895H955.66V68.3829ZM1022.86 68.3829H1024.57V66.6762H1022.86V68.3829ZM1022.86 84.3827V86.0893H1024.57V84.3827H1022.86ZM955.66 84.3827V82.676H953.954V84.3827H955.66ZM955.66 135H953.954V136.707H955.66V135ZM1028.68 135H1030.38V133.294H1028.68V135ZM1028.68 151V152.707H1030.38V151H1028.68ZM939.331 151V2.05644H935.918V151H939.331ZM937.624 3.76308H1027.51V0.349791H937.624V3.76308ZM1025.81 2.05644V18.0562H1029.22V2.05644H1025.81ZM1027.51 16.3496H955.66V19.7629H1027.51V16.3496ZM953.954 18.0562V68.3829H957.367V18.0562H953.954ZM955.66 70.0895H1022.86V66.6762H955.66V70.0895ZM1021.15 68.3829V84.3827H1024.57V68.3829H1021.15ZM1022.86 82.676H955.66V86.0893H1022.86V82.676ZM953.954 84.3827V135H957.367V84.3827H953.954ZM955.66 136.707H1028.68V133.294H955.66V136.707ZM1026.97 135V151H1030.38V135H1026.97ZM1028.68 149.293H937.624V152.707H1028.68V149.293Z" fill="white"/>
</svg>
