<svg width="205" height="82" viewBox="0 0 205 82" fill="none" xmlns="http://www.w3.org/2000/svg">
<g filter="url(#filter0_d_630_1530)">
<rect x="5" y="4" width="195" height="61.3869" rx="7.48111" fill="white"/>
<rect x="7.00387" y="6.00387" width="190.992" height="57.3791" rx="5.47724" stroke="#FFC000" stroke-width="4.00774"/>
</g>
<g filter="url(#filter1_d_630_1530)">
<path d="M12.8108 16.0497C12.8108 13.8363 14.6051 12.0419 16.8185 12.0419H187.912C190.126 12.0419 191.92 13.8363 191.92 16.0497V53.3372C191.92 55.5506 190.126 57.3449 187.912 57.3449H16.8185C14.6051 57.3449 12.8108 55.5506 12.8108 53.3372V16.0497Z" fill="#1D59FC"/>
<path d="M16.8185 12.5763H187.912C189.83 12.5763 191.386 14.1314 191.386 16.0497V53.3372C191.386 55.2555 189.83 56.8105 187.912 56.8105H16.8185C14.9002 56.8105 13.3452 55.2554 13.3452 53.3372V16.0497C13.3452 14.1314 14.9002 12.5763 16.8185 12.5763Z" stroke="#FAFAFA" stroke-width="1.06873"/>
</g>
<g filter="url(#filter2_d_630_1530)">
<rect x="19.8135" y="21.4242" width="24.2403" height="24.1258" rx="2.67182" fill="white"/>
<g filter="url(#filter3_d_630_1530)">
<path d="M27.0274 26.2891H31.5674C33.5365 26.2891 35.022 26.5744 36.0239 27.145C37.0258 27.7155 37.5268 28.7 37.5268 30.0986C37.5268 30.683 37.4224 31.2118 37.2137 31.685C37.0119 32.1512 36.7162 32.5373 36.3266 32.8435C35.9369 33.1426 35.4568 33.3444 34.8863 33.4488V33.5532C35.4777 33.6575 36.003 33.8419 36.4622 34.1063C36.9284 34.3707 37.2937 34.7499 37.5581 35.2439C37.8295 35.7379 37.9651 36.3781 37.9651 37.1643C37.9651 38.0967 37.7425 38.8899 37.2972 39.5439C36.8588 40.1979 36.2291 40.6954 35.4081 41.0364C34.594 41.3773 33.6269 41.5478 32.5067 41.5478H27.0274V26.2891ZM29.5322 32.5825H31.9327C33.0668 32.5825 33.853 32.3982 34.2914 32.0294C34.7297 31.6606 34.9489 31.1214 34.9489 30.4117C34.9489 29.6881 34.688 29.1662 34.1661 28.8462C33.6513 28.5261 32.8302 28.3661 31.7031 28.3661H29.5322V32.5825ZM29.5322 34.6073V39.45H32.1727C33.3416 39.45 34.1627 39.2238 34.6358 38.7716C35.1089 38.3193 35.3455 37.707 35.3455 36.9347C35.3455 36.4616 35.2377 36.051 35.022 35.7031C34.8132 35.3553 34.4688 35.0874 33.9887 34.8995C33.5086 34.7047 32.8615 34.6073 32.0475 34.6073H29.5322Z" fill="#1D59FC"/>
</g>
<g filter="url(#filter4_d_630_1530)">
<path d="M41.4312 40.5649C41.4312 40.7371 41.3964 40.8867 41.3268 41.0137C41.2572 41.1407 41.1616 41.2451 41.0398 41.3268C40.9198 41.4068 40.7806 41.4642 40.6223 41.499V41.5173C40.9267 41.5556 41.1563 41.6512 41.3112 41.8043C41.4677 41.9574 41.546 42.16 41.546 42.4123C41.546 42.6332 41.4929 42.8306 41.3868 43.0045C41.2807 43.1767 41.1181 43.3124 40.8989 43.4116C40.6797 43.5107 40.3979 43.5603 40.0535 43.5603C39.8465 43.5603 39.6543 43.5438 39.4769 43.5107C39.3012 43.4777 39.1342 43.4246 38.9759 43.3516V42.8062C39.1377 42.8863 39.3099 42.948 39.4925 42.9915C39.6752 43.035 39.8483 43.0567 40.0118 43.0567C40.3301 43.0567 40.5571 42.9976 40.6928 42.8793C40.8285 42.7593 40.8963 42.594 40.8963 42.3836C40.8963 42.2479 40.8606 42.1365 40.7893 42.0496C40.7197 41.9626 40.611 41.8974 40.4632 41.8539C40.3171 41.8104 40.1283 41.7887 39.897 41.7887H39.5604V41.2955H39.8996C40.1205 41.2955 40.2979 41.2694 40.4319 41.2172C40.5658 41.1633 40.6623 41.0894 40.7215 40.9955C40.7824 40.9015 40.8128 40.7919 40.8128 40.6667C40.8128 40.5032 40.7597 40.3762 40.6536 40.2858C40.5475 40.1936 40.3901 40.1475 40.1814 40.1475C40.0527 40.1475 39.9352 40.1623 39.8291 40.1918C39.7248 40.2214 39.6282 40.2588 39.5395 40.304C39.4508 40.3492 39.3664 40.3979 39.2864 40.4501L38.9916 40.0248C39.136 39.917 39.3082 39.8257 39.5082 39.7509C39.7082 39.6761 39.9413 39.6387 40.2075 39.6387C40.5988 39.6387 40.9006 39.723 41.1129 39.8918C41.3251 40.0588 41.4312 40.2831 41.4312 40.5649Z" fill="#1D59FC"/>
</g>
</g>
<g filter="url(#filter5_d_630_1530)">
<rect x="159.061" y="21.4242" width="24.2403" height="24.1258" rx="2.67182" fill="white"/>
<g filter="url(#filter6_d_630_1530)">
<path d="M175.991 41.5478H167.35V26.2891H175.991V28.3974H169.854V32.5408H175.605V34.6386H169.854V39.4291H175.991V41.5478Z" fill="#1D59FC"/>
</g>
<g filter="url(#filter7_d_630_1530)">
<path d="M180.044 43.5081H179.429V41.0529C179.429 40.9711 179.429 40.8893 179.431 40.8076C179.433 40.7258 179.435 40.6458 179.436 40.5675C179.44 40.4893 179.444 40.4145 179.449 40.3432C179.413 40.3832 179.368 40.4266 179.314 40.4736C179.262 40.5206 179.206 40.5693 179.147 40.6197L178.708 40.9694L178.401 40.5806L179.533 39.6935H180.044V43.5081Z" fill="#1D59FC"/>
</g>
</g>
<g filter="url(#filter8_d_630_1530)">
<rect x="130.242" y="21.4242" width="24.2403" height="24.1258" rx="2.67182" fill="white"/>
<g filter="url(#filter9_d_630_1530)">
<path d="M148.863 41.5478H145.784L138.311 29.368H138.217C138.245 29.7785 138.27 30.2134 138.291 30.6726C138.318 31.1318 138.339 31.605 138.353 32.092C138.374 32.5791 138.391 33.0731 138.405 33.574V41.5478H136.13V26.2891H139.188L146.65 38.3854H146.723C146.71 38.0306 146.692 37.6235 146.671 37.1643C146.65 36.7051 146.63 36.2319 146.609 35.7449C146.595 35.2509 146.584 34.7743 146.577 34.3151V26.2891H148.863V41.5478Z" fill="#1D59FC"/>
</g>
<g filter="url(#filter10_d_630_1530)">
<path d="M151.225 43.5081H150.61V41.0529C150.61 40.9711 150.61 40.8893 150.612 40.8076C150.614 40.7258 150.616 40.6458 150.617 40.5675C150.621 40.4893 150.625 40.4145 150.63 40.3432C150.594 40.3832 150.549 40.4266 150.495 40.4736C150.443 40.5206 150.387 40.5693 150.328 40.6197L149.889 40.9694L149.582 40.5806L150.714 39.6935H151.225V43.5081Z" fill="#1D59FC"/>
</g>
</g>
<g filter="url(#filter11_d_630_1530)">
<rect x="103.039" y="21.4242" width="24.2403" height="24.1258" rx="2.67182" fill="white"/>
<g filter="url(#filter12_d_630_1530)">
<path d="M114.031 41.5478V26.2891H116.535V41.5478H114.031Z" fill="#1D59FC"/>
</g>
<g filter="url(#filter13_d_630_1530)">
<path d="M124.022 43.5081H123.407V41.0529C123.407 40.9711 123.407 40.8893 123.409 40.8076C123.411 40.7258 123.413 40.6458 123.414 40.5675C123.418 40.4893 123.422 40.4145 123.427 40.3432C123.391 40.3832 123.346 40.4266 123.292 40.4736C123.24 40.5206 123.184 40.5693 123.125 40.6197L122.686 40.9694L122.379 40.5806L123.511 39.6935H124.022V43.5081Z" fill="#1D59FC"/>
</g>
</g>
<g filter="url(#filter14_d_630_1530)">
<rect x="75.8357" y="21.4242" width="24.2403" height="24.1258" rx="2.67182" fill="#F6F8FF"/>
<g filter="url(#filter15_d_630_1530)">
<path d="M92.4843 41.5478L90.9919 37.3104H85.1577L83.6652 41.5478H81.0247L86.7023 26.2265H89.4785L95.1457 41.5478H92.4843ZM90.3448 35.1604L88.8941 30.9857C88.8384 30.8048 88.7584 30.5508 88.654 30.2238C88.5497 29.8898 88.4453 29.5524 88.3409 29.2114C88.2365 28.8636 88.1496 28.5713 88.08 28.3348C88.0104 28.62 87.9234 28.9401 87.8191 29.2949C87.7217 29.6428 87.6243 29.9699 87.5268 30.276C87.4364 30.5822 87.3668 30.8187 87.3181 30.9857L85.857 35.1604H90.3448Z" fill="#1D59FC"/>
</g>
<g filter="url(#filter16_d_630_1530)">
<path d="M96.8192 43.5081H96.2035V41.0529C96.2035 40.9711 96.2043 40.8893 96.2061 40.8076C96.2078 40.7258 96.2096 40.6458 96.2113 40.5675C96.2148 40.4893 96.2191 40.4145 96.2243 40.3432C96.1878 40.3832 96.1426 40.4266 96.0887 40.4736C96.0365 40.5206 95.9808 40.5693 95.9217 40.6197L95.4833 40.9694L95.1754 40.5806L96.3078 39.6935H96.8192V43.5081Z" fill="#1D59FC"/>
</g>
</g>
<g filter="url(#filter17_d_630_1530)">
<rect x="48.6326" y="21.9604" width="24.2403" height="24.1258" rx="2.67182" fill="white"/>
<g filter="url(#filter18_d_630_1530)">
<path d="M60.2205 26.8253C61.5355 26.8253 62.621 26.9853 63.4768 27.3054C64.3395 27.6254 64.9797 28.1125 65.3971 28.7665C65.8216 29.4206 66.0338 30.252 66.0338 31.2609C66.0338 32.0124 65.8946 32.6525 65.6163 33.1813C65.338 33.7101 64.9727 34.1484 64.5205 34.4963C64.0682 34.8442 63.5846 35.1225 63.0697 35.3313L67.401 42.0839H64.5726L60.8884 35.9679H58.4358V42.0839H55.931V26.8253H60.2205ZM60.0535 28.9126H58.4358V33.9014H60.1683C61.3303 33.9014 62.1722 33.6857 62.694 33.2544C63.2228 32.823 63.4872 32.1863 63.4872 31.3444C63.4872 30.4608 63.2054 29.8346 62.6418 29.4658C62.0852 29.097 61.2224 28.9126 60.0535 28.9126Z" fill="#1D59FC"/>
</g>
<g filter="url(#filter19_d_630_1530)">
<path d="M69.6162 44.0442H69.0005V41.589C69.0005 41.5072 69.0013 41.4255 69.0031 41.3437C69.0048 41.2619 69.0066 41.1819 69.0083 41.1036C69.0118 41.0254 69.0161 40.9506 69.0213 40.8793C68.9848 40.9193 68.9396 40.9628 68.8857 41.0097C68.8335 41.0567 68.7778 41.1054 68.7187 41.1558L68.2803 41.5055L67.9724 41.1167L69.1048 40.2296H69.6162V44.0442Z" fill="#1D59FC"/>
</g>
</g>
<g filter="url(#filter20_dd_630_1530)">
<path d="M116.843 52.4876C117.822 52.4876 118.312 52.8884 118.312 53.69C118.312 53.9393 118.259 54.251 118.152 54.6251L117.511 56.7893C117.315 57.4483 117.074 57.9114 116.789 58.1786C116.504 58.4458 116.095 58.5794 115.56 58.5794C115.115 58.5794 114.768 58.4636 114.518 58.2321C114.287 58.0005 114.064 57.6354 113.85 57.1366L113.396 56.0412C113.254 55.7027 113.102 55.4712 112.942 55.3465C112.782 55.2218 112.532 55.1595 112.194 55.1595H111.579L108.186 67.1025C108.133 67.3341 108.106 67.5389 108.106 67.717C108.106 67.9308 108.133 68.1089 108.186 68.2514C108.257 68.3939 108.355 68.5453 108.48 68.7056C108.64 68.955 108.72 69.1598 108.72 69.3201C108.72 69.3558 108.703 69.4448 108.667 69.5873C108.578 69.8189 108.4 69.9881 108.133 70.095C107.883 70.2018 107.518 70.2553 107.037 70.2553H100.758C100.384 70.2553 100.09 70.1929 99.8766 70.0682C99.6807 69.9436 99.5827 69.7654 99.5827 69.5339C99.5827 69.427 99.6094 69.3201 99.6629 69.2133C99.7341 69.0529 99.8143 68.9372 99.9033 68.8659C100.01 68.7769 100.162 68.67 100.358 68.5453C100.625 68.385 100.847 68.2069 101.025 68.0109C101.204 67.815 101.355 67.5122 101.48 67.1025L104.846 55.1595H104.232C103.84 55.1595 103.519 55.2218 103.27 55.3465C103.02 55.4712 102.753 55.7027 102.468 56.0412L101.587 57.1366C101.177 57.6175 100.776 57.9827 100.384 58.2321C100.01 58.4636 99.6005 58.5794 99.1552 58.5794C98.7455 58.5794 98.4249 58.4725 98.1934 58.2588C97.9618 58.045 97.846 57.7511 97.846 57.3771C97.846 57.199 97.8727 57.003 97.9262 56.7893L98.6208 54.3579C98.7633 53.8592 98.9237 53.4851 99.1018 53.2357C99.2799 52.9686 99.5293 52.7815 99.8499 52.6747C100.188 52.55 100.66 52.4876 101.266 52.4876H116.843ZM130.437 56.148C131.434 56.148 132.227 56.4508 132.815 57.0565C133.42 57.6621 133.723 58.4102 133.723 59.3008C133.723 59.6392 133.687 59.9509 133.616 60.2359C133.438 60.9662 133.1 61.5273 132.601 61.9192C132.102 62.311 131.505 62.507 130.811 62.507C130.134 62.507 129.617 62.3467 129.261 62.026C128.923 61.7054 128.62 61.2779 128.353 60.7436C128.21 60.4408 128.077 60.2181 127.952 60.0756C127.827 59.9331 127.685 59.8619 127.524 59.8619C127.346 59.8619 127.186 59.9331 127.043 60.0756C126.919 60.2181 126.803 60.4675 126.696 60.8237L124.639 67.5033C124.603 67.5923 124.585 67.7259 124.585 67.9041C124.585 68.1356 124.648 68.3316 124.772 68.4919C124.915 68.6344 125.102 68.7769 125.333 68.9194C125.547 69.0618 125.69 69.1776 125.761 69.2667C125.832 69.3558 125.859 69.4715 125.841 69.614C125.805 69.8456 125.672 70.0148 125.44 70.1217C125.227 70.2285 124.853 70.282 124.318 70.282H117.478C117.015 70.282 116.686 70.2107 116.49 70.0682C116.276 69.9079 116.196 69.7031 116.249 69.4537C116.32 69.24 116.508 69.0529 116.81 68.8926C117.078 68.7501 117.3 68.5809 117.478 68.385C117.656 68.1891 117.808 67.8773 117.932 67.4498L120.31 59.7283C120.346 59.6392 120.364 59.5145 120.364 59.3542C120.364 59.1583 120.319 59.0069 120.23 58.9C120.159 58.7931 120.034 58.6596 119.856 58.4992C119.678 58.3567 119.553 58.2321 119.482 58.1252C119.411 58.0183 119.402 57.8758 119.455 57.6977C119.562 57.288 120.123 56.9318 121.139 56.629C122.154 56.3083 123.214 56.148 124.318 56.148C125.048 56.148 125.654 56.3173 126.135 56.6557C126.616 56.9763 126.928 57.4394 127.07 58.045C127.925 56.7804 129.047 56.148 130.437 56.148ZM150.656 66.5949C150.62 66.7374 150.602 66.8442 150.602 66.9155C150.602 67.0402 150.629 67.1381 150.682 67.2094C150.754 67.2806 150.843 67.3163 150.95 67.3163C151.163 67.3163 151.341 67.2272 151.484 67.0491C151.644 66.8531 151.751 66.7552 151.805 66.7552C151.894 66.7552 151.965 66.8175 152.018 66.9422C152.09 67.0491 152.125 67.1827 152.125 67.343C152.143 67.8417 151.965 68.3405 151.591 68.8392C151.217 69.3201 150.691 69.7209 150.014 70.0415C149.338 70.3621 148.581 70.5224 147.743 70.5224C146.692 70.5224 145.855 70.3087 145.232 69.8812C144.608 69.4537 144.208 68.8926 144.03 68.198C143.388 68.9104 142.676 69.4537 141.892 69.8278C141.126 70.184 140.342 70.3621 139.541 70.3621C138.294 70.3621 137.243 70.0593 136.388 69.4537C135.551 68.8303 135.132 67.9664 135.132 66.862C135.132 66.3633 135.221 65.8468 135.4 65.3124L137.11 59.7283C137.163 59.568 137.19 59.4344 137.19 59.3275C137.19 59.1316 137.145 58.9802 137.056 58.8733C136.967 58.7486 136.833 58.6239 136.655 58.4992C136.477 58.3567 136.352 58.2321 136.281 58.1252C136.21 58.0183 136.201 57.8758 136.255 57.6977C136.361 57.288 136.922 56.9318 137.938 56.629C138.953 56.3083 140.013 56.148 141.117 56.148C142.15 56.148 142.907 56.344 143.388 56.7358C143.869 57.1277 144.11 57.6621 144.11 58.3389C144.11 58.7486 144.047 59.1405 143.923 59.5145L142.239 65.0719C142.168 65.2679 142.133 65.4549 142.133 65.633C142.133 65.8824 142.204 66.0694 142.346 66.1941C142.489 66.3188 142.676 66.3811 142.907 66.3811C143.246 66.3811 143.522 66.2832 143.736 66.0872C143.949 65.8913 144.163 65.5618 144.377 65.0986L146.007 59.7283C146.06 59.568 146.087 59.4344 146.087 59.3275C146.087 59.1316 146.042 58.9802 145.953 58.8733C145.864 58.7486 145.739 58.6239 145.579 58.4992C145.401 58.3567 145.276 58.2321 145.205 58.1252C145.134 58.0183 145.125 57.8758 145.178 57.6977C145.267 57.288 145.82 56.9318 146.835 56.629C147.85 56.3083 148.91 56.148 150.014 56.148C151.048 56.148 151.805 56.344 152.285 56.7358C152.784 57.1277 153.034 57.6532 153.034 58.3122C153.034 58.6506 152.962 59.0514 152.82 59.5145L150.656 66.5949ZM163.495 55.9076C164.973 55.9076 166.247 56.0412 167.316 56.3083C168.402 56.5755 169.231 56.9496 169.801 57.4305C170.388 57.9114 170.682 58.4547 170.682 59.0603C170.682 59.6837 170.433 60.1914 169.934 60.5833C169.453 60.9751 168.776 61.1711 167.904 61.1711C167.013 61.1711 166.256 60.9484 165.632 60.5031C165.027 60.0578 164.724 59.4967 164.724 58.8199C164.724 58.5883 164.76 58.3656 164.831 58.1519C164.51 58.0628 164.225 58.0183 163.976 58.0183C163.531 58.0183 163.157 58.1252 162.854 58.3389C162.569 58.5527 162.435 58.8555 162.453 59.2474C162.453 59.7105 162.685 60.1023 163.148 60.423C163.611 60.7436 164.359 61.1443 165.392 61.6253C166.283 62.0171 167.013 62.3823 167.583 62.7207C168.171 63.0413 168.661 63.451 169.052 63.9498C169.462 64.4485 169.667 65.0363 169.667 65.7132C169.667 65.8557 169.631 66.1228 169.56 66.5147C169.275 67.7081 168.482 68.6522 167.182 69.3468C165.882 70.0415 164.172 70.3889 162.052 70.3889C159.665 70.3889 157.768 70.0682 156.361 69.427C154.972 68.7858 154.277 67.9041 154.277 66.7819C154.277 66.016 154.509 65.4371 154.972 65.0452C155.435 64.6533 156.05 64.4574 156.815 64.4574C157.706 64.4574 158.463 64.7335 159.087 65.2857C159.728 65.8378 160.048 66.5414 160.048 67.3964C160.048 67.628 160.022 67.8684 159.968 68.1178C160.396 68.2247 160.805 68.2781 161.197 68.2781C161.66 68.2781 162.043 68.1534 162.346 67.9041C162.649 67.6547 162.8 67.3074 162.8 66.862C162.783 66.4524 162.578 66.105 162.186 65.82C161.794 65.5172 161.171 65.161 160.316 64.7513C159.514 64.3773 158.855 64.0299 158.338 63.7093C157.822 63.3709 157.377 62.9523 157.002 62.4535C156.646 61.9548 156.468 61.367 156.468 60.6901C156.468 59.2295 157.074 58.0717 158.285 57.2168C159.514 56.344 161.251 55.9076 163.495 55.9076ZM184.089 56.4954C184.427 56.4954 184.685 56.5666 184.864 56.7091C185.059 56.8516 185.157 57.0476 185.157 57.2969C185.157 57.3682 185.14 57.4929 185.104 57.671C184.872 58.4547 184.338 58.8466 183.501 58.8466H181.951L179.947 65.446C179.858 65.7132 179.814 65.9893 179.814 66.2742C179.814 66.5949 179.903 66.8175 180.081 66.9422C180.259 67.0669 180.508 67.1292 180.829 67.1292C181.114 67.1292 181.47 67.0936 181.898 67.0224C182.112 66.9689 182.299 66.9422 182.459 66.9422C182.584 66.9422 182.673 66.9867 182.726 67.0758C182.797 67.147 182.833 67.245 182.833 67.3697C182.851 67.7259 182.584 68.1623 182.031 68.6789C181.497 69.1776 180.767 69.614 179.841 69.9881C178.914 70.3443 177.89 70.5224 176.768 70.5224C175.557 70.5224 174.586 70.2464 173.856 69.6942C173.125 69.142 172.76 68.385 172.76 67.4231C172.76 66.9778 172.831 66.5503 172.974 66.1407L174.684 60.8504C174.773 60.5476 174.817 60.3072 174.817 60.1291C174.817 59.7728 174.728 59.47 174.55 59.2206C174.39 58.9713 174.158 58.713 173.856 58.4458C173.588 58.1964 173.401 57.9916 173.295 57.8313C173.188 57.6532 173.161 57.4483 173.214 57.2168C173.286 56.9852 173.437 56.8071 173.669 56.6824C173.9 56.5577 174.265 56.4954 174.764 56.4954H176.26L177.944 54.8121C178.531 54.2243 179.066 53.8146 179.547 53.5831C180.045 53.3515 180.687 53.2357 181.47 53.2357C182.593 53.2357 183.154 53.6632 183.154 54.5182C183.154 54.7854 183.118 55.0348 183.047 55.2663L182.673 56.4954H184.089Z" fill="white"/>
<path d="M118.152 54.6251L123.275 56.1432L123.283 56.1182L123.29 56.0931L118.152 54.6251ZM117.511 56.7893L122.633 58.3121L122.634 58.3073L117.511 56.7893ZM116.789 58.1786L113.135 54.2802L113.135 54.2802L116.789 58.1786ZM114.518 58.2321L110.74 62.0106L110.81 62.0805L110.882 62.1478L114.518 58.2321ZM113.85 57.1366L108.914 59.1833L108.926 59.2125L108.939 59.2416L113.85 57.1366ZM113.396 56.0412L118.332 53.9945L118.327 53.981L118.321 53.9675L113.396 56.0412ZM112.942 55.3465L109.661 59.5645L109.661 59.5645L112.942 55.3465ZM111.579 55.1595V49.8158H107.542L106.439 53.699L111.579 55.1595ZM108.186 67.1025L103.046 65.6421L103.009 65.7707L102.979 65.9009L108.186 67.1025ZM108.186 68.2514L103.183 70.1277L103.281 70.3903L103.406 70.6412L108.186 68.2514ZM108.48 68.7056L112.975 65.816L112.845 65.6142L112.698 65.4249L108.48 68.7056ZM108.667 69.5873L113.654 71.5056L113.772 71.2005L113.851 70.8833L108.667 69.5873ZM108.133 70.095L106.148 65.1335L106.087 65.1577L106.028 65.1834L108.133 70.095ZM99.8766 70.0682L97.0077 74.5765L97.0949 74.6319L97.1841 74.684L99.8766 70.0682ZM99.6629 69.2133L104.442 71.603L104.497 71.4944L104.546 71.3835L99.6629 69.2133ZM99.9033 68.8659L103.241 73.0386L103.283 73.0052L103.324 72.971L99.9033 68.8659ZM100.358 68.5453L97.6083 63.9632L97.548 63.9993L97.4887 64.0371L100.358 68.5453ZM101.025 68.0109L97.0715 64.4164L97.0715 64.4164L101.025 68.0109ZM101.48 67.1025L106.592 68.6584L106.608 68.6055L106.623 68.5523L101.48 67.1025ZM104.846 55.1595L109.989 56.6092L111.904 49.8158H104.846V55.1595ZM103.27 55.3465L105.66 60.126L105.66 60.126L103.27 55.3465ZM102.468 56.0412L98.3809 52.5991L98.3427 52.6445L98.3055 52.6906L102.468 56.0412ZM101.587 57.1366L105.654 60.6018L105.703 60.5451L105.749 60.4871L101.587 57.1366ZM100.384 58.2321L103.197 62.7756L103.225 62.7581L103.253 62.7403L100.384 58.2321ZM98.1934 58.2588L101.818 54.3322L101.818 54.3322L98.1934 58.2588ZM97.9262 56.7893L92.7881 55.3213L92.7637 55.4069L92.7421 55.4932L97.9262 56.7893ZM98.6208 54.3579L93.4828 52.8899L93.4828 52.8899L98.6208 54.3579ZM99.1018 53.2357L103.45 56.3417L103.5 56.2716L103.548 56.1999L99.1018 53.2357ZM99.8499 52.6747L101.54 57.7441L101.619 57.7177L101.697 57.6888L99.8499 52.6747ZM116.843 57.8313C116.74 57.8313 115.671 57.832 114.561 56.924C113.246 55.848 112.969 54.4276 112.969 53.69H123.656C123.656 52.1508 123.133 50.1292 121.329 48.6525C119.729 47.3437 117.925 47.144 116.843 47.144V57.8313ZM112.969 53.69C112.969 53.4443 112.994 53.2752 113.005 53.2079C113.018 53.1358 113.026 53.1155 113.014 53.1571L123.29 56.0931C123.466 55.4767 123.656 54.6321 123.656 53.69H112.969ZM113.028 53.107L112.387 55.2712L122.634 58.3073L123.275 56.1432L113.028 53.107ZM112.389 55.2665C112.359 55.3672 112.365 55.3146 112.441 55.1685C112.512 55.0322 112.716 54.673 113.135 54.2802L120.444 62.077C121.765 60.8384 122.345 59.2808 122.633 58.3121L112.389 55.2665ZM113.135 54.2802C114.156 53.3225 115.243 53.2357 115.56 53.2357V63.923C116.946 63.923 118.852 63.5691 120.444 62.077L113.135 54.2802ZM115.56 53.2357C116.036 53.2357 117.141 53.3753 118.154 54.3163L110.882 62.1478C112.394 63.552 114.194 63.923 115.56 63.923V53.2357ZM118.297 54.4535C118.556 54.7128 118.694 54.9266 118.74 55.0026C118.791 55.0856 118.794 55.1062 118.762 55.0316L108.939 59.2416C109.267 60.0088 109.814 61.0844 110.74 62.0106L118.297 54.4535ZM118.786 55.0899L118.332 53.9945L108.46 58.0879L108.914 59.1833L118.786 55.0899ZM118.321 53.9675C118.068 53.3674 117.479 52.1056 116.222 51.1285L109.661 59.5645C109.141 59.1597 108.842 58.7498 108.703 58.538C108.556 58.3136 108.487 58.1524 108.471 58.1148L118.321 53.9675ZM116.223 51.1285C114.68 49.9284 112.997 49.8158 112.194 49.8158V60.5031C112.055 60.5031 111.747 60.4924 111.339 60.3903C110.927 60.2874 110.302 60.0629 109.661 59.5645L116.223 51.1285ZM112.194 49.8158H111.579V60.5031H112.194V49.8158ZM106.439 53.699L103.046 65.6421L113.326 68.5629L116.719 56.6199L106.439 53.699ZM102.979 65.9009C102.863 66.4045 102.762 67.026 102.762 67.717H113.449C113.449 68.0519 113.402 68.2636 113.393 68.3041L102.979 65.9009ZM102.762 67.717C102.762 68.3322 102.833 69.1959 103.183 70.1277L113.189 66.3751C113.432 67.0219 113.449 67.5294 113.449 67.717H102.762ZM103.406 70.6412C103.671 71.1703 103.977 71.6199 104.262 71.9863L112.698 65.4249C112.734 65.4707 112.843 65.6174 112.965 65.8616L103.406 70.6412ZM103.985 71.5952C103.935 71.5178 103.808 71.3113 103.684 70.9935C103.566 70.6908 103.377 70.104 103.377 69.3201H114.064C114.064 67.5839 113.287 66.3015 112.975 65.816L103.985 71.5952ZM103.377 69.3201C103.377 69.1155 103.389 68.9513 103.398 68.8522C103.407 68.7464 103.419 68.6601 103.427 68.6012C103.443 68.4866 103.46 68.402 103.467 68.3657C103.482 68.2925 103.491 68.2589 103.483 68.2913L113.851 70.8833C113.879 70.7732 113.914 70.6238 113.947 70.4616C113.951 70.4414 114.064 69.9316 114.064 69.3201H103.377ZM103.679 67.669C103.917 67.0514 104.294 66.4814 104.786 66.0137C105.265 65.559 105.758 65.2893 106.148 65.1335L110.117 75.0564C111.523 74.4939 112.945 73.3509 113.654 71.5056L103.679 67.669ZM106.028 65.1834C106.45 65.0023 106.775 64.9459 106.898 64.9279C107.035 64.9078 107.092 64.9116 107.037 64.9116V75.5989C107.769 75.5989 108.994 75.5393 110.238 75.0065L106.028 65.1834ZM107.037 64.9116H100.758V75.5989H107.037V64.9116ZM100.758 64.9116C100.857 64.9116 101.073 64.9189 101.366 64.9812C101.661 65.0438 102.092 65.1741 102.569 65.4525L97.1841 74.684C98.53 75.4691 99.8853 75.5989 100.758 75.5989V64.9116ZM102.745 65.56C103.296 65.9101 103.897 66.4626 104.338 67.2659C104.781 68.07 104.926 68.8761 104.926 69.5339H94.2391C94.2391 71.599 95.276 73.4744 97.0077 74.5765L102.745 65.56ZM104.926 69.5339C104.926 70.3502 104.716 71.0564 104.442 71.603L94.8834 66.8235C94.5032 67.5838 94.2391 68.5038 94.2391 69.5339H104.926ZM104.546 71.3835C104.477 71.5376 104.359 71.774 104.17 72.0478C103.981 72.3205 103.684 72.6849 103.241 73.0386L96.5652 64.6932C95.5443 65.5099 95.0285 66.4834 94.7798 67.043L104.546 71.3835ZM103.324 72.971C103.279 73.0086 103.244 73.0361 103.221 73.053C103.199 73.0703 103.184 73.0809 103.179 73.0846C103.17 73.0908 103.183 73.0809 103.226 73.0535L97.4887 64.0371C97.2092 64.2149 96.8416 64.4615 96.4824 64.7608L103.324 72.971ZM103.107 73.1274C103.745 72.7446 104.395 72.2488 104.979 71.6055L97.0715 64.4164C97.3001 64.1649 97.5046 64.0253 97.6083 63.9632L103.107 73.1274ZM104.979 71.6055C105.919 70.5717 106.363 69.4114 106.592 68.6584L96.3676 65.5466C96.3708 65.5361 96.4051 65.4232 96.4931 65.2471C96.5786 65.0761 96.755 64.7646 97.0715 64.4164L104.979 71.6055ZM106.623 68.5523L109.989 56.6092L99.703 53.7097L96.3365 65.6527L106.623 68.5523ZM104.846 49.8158H104.232V60.5031H104.846V49.8158ZM104.232 49.8158C103.326 49.8158 102.11 49.9521 100.88 50.567L105.66 60.126C104.929 60.4915 104.354 60.5031 104.232 60.5031V49.8158ZM100.88 50.567C99.7096 51.1522 98.8906 51.9938 98.3809 52.5991L106.556 59.4832C106.556 59.4833 106.552 59.487 106.546 59.494C106.54 59.5009 106.53 59.5116 106.517 59.5255C106.49 59.5525 106.446 59.5966 106.382 59.6518C106.264 59.7545 106.024 59.9436 105.66 60.126L100.88 50.567ZM98.3055 52.6906L97.4238 53.7861L105.749 60.4871L106.631 59.3917L98.3055 52.6906ZM97.5188 53.6714C97.4785 53.7187 97.4462 53.754 97.4221 53.7792C97.3979 53.8044 97.3837 53.8176 97.3798 53.8212C97.3759 53.8247 97.3844 53.8167 97.4057 53.8002C97.427 53.7837 97.4634 53.7569 97.5154 53.7238L103.253 62.7403C104.223 62.123 105.015 61.3528 105.654 60.6018L97.5188 53.6714ZM97.5716 53.6885C98.0533 53.3903 98.6196 53.2357 99.1552 53.2357V63.923C100.581 63.923 101.967 63.5369 103.197 62.7756L97.5716 53.6885ZM99.1552 53.2357C99.6738 53.2357 100.795 53.3878 101.818 54.3322L94.5689 62.1853C96.0552 63.5573 97.8173 63.923 99.1552 63.923V53.2357ZM101.818 54.3322C102.295 54.7728 102.668 55.3192 102.905 55.9195C103.133 56.4997 103.19 57.0147 103.19 57.3771H92.5024C92.5024 58.9391 93.0368 60.7711 94.5689 62.1853L101.818 54.3322ZM103.19 57.3771C103.19 57.7245 103.139 57.9708 103.11 58.0853L92.7421 55.4932C92.6066 56.0352 92.5024 56.6734 92.5024 57.3771H103.19ZM103.064 58.2573L103.759 55.8259L93.4828 52.8899L92.7881 55.3213L103.064 58.2573ZM103.759 55.8259C103.784 55.7378 103.788 55.7408 103.76 55.8083C103.734 55.8668 103.643 56.0714 103.45 56.3417L94.7535 50.1298C94.058 51.1035 93.6936 52.1522 93.4828 52.8899L103.759 55.8259ZM103.548 56.1999C103.031 56.9757 102.283 57.4964 101.54 57.7441L98.1601 47.6052C96.7756 48.0667 95.529 48.9615 94.6556 50.2716L103.548 56.1999ZM101.697 57.6888C101.542 57.7461 101.416 57.7799 101.33 57.7996C101.244 57.8195 101.184 57.8285 101.157 57.832C101.109 57.8384 101.138 57.8313 101.266 57.8313V47.144C100.398 47.144 99.2004 47.2192 98.0026 47.6605L101.697 57.6888ZM101.266 57.8313H116.843V47.144H101.266V57.8313ZM132.815 57.0565L128.98 60.7782L129.008 60.8068L129.036 60.835L132.815 57.0565ZM133.616 60.2359L128.432 58.9399L128.428 58.9548L128.425 58.9697L133.616 60.2359ZM132.601 61.9192L129.299 57.7174L129.299 57.7174L132.601 61.9192ZM129.261 62.026L125.586 65.9053L125.636 65.9523L125.686 65.9979L129.261 62.026ZM128.353 60.7436L123.518 63.0189L123.545 63.0764L123.573 63.1333L128.353 60.7436ZM127.952 60.0756L131.973 56.5568L131.973 56.5568L127.952 60.0756ZM127.043 60.0756L123.265 56.2971L123.139 56.4229L123.022 56.5568L127.043 60.0756ZM126.696 60.8237L131.803 62.3967L131.809 62.378L131.814 62.3592L126.696 60.8237ZM124.639 67.5033L129.6 69.4879L129.681 69.285L129.746 69.0762L124.639 67.5033ZM124.772 68.4919L120.554 71.7725L120.759 72.0351L120.994 72.2704L124.772 68.4919ZM125.333 68.9194L128.298 64.4732L128.217 64.4193L128.134 64.3684L125.333 68.9194ZM125.761 69.2667L129.934 65.9285L129.934 65.9285L125.761 69.2667ZM125.841 69.614L131.123 70.4266L131.134 70.3518L131.143 70.2768L125.841 69.614ZM125.44 70.1217L123.201 65.2699L123.125 65.3048L123.051 65.3422L125.44 70.1217ZM116.49 70.0682L113.284 74.3432L113.315 74.3667L113.347 74.3898L116.49 70.0682ZM116.249 69.4537L111.18 67.7639L111.086 68.0447L111.024 68.3341L116.249 69.4537ZM116.81 68.8926L119.311 73.6153L119.318 73.6115L119.325 73.6076L116.81 68.8926ZM117.478 68.385L113.524 64.7905L117.478 68.385ZM117.932 67.4498L112.826 65.8771L112.814 65.9153L112.803 65.9536L117.932 67.4498ZM120.31 59.7283L115.349 57.7437L115.268 57.9466L115.203 58.1555L120.31 59.7283ZM120.23 58.9L115.784 61.8641L115.942 62.1016L116.125 62.3209L120.23 58.9ZM119.856 58.4992L123.431 54.5273L123.316 54.4235L123.194 54.3266L119.856 58.4992ZM119.482 58.1252L115.036 61.0893L115.036 61.0893L119.482 58.1252ZM119.455 57.6977L124.574 59.2332L124.602 59.1403L124.626 59.0465L119.455 57.6977ZM121.139 56.629L122.666 61.7497L122.707 61.7375L122.748 61.7246L121.139 56.629ZM126.135 56.6557L123.06 61.0258L123.115 61.0645L123.171 61.1019L126.135 56.6557ZM127.07 58.045L121.869 59.2689L124.663 71.1463L131.497 61.0379L127.07 58.045ZM130.437 61.4917C130.396 61.4917 130.182 61.4851 129.872 61.3669C129.545 61.242 129.231 61.0372 128.98 60.7782L136.649 53.3347C134.873 51.5048 132.595 50.8044 130.437 50.8044V61.4917ZM129.036 60.835C128.864 60.6628 128.676 60.4066 128.543 60.0766C128.411 59.7508 128.379 59.4714 128.379 59.3008H139.067C139.067 57.056 138.245 54.9294 136.593 53.2779L129.036 60.835ZM128.379 59.3008C128.379 59.267 128.383 59.1372 128.432 58.9399L138.8 61.532C138.992 60.7647 139.067 60.0115 139.067 59.3008H128.379ZM128.425 58.9697C128.445 58.8846 128.505 58.6903 128.653 58.4445C128.807 58.1899 129.023 57.9342 129.299 57.7174L135.902 66.121C137.508 64.8592 138.4 63.1715 138.808 61.5021L128.425 58.9697ZM129.299 57.7174C129.535 57.5325 129.813 57.3813 130.112 57.2831C130.406 57.1867 130.651 57.1633 130.811 57.1633V67.8506C132.581 67.8506 134.371 67.3241 135.902 66.121L129.299 57.7174ZM130.811 57.1633C130.912 57.1633 131.871 57.1861 132.836 58.0541L125.686 65.9979C127.363 67.5072 129.356 67.8506 130.811 67.8506V57.1633ZM132.936 58.1468C133.05 58.2543 133.114 58.3392 133.141 58.3762C133.167 58.4128 133.161 58.4108 133.132 58.3538L123.573 63.1333C124.044 64.0754 124.688 65.0549 125.586 65.9053L132.936 58.1468ZM133.188 58.4683C132.969 58.0035 132.585 57.2554 131.973 56.5568L123.93 63.5944C123.722 63.3569 123.605 63.1675 123.563 63.0988C123.516 63.02 123.502 62.986 123.518 63.0189L133.188 58.4683ZM131.973 56.5568C131.036 55.4856 129.508 54.5182 127.524 54.5182V65.2055C126.78 65.2055 126.037 65.0326 125.362 64.6948C124.707 64.3675 124.24 63.9489 123.93 63.5944L131.973 56.5568ZM127.524 54.5182C125.738 54.5182 124.266 55.2959 123.265 56.2971L130.822 63.8541C130.498 64.1785 130.042 64.5311 129.441 64.7984C128.827 65.0712 128.171 65.2055 127.524 65.2055V54.5182ZM123.022 56.5568C122.111 57.598 121.733 58.7717 121.578 59.2882L131.814 62.3592C131.814 62.3595 131.813 62.3648 131.809 62.3747C131.806 62.3845 131.801 62.4 131.793 62.4205C131.779 62.4596 131.752 62.5286 131.71 62.6198C131.641 62.767 131.45 63.1545 131.065 63.5944L123.022 56.5568ZM121.589 59.2508L119.532 65.9304L129.746 69.0762L131.803 62.3967L121.589 59.2508ZM119.677 65.5187C119.257 66.5692 119.242 67.5273 119.242 67.9041H129.929C129.929 67.981 129.926 68.1486 129.895 68.3765C129.868 68.5862 129.798 68.9937 129.6 69.4879L119.677 65.5187ZM119.242 67.9041C119.242 69.1491 119.6 70.545 120.554 71.7725L128.99 65.2112C129.696 66.1181 129.929 67.1221 129.929 67.9041H119.242ZM120.994 72.2704C121.513 72.7896 122.061 73.1798 122.533 73.4703L128.134 64.3684C128.146 64.376 128.191 64.404 128.258 64.4551C128.324 64.5056 128.428 64.5902 128.551 64.7133L120.994 72.2704ZM122.369 73.3655C122.387 73.3772 122.33 73.3408 122.231 73.2603C122.179 73.2182 122.097 73.1487 121.997 73.0529C121.901 72.9609 121.753 72.8108 121.588 72.6048L129.934 65.9285C129.302 65.1388 128.542 64.636 128.298 64.4732L122.369 73.3655ZM121.588 72.6048C120.538 71.292 120.427 69.8477 120.539 68.9512L131.143 70.2768C131.291 69.0954 131.126 67.4195 129.934 65.9285L121.588 72.6048ZM120.56 68.8015C120.67 68.0858 120.966 67.3058 121.52 66.6034C122.062 65.9173 122.692 65.5048 123.201 65.2699L127.68 74.9735C129.368 74.1944 130.787 72.6077 131.123 70.4266L120.56 68.8015ZM123.051 65.3422C123.384 65.1755 123.666 65.0851 123.844 65.0365C124.028 64.9863 124.168 64.9628 124.244 64.952C124.386 64.9317 124.427 64.9383 124.318 64.9383V75.6256C124.899 75.6256 126.398 75.617 127.83 74.9012L123.051 65.3422ZM124.318 64.9383H117.478V75.6256H124.318V64.9383ZM117.478 64.9383C117.496 64.9383 117.698 64.9375 118.013 65.0056C118.309 65.0696 118.943 65.2449 119.633 65.7466L113.347 74.3898C114.974 75.5732 116.763 75.6256 117.478 75.6256V64.9383ZM119.696 65.7933C120.213 66.1809 120.853 66.8433 121.246 67.8472C121.645 68.8686 121.631 69.8409 121.474 70.5734L111.024 68.3341C110.814 69.3159 110.813 70.5153 111.293 71.7416C111.766 72.9503 112.553 73.7952 113.284 74.3432L119.696 65.7933ZM121.319 71.1435C120.776 72.7721 119.605 73.4594 119.311 73.6153L114.31 64.17C113.41 64.6465 111.865 65.7078 111.18 67.7639L121.319 71.1435ZM119.325 73.6076C120.056 73.2177 120.788 72.6886 121.432 71.9795L113.524 64.7905C113.813 64.4732 114.099 64.2826 114.296 64.1777L119.325 73.6076ZM121.432 71.9795C122.408 70.9057 122.846 69.6895 123.062 68.9461L112.803 65.9536C112.804 65.9502 112.811 65.924 112.828 65.8791C112.845 65.8346 112.874 65.7625 112.919 65.6696C113.001 65.4998 113.184 65.1652 113.524 64.7905L121.432 71.9795ZM123.039 69.0226L125.417 61.301L115.203 58.1555L112.826 65.8771L123.039 69.0226ZM125.272 61.7129C125.674 60.7079 125.708 59.7996 125.708 59.3542H115.02C115.02 59.2461 115.026 59.0569 115.061 58.8123C115.094 58.5764 115.168 58.195 115.349 57.7437L125.272 61.7129ZM125.708 59.3542C125.708 58.4119 125.497 56.8728 124.335 55.4791L116.125 62.3209C115.142 61.141 115.02 59.9047 115.02 59.3542H125.708ZM124.676 55.9359C124.23 55.2657 123.707 54.7762 123.431 54.5273L116.281 62.4711C116.288 62.4774 116.247 62.4408 116.177 62.3657C116.117 62.3012 115.961 62.1296 115.784 61.8641L124.676 55.9359ZM123.194 54.3266C123.217 54.3448 123.297 54.4098 123.408 54.5203C123.509 54.6219 123.712 54.8363 123.928 55.1611L115.036 61.0893C115.561 61.8774 116.189 62.4085 116.518 62.6719L123.194 54.3266ZM123.928 55.1611C125.081 56.8895 124.766 58.592 124.574 59.2332L114.337 56.1622C114.038 57.1597 113.741 59.1471 115.036 61.0893L123.928 55.1611ZM124.626 59.0465C124.189 60.7224 123.057 61.4843 122.821 61.6344C122.515 61.8286 122.386 61.8333 122.666 61.7497L119.611 51.5082C118.876 51.7275 117.959 52.0617 117.092 52.6121C116.295 53.1184 114.829 54.2633 114.285 56.3488L124.626 59.0465ZM122.748 61.7246C123.223 61.5744 123.739 61.4917 124.318 61.4917V50.8044C122.688 50.8044 121.085 51.0423 119.53 51.5334L122.748 61.7246ZM124.318 61.4917C124.216 61.4917 123.677 61.4598 123.06 61.0258L129.21 52.2856C127.632 51.1747 125.88 50.8044 124.318 50.8044V61.4917ZM123.171 61.1019C122.852 60.8892 122.544 60.5949 122.296 60.2272C122.053 59.8656 121.928 59.5227 121.869 59.2689L132.272 56.8211C131.845 55.0068 130.798 53.3422 129.099 52.2095L123.171 61.1019ZM131.497 61.0379C131.546 60.9658 131.459 61.1183 131.176 61.2777C130.874 61.4479 130.587 61.4917 130.437 61.4917V50.8044C127.076 50.8044 124.376 52.4884 122.643 55.0522L131.497 61.0379ZM150.656 66.5949L145.545 65.0329L145.505 65.1649L145.472 65.2988L150.656 66.5949ZM150.682 67.2094L146.407 70.4156L146.635 70.7194L146.904 70.9879L150.682 67.2094ZM151.484 67.0491L147.348 63.6653L147.33 63.688L147.311 63.7109L151.484 67.0491ZM152.018 66.9422L147.107 69.0472L147.3 69.4981L147.572 69.9063L152.018 66.9422ZM152.125 67.343H146.782V67.4384L146.785 67.5337L152.125 67.343ZM151.591 68.8392L155.809 72.1199L155.838 72.0829L155.866 72.0454L151.591 68.8392ZM150.014 70.0415L152.302 74.8708L152.302 74.8708L150.014 70.0415ZM145.232 69.8812L148.254 65.4741L148.254 65.4741L145.232 69.8812ZM144.03 68.198L149.206 66.8707L146.729 57.2108L140.058 64.6232L144.03 68.198ZM141.892 69.8278L144.146 74.673L144.17 74.6618L144.194 74.6503L141.892 69.8278ZM136.388 69.4537L133.197 73.7396L133.248 73.7775L133.299 73.8143L136.388 69.4537ZM135.4 65.3124L140.469 67.0022L140.49 66.9399L140.509 66.877L135.4 65.3124ZM137.11 59.7283L132.04 58.0385L132.019 58.1008L132 58.1637L137.11 59.7283ZM137.056 58.8733L132.708 61.9792L132.823 62.1413L132.951 62.2942L137.056 58.8733ZM136.655 58.4992L133.317 62.6719L133.451 62.7788L133.591 62.8769L136.655 58.4992ZM136.281 58.1252L131.835 61.0893L131.835 61.0893L136.281 58.1252ZM136.255 57.6977L141.373 59.2332L141.401 59.1403L141.425 59.0465L136.255 57.6977ZM137.938 56.629L139.465 61.7497L139.506 61.7375L139.547 61.7246L137.938 56.629ZM143.388 56.7358L146.764 52.5933L146.764 52.5933L143.388 56.7358ZM143.923 59.5145L138.853 57.8247L138.83 57.8948L138.808 57.9655L143.923 59.5145ZM142.239 65.0719L147.261 66.8981L147.311 66.7608L147.354 66.6209L142.239 65.0719ZM142.346 66.1941L145.865 62.1726L145.865 62.1726L142.346 66.1941ZM143.736 66.0872L147.346 70.0263L147.346 70.0263L143.736 66.0872ZM144.377 65.0986L149.229 67.3379L149.383 67.0032L149.49 66.6505L144.377 65.0986ZM146.007 59.7283L140.937 58.0385L140.914 58.1072L140.893 58.1765L146.007 59.7283ZM145.953 58.8733L141.605 61.9792L141.721 62.1413L141.848 62.2942L145.953 58.8733ZM145.579 58.4992L142.241 62.6719L142.27 62.6948L142.299 62.7173L145.579 58.4992ZM145.205 58.1252L140.759 61.0893L140.759 61.0893L145.205 58.1252ZM145.178 57.6977L150.297 59.2332L150.356 59.035L150.4 58.8328L145.178 57.6977ZM146.835 56.629L148.362 61.7497L148.403 61.7375L148.444 61.7246L146.835 56.629ZM152.285 56.7358L148.91 60.8784L148.947 60.9084L148.984 60.9376L152.285 56.7358ZM152.82 59.5145L147.712 57.943L147.71 57.9525L152.82 59.5145ZM145.472 65.2988C145.417 65.5167 145.259 66.1542 145.259 66.9155H155.946C155.946 67.2838 155.904 67.5565 155.887 67.6604C155.866 67.7865 155.845 67.8691 155.84 67.8909L145.472 65.2988ZM145.259 66.9155C145.259 67.7451 145.431 69.1138 146.407 70.4156L154.957 64.0032C155.827 65.1624 155.946 66.3352 155.946 66.9155H145.259ZM146.904 70.9879C148.043 72.1268 149.521 72.6599 150.95 72.6599V61.9726C151.498 61.9726 152.132 62.0662 152.787 62.3281C153.448 62.5925 154.011 62.9811 154.461 63.4308L146.904 70.9879ZM150.95 72.6599C152.908 72.6599 154.578 71.735 155.657 70.3872L147.311 63.7109C147.653 63.2839 148.157 62.8181 148.854 62.47C149.56 62.1166 150.289 61.9726 150.95 61.9726V72.6599ZM155.62 70.4329C155.616 70.4373 155.591 70.4675 155.548 70.515C155.509 70.5579 155.422 70.6511 155.295 70.7677C155.189 70.8653 154.928 71.0966 154.541 71.3332C154.34 71.4558 154.029 71.6276 153.622 71.7768C153.224 71.9225 152.595 72.0988 151.805 72.0988V61.4115C150.316 61.4115 149.273 62.0273 148.968 62.2139C148.541 62.475 148.233 62.743 148.073 62.8896C147.743 63.1921 147.49 63.4922 147.348 63.6653L155.62 70.4329ZM151.805 72.0988C150.469 72.0988 149.278 71.5862 148.406 70.8234C147.637 70.1509 147.268 69.4243 147.107 69.0472L156.93 64.8372C156.537 63.92 155.068 61.4115 151.805 61.4115V72.0988ZM147.572 69.9063C146.928 68.94 146.782 67.9753 146.782 67.343H157.469C157.469 66.39 157.251 65.1582 156.464 63.9781L147.572 69.9063ZM146.785 67.5337C146.749 66.5326 147.144 65.862 147.316 65.633L155.866 72.0454C156.786 70.8189 157.537 69.1508 157.465 67.1523L146.785 67.5337ZM147.373 65.5585C147.617 65.2451 147.818 65.169 147.727 65.2123L152.302 74.8708C153.564 74.2728 154.817 73.3952 155.809 72.1199L147.373 65.5585ZM147.727 65.2123C147.751 65.201 147.773 65.1922 147.792 65.1857C147.812 65.1792 147.826 65.1759 147.832 65.1745C147.846 65.1716 147.82 65.1788 147.743 65.1788V75.8661C149.278 75.8661 150.83 75.5681 152.302 74.8708L147.727 65.2123ZM147.743 65.1788C147.571 65.1788 147.555 65.1604 147.649 65.1846C147.752 65.2109 147.98 65.2865 148.254 65.4741L142.21 74.2883C144.009 75.5216 146.021 75.8661 147.743 75.8661V65.1788ZM148.254 65.4741C148.407 65.5794 148.616 65.7599 148.812 66.0338C149.01 66.3115 149.138 66.6052 149.206 66.8707L138.853 69.5252C139.371 71.5454 140.582 73.172 142.21 74.2883L148.254 65.4741ZM140.058 64.6232C139.837 64.8684 139.678 64.9634 139.59 65.0052L144.194 74.6503C145.673 73.9441 146.94 72.9524 148.001 71.7727L140.058 64.6232ZM139.638 64.9826C139.581 65.0095 139.551 65.0166 139.546 65.0178C139.541 65.0188 139.542 65.0185 139.541 65.0185V75.7058C141.163 75.7058 142.713 75.3395 144.146 74.673L139.638 64.9826ZM139.541 65.0185C139.349 65.0185 139.28 64.9953 139.297 65.0003C139.306 65.0027 139.33 65.0106 139.365 65.0274C139.401 65.0444 139.439 65.0665 139.477 65.0932L133.299 73.8143C135.218 75.1736 137.403 75.7058 139.541 75.7058V65.0185ZM139.58 65.1679C139.788 65.323 140.058 65.6017 140.255 66.0082C140.447 66.4045 140.476 66.7286 140.476 66.862H129.789C129.789 69.5403 130.916 72.0413 133.197 73.7396L139.58 65.1679ZM140.476 66.862C140.476 67.0067 140.449 67.0613 140.469 67.0022L130.33 63.6226C129.994 64.6323 129.789 65.72 129.789 66.862H140.476ZM140.509 66.877L142.219 61.2929L132 58.1637L130.29 63.7478L140.509 66.877ZM142.179 61.4181C142.321 60.9911 142.533 60.2426 142.533 59.3275H131.846C131.846 58.9486 131.892 58.6491 131.93 58.4599C131.969 58.2652 132.013 58.1209 132.04 58.0385L142.179 61.4181ZM142.533 59.3275C142.533 58.3852 142.323 56.8461 141.161 55.4524L132.951 62.2942C131.968 61.1143 131.846 59.878 131.846 59.3275H142.533ZM141.404 55.7674C140.849 54.9893 140.204 54.4604 139.72 54.1216L133.591 62.8769C133.463 62.7875 133.085 62.5079 132.708 61.9792L141.404 55.7674ZM139.993 54.3266C140.016 54.3448 140.096 54.4098 140.207 54.5203C140.308 54.6219 140.511 54.8363 140.727 55.1611L131.835 61.0893C132.36 61.8774 132.988 62.4085 133.317 62.6719L139.993 54.3266ZM140.727 55.1611C141.88 56.8895 141.565 58.592 141.373 59.2332L131.136 56.1622C130.837 57.1597 130.54 59.1471 131.835 61.0893L140.727 55.1611ZM141.425 59.0465C140.988 60.7224 139.856 61.4843 139.62 61.6344C139.314 61.8286 139.185 61.8333 139.465 61.7497L136.411 51.5082C135.675 51.7275 134.758 52.0617 133.891 52.6121C133.094 53.1184 131.628 54.2633 131.084 56.3488L141.425 59.0465ZM139.547 61.7246C140.022 61.5744 140.538 61.4917 141.117 61.4917V50.8044C139.487 50.8044 137.884 51.0423 136.329 51.5334L139.547 61.7246ZM141.117 61.4917C141.317 61.4917 141.294 61.5129 141.121 61.4682C140.942 61.4219 140.503 61.278 140.013 60.8784L146.764 52.5933C144.875 51.0545 142.628 50.8044 141.117 50.8044V61.4917ZM140.013 60.8784C139.648 60.5813 139.297 60.158 139.056 59.6234C138.822 59.1022 138.766 58.6399 138.766 58.3389H149.453C149.453 56.2223 148.614 54.1008 146.764 52.5933L140.013 60.8784ZM138.766 58.3389C138.766 58.1969 138.789 58.0166 138.853 57.8247L148.992 61.2043C149.305 60.2643 149.453 59.3003 149.453 58.3389H138.766ZM138.808 57.9655L137.125 63.5229L147.354 66.6209L149.037 61.0635L138.808 57.9655ZM137.217 63.2458C136.969 63.9293 136.789 64.7359 136.789 65.633H147.476C147.476 66.1739 147.367 66.6065 147.261 66.8981L137.217 63.2458ZM136.789 65.633C136.789 66.9053 137.185 68.7788 138.827 70.2156L145.865 62.1726C147.222 63.36 147.476 64.8594 147.476 65.633H136.789ZM138.827 70.2156C140.149 71.3719 141.682 71.7248 142.907 71.7248V61.0375C143.669 61.0375 144.829 61.2657 145.865 62.1726L138.827 70.2156ZM142.907 71.7248C144.345 71.7248 145.985 71.2746 147.346 70.0263L140.125 62.1481C141.059 61.2917 142.147 61.0375 142.907 61.0375V71.7248ZM147.346 70.0263C148.337 69.1179 148.909 68.0302 149.229 67.3379L139.525 62.8593C139.495 62.9238 139.507 62.8863 139.573 62.7852C139.632 62.695 139.805 62.4417 140.125 62.1481L147.346 70.0263ZM149.49 66.6505L151.12 61.2801L140.893 58.1765L139.264 63.5468L149.49 66.6505ZM151.076 61.4181C151.218 60.9911 151.43 60.2426 151.43 59.3275H140.743C140.743 58.9486 140.789 58.6491 140.827 58.4599C140.866 58.2652 140.91 58.1209 140.937 58.0385L151.076 61.4181ZM151.43 59.3275C151.43 58.3852 151.22 56.8461 150.058 55.4524L141.848 62.2942C140.865 61.1143 140.743 59.878 140.743 59.3275H151.43ZM150.302 55.7674C149.833 55.1112 149.304 54.6266 148.86 54.2812L142.299 62.7173C142.175 62.6213 141.896 62.386 141.605 61.9792L150.302 55.7674ZM148.917 54.3266C148.94 54.3448 149.02 54.4098 149.131 54.5203C149.232 54.6219 149.435 54.8363 149.651 55.1611L140.759 61.0893C141.284 61.8774 141.912 62.4085 142.241 62.6719L148.917 54.3266ZM149.651 55.1611C150.804 56.8895 150.489 58.592 150.297 59.2332L140.06 56.1622C139.761 57.1597 139.464 59.1471 140.759 61.0893L149.651 55.1611ZM150.4 58.8328C150.012 60.6195 148.814 61.447 148.556 61.6135C148.23 61.8242 148.081 61.8335 148.362 61.7497L145.308 51.5082C144.573 51.7273 143.641 52.066 142.762 52.633C141.952 53.1558 140.434 54.3662 139.957 56.5625L150.4 58.8328ZM148.444 61.7246C148.92 61.5744 149.435 61.4917 150.014 61.4917V50.8044C148.385 50.8044 146.781 51.0423 145.226 51.5334L148.444 61.7246ZM150.014 61.4917C150.214 61.4917 150.191 61.5129 150.018 61.4682C149.839 61.4219 149.4 61.278 148.91 60.8784L155.661 52.5933C153.772 51.0545 151.525 50.8044 150.014 50.8044V61.4917ZM148.984 60.9376C148.644 60.6702 148.28 60.2643 148.019 59.7149C147.761 59.1718 147.69 58.6693 147.69 58.3122H158.377C158.377 56.0879 157.432 53.9841 155.587 52.534L148.984 60.9376ZM147.69 58.3122C147.69 58.1124 147.71 57.9799 147.719 57.9313C147.728 57.8808 147.731 57.8822 147.712 57.943L157.927 61.086C158.165 60.3139 158.377 59.3585 158.377 58.3122H147.69ZM147.71 57.9525L145.545 65.0329L155.766 68.1569L157.93 61.0765L147.71 57.9525ZM167.316 56.3083L166.02 61.4924L166.03 61.4949L166.04 61.4974L167.316 56.3083ZM169.801 57.4305L166.355 61.5146L166.385 61.5407L166.417 61.5663L169.801 57.4305ZM169.934 60.5833L166.633 56.3815L166.595 56.4107L166.559 56.4407L169.934 60.5833ZM165.632 60.5031L162.467 64.8082L162.497 64.83L162.527 64.8514L165.632 60.5031ZM164.831 58.1519L169.9 59.8417L171.678 54.508L166.261 53.0032L164.831 58.1519ZM162.854 58.3389L159.772 53.9733L159.709 54.0178L159.648 54.064L162.854 58.3389ZM162.453 59.2474H167.797V59.126L167.791 59.0047L162.453 59.2474ZM165.392 61.6253L163.137 66.4697L163.188 66.4936L163.24 66.5164L165.392 61.6253ZM167.583 62.7207L164.855 67.3155L164.939 67.3652L165.024 67.4119L167.583 62.7207ZM169.052 63.9498L164.851 67.2512L164.886 67.2968L164.923 67.3416L169.052 63.9498ZM169.56 66.5147L174.758 67.7559L174.791 67.6141L174.818 67.4706L169.56 66.5147ZM167.182 69.3468L164.664 64.6336L164.664 64.6337L167.182 69.3468ZM156.361 69.427L154.122 74.2788L154.134 74.2842L154.145 74.2896L156.361 69.427ZM159.087 65.2857L155.543 69.2859L155.571 69.3106L155.6 69.3349L159.087 65.2857ZM159.968 68.1178L154.743 66.9982L153.661 72.0491L158.672 73.3019L159.968 68.1178ZM162.346 67.9041L165.743 72.029L165.743 72.029L162.346 67.9041ZM162.8 66.862H168.144V66.7459L168.139 66.6299L162.8 66.862ZM162.186 65.82L158.918 70.0484L158.98 70.0959L159.043 70.1416L162.186 65.82ZM160.316 64.7513L162.625 59.9323L162.6 59.9205L162.575 59.909L160.316 64.7513ZM158.338 63.7093L155.41 68.179L155.465 68.2149L155.52 68.2495L158.338 63.7093ZM157.002 62.4535L152.654 65.5595L152.69 65.61L152.728 65.6597L157.002 62.4535ZM158.285 57.2168L161.367 61.5824L161.373 61.578L161.379 61.5736L158.285 57.2168ZM163.495 61.2512C164.675 61.2512 165.491 61.3602 166.02 61.4924L168.612 51.1242C167.003 50.7221 165.272 50.5639 163.495 50.5639V61.2512ZM166.04 61.4974C166.336 61.5702 166.495 61.6332 166.552 61.6593C166.611 61.6858 166.518 61.6529 166.355 61.5146L173.246 53.3464C171.812 52.1364 170.111 51.493 168.592 51.1193L166.04 61.4974ZM166.417 61.5663C166.292 61.4645 166.012 61.2042 165.762 60.7413C165.495 60.2482 165.339 59.6636 165.339 59.0603H176.026C176.026 56.4551 174.669 54.5093 173.184 53.2948L166.417 61.5663ZM165.339 59.0603C165.339 58.6399 165.428 58.1043 165.699 57.5526C165.969 57.0037 166.329 56.6203 166.633 56.3815L173.236 64.7851C174.997 63.4007 176.026 61.3566 176.026 59.0603H165.339ZM166.559 56.4407C167.353 55.7931 168.039 55.8274 167.904 55.8274V66.5147C169.514 66.5147 171.553 66.1572 173.31 64.7258L166.559 56.4407ZM167.904 55.8274C167.904 55.8274 168.006 55.8277 168.176 55.8776C168.352 55.9295 168.55 56.0203 168.738 56.1548L162.527 64.8514C164.197 66.0448 166.086 66.5147 167.904 66.5147V55.8274ZM168.798 56.198C169.019 56.3604 169.368 56.6818 169.654 57.2104C169.949 57.7577 170.068 58.3286 170.068 58.8199H159.38C159.38 61.4025 160.667 63.4846 162.467 64.8082L168.798 56.198ZM170.068 58.8199C170.068 59.1465 170.016 59.4955 169.9 59.8417L159.761 56.4621C159.504 57.2358 159.38 58.0301 159.38 58.8199H170.068ZM166.261 53.0032C165.62 52.825 164.839 52.6747 163.976 52.6747V63.362C163.786 63.362 163.641 63.3452 163.552 63.3313C163.462 63.3173 163.41 63.3032 163.401 63.3006L166.261 53.0032ZM163.976 52.6747C162.654 52.6747 161.146 53.0038 159.772 53.9733L165.935 62.7045C165.167 63.2466 164.407 63.362 163.976 63.362V52.6747ZM159.648 54.064C157.788 55.4584 157.026 57.5421 157.115 59.49L167.791 59.0047C167.813 59.481 167.751 60.1527 167.429 60.8833C167.098 61.6342 166.593 62.214 166.06 62.6139L159.648 54.064ZM157.109 59.2474C157.109 61.8546 158.555 63.7429 160.106 64.8165L166.189 56.0294C166.445 56.2067 166.869 56.5634 167.227 57.1701C167.607 57.8125 167.797 58.5401 167.797 59.2474H157.109ZM160.106 64.8165C160.959 65.4068 162.048 65.9627 163.137 66.4697L167.647 56.7808C167.193 56.5693 166.841 56.394 166.579 56.2537C166.45 56.1842 166.353 56.1289 166.283 56.0874C166.211 56.0448 166.184 56.0256 166.189 56.0294L160.106 64.8165ZM163.24 66.5164C164.015 66.8574 164.535 67.1254 164.855 67.3155L170.311 58.126C169.491 57.6392 168.55 57.1768 167.544 56.7342L163.24 66.5164ZM165.024 67.4119C165.024 67.412 165 67.3987 164.963 67.3674C164.925 67.3356 164.886 67.2958 164.851 67.2512L173.254 60.6483C172.39 59.5483 171.33 58.6776 170.142 58.0296L165.024 67.4119ZM164.923 67.3416C164.744 67.1229 164.58 66.8452 164.467 66.5231C164.356 66.2044 164.323 65.9212 164.323 65.7132H175.011C175.011 63.8644 174.417 62.0618 173.182 60.5579L164.923 67.3416ZM164.323 65.7132C164.323 65.6225 164.326 65.5492 164.329 65.4988C164.331 65.4472 164.334 65.4069 164.337 65.3805C164.341 65.33 164.345 65.305 164.343 65.3142C164.343 65.3211 164.339 65.3449 164.332 65.3888C164.325 65.432 164.315 65.4882 164.303 65.5588L174.818 67.4706C174.879 67.1341 175.011 66.409 175.011 65.7132H164.323ZM164.363 65.2735C164.385 65.1787 164.423 65.0697 164.48 64.9574C164.536 64.8451 164.6 64.7523 164.659 64.6817C164.778 64.54 164.828 64.5461 164.664 64.6336L169.7 74.06C172.053 72.8032 174.046 70.7352 174.758 67.7559L164.363 65.2735ZM164.664 64.6337C164.403 64.7729 163.653 65.0452 162.052 65.0452V75.7325C164.691 75.7325 167.36 75.3101 169.7 74.06L164.664 64.6337ZM162.052 65.0452C160.056 65.0452 159.014 64.7635 158.577 64.5644L154.145 74.2896C156.523 75.373 159.275 75.7325 162.052 75.7325V65.0452ZM158.601 64.5752C158.407 64.486 158.667 64.5606 158.996 64.9778C159.169 65.1976 159.337 65.4837 159.456 65.8282C159.576 66.1726 159.621 66.5016 159.621 66.7819H148.934C148.934 70.7533 151.65 73.138 154.122 74.2788L158.601 64.5752ZM159.621 66.7819C159.621 66.9282 159.6 67.29 159.412 67.7579C159.213 68.2562 158.878 68.7401 158.424 69.1245L151.52 60.9659C149.554 62.6299 148.934 64.8906 148.934 66.7819H159.621ZM158.424 69.1245C157.69 69.7451 156.973 69.8011 156.815 69.8011V59.1138C155.127 59.1138 153.18 59.5616 151.52 60.9659L158.424 69.1245ZM156.815 69.8011C156.702 69.8011 156.487 69.782 156.22 69.6847C155.948 69.5854 155.716 69.439 155.543 69.2859L162.63 61.2855C160.958 59.8046 158.913 59.1138 156.815 59.1138V69.8011ZM155.6 69.3349C155.39 69.1548 155.135 68.8592 154.945 68.4433C154.756 68.0289 154.705 67.6519 154.705 67.3964H165.392C165.392 65.0043 164.407 62.8158 162.573 61.2364L155.6 69.3349ZM154.705 67.3964C154.705 67.2159 154.726 67.0801 154.743 66.9982L165.193 69.2375C165.318 68.6568 165.392 68.0401 165.392 67.3964H154.705ZM158.672 73.3019C159.472 73.5018 160.318 73.6218 161.197 73.6218V62.9345C161.293 62.9345 161.32 62.9475 161.264 62.9337L158.672 73.3019ZM161.197 73.6218C162.666 73.6218 164.317 73.2032 165.743 72.029L158.949 63.7791C159.769 63.1036 160.655 62.9345 161.197 62.9345V73.6218ZM165.743 72.029C167.454 70.6197 168.144 68.6614 168.144 66.862H157.457C157.457 66.4771 157.524 65.9287 157.788 65.3213C158.061 64.6949 158.474 64.1705 158.949 63.7791L165.743 72.029ZM168.139 66.6299C168.037 64.29 166.77 62.5466 165.329 61.4984L159.043 70.1416C158.764 69.939 158.367 69.5787 158.031 69.0088C157.68 68.4146 157.49 67.7491 157.462 67.0942L168.139 66.6299ZM165.453 61.5917C164.605 60.9361 163.571 60.3856 162.625 59.9323L158.006 69.5703C158.352 69.7359 158.602 69.8676 158.773 69.9653C158.957 70.0702 158.984 70.0987 158.918 70.0484L165.453 61.5917ZM162.575 59.909C161.888 59.5881 161.432 59.3404 161.156 59.1691L155.52 68.2495C156.278 68.7194 157.14 69.1664 158.056 69.5936L162.575 59.909ZM161.267 59.2395C161.266 59.2389 161.267 59.2395 161.269 59.2413C161.272 59.2432 161.274 59.2455 161.277 59.248C161.28 59.2505 161.281 59.2523 161.282 59.2528C161.282 59.2534 161.281 59.2518 161.277 59.2474L152.728 65.6597C153.47 66.6498 154.37 67.4975 155.41 68.179L161.267 59.2395ZM161.351 59.3476C161.512 59.5728 161.636 59.8271 161.716 60.0889C161.794 60.3459 161.812 60.5566 161.812 60.6901H151.124C151.124 62.3589 151.583 64.0601 152.654 65.5595L161.351 59.3476ZM161.812 60.6901C161.812 60.7193 161.8 60.9312 161.657 61.2031C161.517 61.4721 161.36 61.5869 161.367 61.5824L155.203 52.8512C152.599 54.6895 151.124 57.4623 151.124 60.6901H161.812ZM161.379 61.5736C161.36 61.5869 161.846 61.2512 163.495 61.2512V50.5639C160.655 50.5639 157.668 51.101 155.191 52.8599L161.379 61.5736ZM184.864 56.7091L181.525 60.8818L181.621 60.9585L181.721 61.0307L184.864 56.7091ZM185.104 57.671L190.229 59.1851L190.297 58.9546L190.344 58.719L185.104 57.671ZM181.951 58.8466V53.5029H177.989L176.838 57.294L181.951 58.8466ZM179.947 65.446L185.017 67.1358L185.04 67.0675L185.061 66.9986L179.947 65.446ZM180.081 66.9422L183.145 62.5645L183.145 62.5645L180.081 66.9422ZM181.898 67.0224L182.776 72.2933L182.987 72.2582L183.194 72.2065L181.898 67.0224ZM182.726 67.0758L178.144 69.8251L178.482 70.3892L178.948 70.8543L182.726 67.0758ZM182.833 67.3697H177.489V67.5032L177.496 67.6365L182.833 67.3697ZM182.031 68.6789L185.677 72.5854L185.682 72.5812L182.031 68.6789ZM179.841 69.9881L181.759 74.9756L181.8 74.9596L181.842 74.9429L179.841 69.9881ZM173.856 69.6942L177.078 65.4318L177.078 65.4318L173.856 69.6942ZM172.974 66.1407L178.021 67.8962L178.04 67.8404L178.059 67.7842L172.974 66.1407ZM174.684 60.8504L179.769 62.494L179.79 62.4264L179.81 62.3582L174.684 60.8504ZM174.55 59.2206L170.055 62.1103L170.126 62.2202L170.202 62.3266L174.55 59.2206ZM173.856 58.4458L170.21 62.3523L170.264 62.4033L170.32 62.4527L173.856 58.4458ZM173.295 57.8313L168.712 60.5806L168.778 60.6896L168.848 60.7954L173.295 57.8313ZM173.214 57.2168L168.107 55.6453L168.051 55.8285L168.008 56.0152L173.214 57.2168ZM173.669 56.6824L176.202 61.3873L176.202 61.3873L173.669 56.6824ZM176.26 56.4954V61.839H178.474L180.039 60.2739L176.26 56.4954ZM177.944 54.8121L174.165 51.0336L174.165 51.0336L177.944 54.8121ZM179.547 53.5831L177.296 48.7364L177.262 48.7522L177.228 48.7684L179.547 53.5831ZM183.047 55.2663L177.939 53.6948L177.937 53.7027L177.935 53.7105L183.047 55.2663ZM182.673 56.4954L177.561 54.9395L175.461 61.839H182.673V56.4954ZM184.089 61.839C183.778 61.839 182.658 61.7875 181.525 60.8818L188.202 52.5364C186.713 51.3458 185.076 51.1517 184.089 51.1517V61.839ZM181.721 61.0307C181.201 60.6527 180.678 60.0989 180.304 59.3527C179.934 58.6119 179.814 57.8864 179.814 57.2969H190.501C190.501 55.3971 189.632 53.5699 188.007 52.3875L181.721 61.0307ZM179.814 57.2969C179.814 57.1056 179.825 56.9573 179.832 56.8766C179.84 56.7892 179.849 56.7237 179.854 56.6882C179.864 56.6204 179.87 56.5926 179.864 56.623L190.344 58.719C190.375 58.5651 190.501 57.9618 190.501 57.2969H179.814ZM179.979 56.1569C180.116 55.6944 180.491 54.8876 181.37 54.2435C182.236 53.6084 183.085 53.5029 183.501 53.5029V64.1902C184.754 64.1902 186.289 63.8888 187.69 62.8618C189.102 61.8259 189.86 60.4313 190.229 59.1851L179.979 56.1569ZM183.501 53.5029H181.951V64.1902H183.501V53.5029ZM176.838 57.294L174.834 63.8934L185.061 66.9986L187.064 60.3991L176.838 57.294ZM174.878 63.7562C174.605 64.5748 174.47 65.4219 174.47 66.2742H185.157C185.157 66.5566 185.112 66.8515 185.017 67.1358L174.878 63.7562ZM174.47 66.2742C174.47 67.4641 174.819 69.7813 177.017 71.3199L183.145 62.5645C184.987 63.8537 185.157 65.7257 185.157 66.2742H174.47ZM177.017 71.3199C178.427 72.3071 179.906 72.4729 180.829 72.4729V61.7856C181.111 61.7856 182.091 61.8267 183.145 62.5645L177.017 71.3199ZM180.829 72.4729C181.518 72.4729 182.191 72.3908 182.776 72.2933L181.019 61.7514C180.898 61.7717 180.819 61.7813 180.778 61.7854C180.734 61.7898 180.756 61.7856 180.829 61.7856V72.4729ZM183.194 72.2065C183.13 72.2225 182.864 72.2859 182.459 72.2859V61.5986C181.733 61.5986 181.094 61.7153 180.602 61.8383L183.194 72.2065ZM182.459 72.2859C181.896 72.2859 181.09 72.1855 180.229 71.7551C179.325 71.3027 178.616 70.6125 178.144 69.8251L187.308 64.3265C186.082 62.2827 184.02 61.5986 182.459 61.5986V72.2859ZM178.948 70.8543C177.79 69.6967 177.489 68.3056 177.489 67.3697H188.177C188.177 66.1844 187.805 64.5974 186.505 63.2973L178.948 70.8543ZM177.496 67.6365C177.433 66.3669 177.894 65.4916 178.089 65.174C178.294 64.8377 178.456 64.7059 178.381 64.7766L185.682 72.5812C186.159 72.1353 186.73 71.5271 187.203 70.7544C187.665 70.0003 188.251 68.7288 188.17 67.1028L177.496 67.6365ZM178.385 64.7724C178.436 64.7255 178.434 64.7384 178.342 64.7932C178.25 64.848 178.09 64.9322 177.84 65.0332L181.842 74.9429C183.168 74.4074 184.523 73.6627 185.677 72.5854L178.385 64.7724ZM177.922 65.0006C177.683 65.0927 177.319 65.1788 176.768 65.1788V75.8661C178.461 75.8661 180.146 75.596 181.759 74.9756L177.922 65.0006ZM176.768 65.1788C176.561 65.1788 176.519 65.1546 176.593 65.1756C176.679 65.1999 176.865 65.27 177.078 65.4318L170.633 73.9566C172.551 75.4069 174.768 75.8661 176.768 75.8661V65.1788ZM177.078 65.4318C177.328 65.6206 177.629 65.9385 177.847 66.3907C178.061 66.8342 178.104 67.2164 178.104 67.4231H167.417C167.417 69.9608 168.49 72.3363 170.633 73.9566L177.078 65.4318ZM178.104 67.4231C178.104 67.5593 178.08 67.7263 178.021 67.8962L167.927 64.3852C167.583 65.3744 167.417 66.3963 167.417 67.4231H178.104ZM178.059 67.7842L179.769 62.494L169.599 59.2069L167.889 64.4971L178.059 67.7842ZM179.81 62.3582C179.951 61.8811 180.161 61.0659 180.161 60.1291H169.474C169.474 59.7966 169.513 59.5612 169.53 59.47C169.549 59.3669 169.564 59.3196 169.557 59.3426L179.81 62.3582ZM180.161 60.1291C180.161 58.8459 179.825 57.4114 178.899 56.1147L170.202 62.3266C169.632 61.5286 169.474 60.6997 169.474 60.1291H180.161ZM179.045 56.331C178.542 55.5476 177.94 54.9232 177.391 54.4389L170.32 62.4527C170.34 62.4702 170.321 62.4557 170.278 62.407C170.235 62.3591 170.152 62.261 170.055 62.1103L179.045 56.331ZM177.502 54.5393C177.442 54.4833 177.434 54.4725 177.461 54.5021C177.476 54.5184 177.508 54.5547 177.553 54.6094C177.595 54.6627 177.662 54.7495 177.741 54.8672L168.848 60.7954C169.306 61.4815 169.858 62.0245 170.21 62.3523L177.502 54.5393ZM177.877 55.082C178.199 55.6189 178.411 56.2232 178.493 56.8529C178.574 57.4691 178.516 58.0057 178.421 58.4183L168.008 56.0152C167.691 57.3852 167.79 59.0435 168.712 60.5806L177.877 55.082ZM178.322 58.7883C178.152 59.3403 177.864 59.8863 177.453 60.3703C177.047 60.8475 176.599 61.1735 176.202 61.3873L171.135 51.9775C169.784 52.7052 168.629 53.9504 168.107 55.6453L178.322 58.7883ZM176.202 61.3873C175.646 61.6869 175.19 61.7798 175.015 61.8096C174.819 61.8431 174.72 61.839 174.764 61.839V51.1517C174.041 51.1517 172.571 51.2044 171.135 51.9775L176.202 61.3873ZM174.764 61.839H176.26V51.1517H174.764V61.839ZM180.039 60.2739L181.722 58.5907L174.165 51.0336L172.482 52.7168L180.039 60.2739ZM181.722 58.5907C181.887 58.4255 181.992 58.3388 182.036 58.3048C182.057 58.2891 182.054 58.2923 182.029 58.3081C182.005 58.3238 181.95 58.3569 181.865 58.3977L177.228 48.7684C175.991 49.3642 174.968 50.2305 174.165 51.0336L181.722 58.5907ZM181.797 58.4298C181.564 58.5379 181.4 58.5724 181.351 58.5812C181.303 58.5899 181.335 58.5794 181.47 58.5794V47.8921C180.216 47.8921 178.734 48.069 177.296 48.7364L181.797 58.4298ZM181.47 58.5794C181.429 58.5794 181.215 58.5773 180.891 58.4951C180.561 58.4113 180.042 58.2241 179.494 57.8069C178.918 57.3677 178.45 56.7778 178.153 56.099C177.87 55.4517 177.81 54.8823 177.81 54.5182H188.497C188.497 52.8182 187.864 50.7479 185.971 49.3059C184.353 48.073 182.559 47.8921 181.47 47.8921V58.5794ZM177.81 54.5182C177.81 54.307 177.839 54.0218 177.939 53.6948L188.154 56.8378C188.397 56.0478 188.497 55.2638 188.497 54.5182H177.81ZM177.935 53.7105L177.561 54.9395L187.785 58.0512L188.159 56.8222L177.935 53.7105ZM182.673 61.839H184.089V51.1517H182.673V61.839Z" fill="#FFC000"/>
</g>
<g filter="url(#filter21_dd_630_1530)">
<path d="M116.249 52.8435C117.209 52.8435 117.689 53.2363 117.689 54.0218C117.689 54.2662 117.637 54.5717 117.532 54.9382L116.904 57.0591C116.712 57.705 116.476 58.1588 116.197 58.4207C115.918 58.6825 115.516 58.8134 114.992 58.8134C114.556 58.8134 114.216 58.7 113.971 58.4731C113.744 58.2461 113.526 57.8883 113.317 57.3995L112.871 56.326C112.732 55.9943 112.583 55.7674 112.426 55.6452C112.269 55.523 112.025 55.4619 111.693 55.4619H111.091L107.766 67.1661C107.713 67.393 107.687 67.5938 107.687 67.7683C107.687 67.9778 107.713 68.1524 107.766 68.292C107.835 68.4317 107.931 68.58 108.054 68.7371C108.211 68.9815 108.289 69.1823 108.289 69.3394C108.289 69.3743 108.272 69.4616 108.237 69.6012C108.15 69.8281 107.975 69.994 107.713 70.0987C107.469 70.2034 107.111 70.2558 106.64 70.2558H100.487C100.12 70.2558 99.8319 70.1947 99.6224 70.0725C99.4304 69.9503 99.3344 69.7758 99.3344 69.5488C99.3344 69.4441 99.3606 69.3394 99.413 69.2346C99.4828 69.0775 99.5613 68.9641 99.6486 68.8942C99.7534 68.807 99.9017 68.7022 100.094 68.58C100.356 68.4229 100.574 68.2484 100.748 68.0564C100.923 67.8643 101.071 67.5676 101.193 67.1661L104.493 55.4619H103.89C103.506 55.4619 103.192 55.523 102.948 55.6452C102.703 55.7674 102.442 55.9943 102.162 56.326L101.298 57.3995C100.897 57.8708 100.504 58.2287 100.12 58.4731C99.7534 58.7 99.3519 58.8134 98.9155 58.8134C98.514 58.8134 98.1998 58.7087 97.9728 58.4992C97.7459 58.2898 97.6325 58.0017 97.6325 57.6352C97.6325 57.4606 97.6586 57.2686 97.711 57.0591L98.3918 54.6764C98.5314 54.1876 98.6885 53.8211 98.8631 53.5767C99.0377 53.3148 99.282 53.1315 99.5962 53.0268C99.9279 52.9046 100.39 52.8435 100.984 52.8435H116.249ZM130.095 56.4307C131.072 56.4307 131.849 56.7275 132.425 57.321C133.019 57.9145 133.316 58.6476 133.316 59.5204C133.316 59.8521 133.281 60.1576 133.211 60.4368C133.036 61.1525 132.705 61.7024 132.216 62.0864C131.727 62.4705 131.142 62.6625 130.462 62.6625C129.798 62.6625 129.292 62.5054 128.943 62.1912C128.611 61.877 128.314 61.458 128.053 60.9343C127.913 60.6376 127.782 60.4194 127.66 60.2797C127.538 60.1401 127.398 60.0703 127.241 60.0703C127.066 60.0703 126.909 60.1401 126.77 60.2797C126.647 60.4194 126.534 60.6638 126.429 61.0129L124.413 67.5589C124.378 67.6461 124.361 67.7771 124.361 67.9516C124.361 68.1785 124.422 68.3706 124.544 68.5277C124.684 68.6673 124.867 68.807 125.094 68.9466C125.303 69.0863 125.443 69.1997 125.513 69.287C125.583 69.3743 125.609 69.4877 125.591 69.6274C125.556 69.8543 125.425 70.0201 125.199 70.1249C124.989 70.2296 124.623 70.282 124.099 70.282H117.396C116.942 70.282 116.619 70.2122 116.427 70.0725C116.217 69.9154 116.139 69.7147 116.191 69.4703C116.261 69.2608 116.444 69.0775 116.741 68.9204C117.003 68.7808 117.221 68.6149 117.396 68.4229C117.57 68.2309 117.719 67.9254 117.841 67.5065L120.171 59.9394C120.206 59.8521 120.224 59.7299 120.224 59.5728C120.224 59.3808 120.18 59.2324 120.093 59.1277C120.023 59.0229 119.901 58.892 119.726 58.7349C119.552 58.5952 119.429 58.4731 119.36 58.3683C119.29 58.2636 119.281 58.1239 119.333 57.9494C119.438 57.5479 119.988 57.1988 120.983 56.902C121.978 56.5878 123.017 56.4307 124.099 56.4307C124.815 56.4307 125.408 56.5965 125.879 56.9282C126.351 57.2424 126.656 57.6963 126.796 58.2898C127.634 57.0504 128.733 56.4307 130.095 56.4307ZM150.433 66.6686C150.398 66.8083 150.381 66.913 150.381 66.9828C150.381 67.105 150.407 67.201 150.459 67.2708C150.529 67.3407 150.617 67.3756 150.721 67.3756C150.931 67.3756 151.105 67.2883 151.245 67.1137C151.402 66.9217 151.507 66.8257 151.559 66.8257C151.646 66.8257 151.716 66.8868 151.769 67.009C151.838 67.1137 151.873 67.2447 151.873 67.4018C151.891 67.8905 151.716 68.3793 151.35 68.8681C150.983 69.3394 150.468 69.7321 149.805 70.0463C149.142 70.3605 148.4 70.5176 147.579 70.5176C146.549 70.5176 145.729 70.3082 145.118 69.8892C144.507 69.4703 144.114 68.9204 143.94 68.2396C143.311 68.9379 142.613 69.4703 141.845 69.8369C141.094 70.186 140.326 70.3605 139.541 70.3605C138.319 70.3605 137.289 70.0638 136.451 69.4703C135.631 68.8593 135.22 68.0127 135.22 66.9304C135.22 66.4417 135.308 65.9355 135.482 65.4118L137.158 59.9394C137.21 59.7823 137.237 59.6513 137.237 59.5466C137.237 59.3546 137.193 59.2062 137.106 59.1015C137.018 58.9793 136.887 58.8571 136.713 58.7349C136.538 58.5952 136.416 58.4731 136.346 58.3683C136.277 58.2636 136.268 58.1239 136.32 57.9494C136.425 57.5479 136.975 57.1988 137.97 56.902C138.965 56.5878 140.003 56.4307 141.086 56.4307C142.098 56.4307 142.84 56.6227 143.311 57.0068C143.783 57.3908 144.018 57.9145 144.018 58.5778C144.018 58.9793 143.957 59.3633 143.835 59.7299L142.185 65.1761C142.116 65.3681 142.081 65.5514 142.081 65.726C142.081 65.9704 142.15 66.1537 142.29 66.2758C142.43 66.398 142.613 66.4591 142.84 66.4591C143.172 66.4591 143.442 66.3631 143.652 66.1711C143.861 65.9791 144.071 65.6562 144.28 65.2023L145.877 59.9394C145.93 59.7823 145.956 59.6513 145.956 59.5466C145.956 59.3546 145.912 59.2062 145.825 59.1015C145.738 58.9793 145.615 58.8571 145.458 58.7349C145.284 58.5952 145.162 58.4731 145.092 58.3683C145.022 58.2636 145.013 58.1239 145.066 57.9494C145.153 57.5479 145.694 57.1988 146.689 56.902C147.684 56.5878 148.723 56.4307 149.805 56.4307C150.817 56.4307 151.559 56.6227 152.03 57.0068C152.519 57.3908 152.764 57.9057 152.764 58.5516C152.764 58.8833 152.694 59.276 152.554 59.7299L150.433 66.6686ZM163.54 56.1951C164.988 56.1951 166.236 56.326 167.284 56.5878C168.349 56.8497 169.16 57.2162 169.719 57.6875C170.295 58.1588 170.583 58.6913 170.583 59.2848C170.583 59.8957 170.339 60.3932 169.85 60.7772C169.379 61.1613 168.715 61.3533 167.86 61.3533C166.987 61.3533 166.245 61.1351 165.634 60.6987C165.041 60.2623 164.744 59.7124 164.744 59.0491C164.744 58.8222 164.779 58.604 164.849 58.3945C164.534 58.3072 164.255 58.2636 164.011 58.2636C163.574 58.2636 163.208 58.3683 162.911 58.5778C162.632 58.7873 162.501 59.084 162.518 59.468C162.518 59.9219 162.745 60.3059 163.199 60.6201C163.653 60.9343 164.386 61.3271 165.399 61.7984C166.271 62.1824 166.987 62.5403 167.546 62.8719C168.122 63.1862 168.602 63.5876 168.986 64.0764C169.387 64.5652 169.588 65.1412 169.588 65.8045C169.588 65.9442 169.553 66.206 169.483 66.5901C169.204 67.7596 168.427 68.6848 167.153 69.3655C165.879 70.0463 164.203 70.3867 162.126 70.3867C159.786 70.3867 157.927 70.0725 156.548 69.4441C155.187 68.8157 154.506 67.9516 154.506 66.8519C154.506 66.1013 154.733 65.534 155.187 65.1499C155.641 64.7659 156.243 64.5739 156.994 64.5739C157.866 64.5739 158.608 64.8445 159.219 65.3856C159.848 65.9267 160.162 66.6162 160.162 67.4541C160.162 67.6811 160.136 67.9167 160.083 68.1611C160.502 68.2658 160.904 68.3182 161.288 68.3182C161.742 68.3182 162.117 68.196 162.414 67.9516C162.71 67.7072 162.859 67.3668 162.859 66.9304C162.841 66.529 162.641 66.1886 162.256 65.9093C161.872 65.6125 161.262 65.2634 160.424 64.8619C159.638 64.4953 158.992 64.155 158.486 63.8408C157.98 63.5091 157.543 63.0989 157.177 62.6101C156.828 62.1213 156.653 61.5453 156.653 60.882C156.653 59.4506 157.247 58.316 158.434 57.4781C159.638 56.6227 161.34 56.1951 163.54 56.1951ZM184.245 56.7711C184.577 56.7711 184.83 56.8409 185.004 56.9806C185.196 57.1202 185.292 57.3122 185.292 57.5566C185.292 57.6264 185.275 57.7486 185.24 57.9232C185.013 58.6913 184.489 59.0753 183.669 59.0753H182.15L180.187 65.5427C180.099 65.8045 180.056 66.0751 180.056 66.3544C180.056 66.6686 180.143 66.8868 180.317 67.009C180.492 67.1312 180.736 67.1923 181.051 67.1923C181.33 67.1923 181.679 67.1574 182.098 67.0876C182.307 67.0352 182.491 67.009 182.648 67.009C182.77 67.009 182.857 67.0526 182.91 67.1399C182.979 67.2097 183.014 67.3057 183.014 67.4279C183.032 67.7771 182.77 68.2047 182.229 68.711C181.705 69.1997 180.989 69.6274 180.082 69.994C179.174 70.3431 178.17 70.5176 177.071 70.5176C175.884 70.5176 174.932 70.2471 174.217 69.7059C173.501 69.1648 173.143 68.4229 173.143 67.4803C173.143 67.0439 173.213 66.625 173.353 66.2235L175.028 61.0391C175.116 60.7423 175.159 60.5067 175.159 60.3321C175.159 59.983 175.072 59.6862 174.897 59.4419C174.74 59.1975 174.513 58.9444 174.217 58.6825C173.955 58.4381 173.771 58.2374 173.667 58.0803C173.562 57.9057 173.536 57.705 173.588 57.4781C173.658 57.2511 173.806 57.0766 174.033 56.9544C174.26 56.8322 174.618 56.7711 175.107 56.7711H176.573L178.223 55.1215C178.799 54.5455 179.322 54.144 179.794 53.9171C180.283 53.6901 180.911 53.5767 181.679 53.5767C182.779 53.5767 183.329 53.9956 183.329 54.8335C183.329 55.0953 183.294 55.3397 183.224 55.5666L182.857 56.7711H184.245Z" fill="white"/>
</g>
<defs>
<filter id="filter0_d_630_1530" x="0.725082" y="0.259447" width="203.55" height="69.9367" filterUnits="userSpaceOnUse" color-interpolation-filters="sRGB">
<feFlood flood-opacity="0" result="BackgroundImageFix"/>
<feColorMatrix in="SourceAlpha" type="matrix" values="0 0 0 0 0 0 0 0 0 0 0 0 0 0 0 0 0 0 127 0" result="hardAlpha"/>
<feOffset dy="0.534365"/>
<feGaussianBlur stdDeviation="2.13746"/>
<feColorMatrix type="matrix" values="0 0 0 0 0 0 0 0 0 0 0 0 0 0 0 0 0 0 0.25 0"/>
<feBlend mode="normal" in2="BackgroundImageFix" result="effect1_dropShadow_630_1530"/>
<feBlend mode="normal" in="SourceGraphic" in2="effect1_dropShadow_630_1530" result="shape"/>
</filter>
<filter id="filter1_d_630_1530" x="8.26869" y="8.30138" width="187.659" height="53.8528" filterUnits="userSpaceOnUse" color-interpolation-filters="sRGB">
<feFlood flood-opacity="0" result="BackgroundImageFix"/>
<feColorMatrix in="SourceAlpha" type="matrix" values="0 0 0 0 0 0 0 0 0 0 0 0 0 0 0 0 0 0 127 0" result="hardAlpha"/>
<feOffset dx="-0.267182" dy="0.534365"/>
<feGaussianBlur stdDeviation="2.13746"/>
<feColorMatrix type="matrix" values="0 0 0 0 0.395833 0 0 0 0 0.395833 0 0 0 0 0.395833 0 0 0 0.25 0"/>
<feBlend mode="normal" in2="BackgroundImageFix" result="effect1_dropShadow_630_1530"/>
<feBlend mode="normal" in="SourceGraphic" in2="effect1_dropShadow_630_1530" result="shape"/>
</filter>
<filter id="filter2_d_630_1530" x="15.5386" y="16.3416" width="32.7902" height="36.4286" filterUnits="userSpaceOnUse" color-interpolation-filters="sRGB">
<feFlood flood-opacity="0" result="BackgroundImageFix"/>
<feColorMatrix in="SourceAlpha" type="matrix" values="0 0 0 0 0 0 0 0 0 0 0 0 0 0 0 0 0 0 127 0" result="hardAlpha"/>
<feOffset dy="1.06873"/>
<feGaussianBlur stdDeviation="2.13746"/>
<feColorMatrix type="matrix" values="0 0 0 0 0 0 0 0 0 0 0 0 0 0 0 0 0 0 0.25 0"/>
<feBlend mode="normal" in2="BackgroundImageFix" result="effect1_dropShadow_630_1530"/>
<feBlend mode="normal" in="SourceGraphic" in2="effect1_dropShadow_630_1530" result="shape"/>
</filter>
<filter id="filter3_d_630_1530" x="25.9586" y="25.4876" width="13.0752" height="17.3961" filterUnits="userSpaceOnUse" color-interpolation-filters="sRGB">
<feFlood flood-opacity="0" result="BackgroundImageFix"/>
<feColorMatrix in="SourceAlpha" type="matrix" values="0 0 0 0 0 0 0 0 0 0 0 0 0 0 0 0 0 0 127 0" result="hardAlpha"/>
<feOffset dy="0.267182"/>
<feGaussianBlur stdDeviation="0.534365"/>
<feColorMatrix type="matrix" values="0 0 0 0 0 0 0 0 0 0 0 0 0 0 0 0 0 0 0.25 0"/>
<feBlend mode="normal" in2="BackgroundImageFix" result="effect1_dropShadow_630_1530"/>
<feBlend mode="normal" in="SourceGraphic" in2="effect1_dropShadow_630_1530" result="shape"/>
</filter>
<filter id="filter4_d_630_1530" x="38.4416" y="39.3715" width="3.6388" height="4.99036" filterUnits="userSpaceOnUse" color-interpolation-filters="sRGB">
<feFlood flood-opacity="0" result="BackgroundImageFix"/>
<feColorMatrix in="SourceAlpha" type="matrix" values="0 0 0 0 0 0 0 0 0 0 0 0 0 0 0 0 0 0 127 0" result="hardAlpha"/>
<feOffset dy="0.267182"/>
<feGaussianBlur stdDeviation="0.267182"/>
<feColorMatrix type="matrix" values="0 0 0 0 0 0 0 0 0 0 0 0 0 0 0 0 0 0 0.25 0"/>
<feBlend mode="normal" in2="BackgroundImageFix" result="effect1_dropShadow_630_1530"/>
<feBlend mode="normal" in="SourceGraphic" in2="effect1_dropShadow_630_1530" result="shape"/>
</filter>
<filter id="filter5_d_630_1530" x="154.786" y="16.3416" width="32.7902" height="36.4286" filterUnits="userSpaceOnUse" color-interpolation-filters="sRGB">
<feFlood flood-opacity="0" result="BackgroundImageFix"/>
<feColorMatrix in="SourceAlpha" type="matrix" values="0 0 0 0 0 0 0 0 0 0 0 0 0 0 0 0 0 0 127 0" result="hardAlpha"/>
<feOffset dy="1.06873"/>
<feGaussianBlur stdDeviation="2.13746"/>
<feColorMatrix type="matrix" values="0 0 0 0 0 0 0 0 0 0 0 0 0 0 0 0 0 0 0.25 0"/>
<feBlend mode="normal" in2="BackgroundImageFix" result="effect1_dropShadow_630_1530"/>
<feBlend mode="normal" in="SourceGraphic" in2="effect1_dropShadow_630_1530" result="shape"/>
</filter>
<filter id="filter6_d_630_1530" x="166.281" y="25.4876" width="10.7791" height="17.3961" filterUnits="userSpaceOnUse" color-interpolation-filters="sRGB">
<feFlood flood-opacity="0" result="BackgroundImageFix"/>
<feColorMatrix in="SourceAlpha" type="matrix" values="0 0 0 0 0 0 0 0 0 0 0 0 0 0 0 0 0 0 127 0" result="hardAlpha"/>
<feOffset dy="0.267182"/>
<feGaussianBlur stdDeviation="0.534365"/>
<feColorMatrix type="matrix" values="0 0 0 0 0 0 0 0 0 0 0 0 0 0 0 0 0 0 0.25 0"/>
<feBlend mode="normal" in2="BackgroundImageFix" result="effect1_dropShadow_630_1530"/>
<feBlend mode="normal" in="SourceGraphic" in2="effect1_dropShadow_630_1530" result="shape"/>
</filter>
<filter id="filter7_d_630_1530" x="177.866" y="39.4263" width="2.71253" height="4.8834" filterUnits="userSpaceOnUse" color-interpolation-filters="sRGB">
<feFlood flood-opacity="0" result="BackgroundImageFix"/>
<feColorMatrix in="SourceAlpha" type="matrix" values="0 0 0 0 0 0 0 0 0 0 0 0 0 0 0 0 0 0 127 0" result="hardAlpha"/>
<feOffset dy="0.267182"/>
<feGaussianBlur stdDeviation="0.267182"/>
<feColorMatrix type="matrix" values="0 0 0 0 0 0 0 0 0 0 0 0 0 0 0 0 0 0 0.25 0"/>
<feBlend mode="normal" in2="BackgroundImageFix" result="effect1_dropShadow_630_1530"/>
<feBlend mode="normal" in="SourceGraphic" in2="effect1_dropShadow_630_1530" result="shape"/>
</filter>
<filter id="filter8_d_630_1530" x="125.967" y="16.3416" width="32.7902" height="36.4286" filterUnits="userSpaceOnUse" color-interpolation-filters="sRGB">
<feFlood flood-opacity="0" result="BackgroundImageFix"/>
<feColorMatrix in="SourceAlpha" type="matrix" values="0 0 0 0 0 0 0 0 0 0 0 0 0 0 0 0 0 0 127 0" result="hardAlpha"/>
<feOffset dy="1.06873"/>
<feGaussianBlur stdDeviation="2.13746"/>
<feColorMatrix type="matrix" values="0 0 0 0 0 0 0 0 0 0 0 0 0 0 0 0 0 0 0.25 0"/>
<feBlend mode="normal" in2="BackgroundImageFix" result="effect1_dropShadow_630_1530"/>
<feBlend mode="normal" in="SourceGraphic" in2="effect1_dropShadow_630_1530" result="shape"/>
</filter>
<filter id="filter9_d_630_1530" x="135.061" y="25.4876" width="14.8704" height="17.3961" filterUnits="userSpaceOnUse" color-interpolation-filters="sRGB">
<feFlood flood-opacity="0" result="BackgroundImageFix"/>
<feColorMatrix in="SourceAlpha" type="matrix" values="0 0 0 0 0 0 0 0 0 0 0 0 0 0 0 0 0 0 127 0" result="hardAlpha"/>
<feOffset dy="0.267182"/>
<feGaussianBlur stdDeviation="0.534365"/>
<feColorMatrix type="matrix" values="0 0 0 0 0 0 0 0 0 0 0 0 0 0 0 0 0 0 0.25 0"/>
<feBlend mode="normal" in2="BackgroundImageFix" result="effect1_dropShadow_630_1530"/>
<feBlend mode="normal" in="SourceGraphic" in2="effect1_dropShadow_630_1530" result="shape"/>
</filter>
<filter id="filter10_d_630_1530" x="149.047" y="39.4263" width="2.71253" height="4.8834" filterUnits="userSpaceOnUse" color-interpolation-filters="sRGB">
<feFlood flood-opacity="0" result="BackgroundImageFix"/>
<feColorMatrix in="SourceAlpha" type="matrix" values="0 0 0 0 0 0 0 0 0 0 0 0 0 0 0 0 0 0 127 0" result="hardAlpha"/>
<feOffset dy="0.267182"/>
<feGaussianBlur stdDeviation="0.267182"/>
<feColorMatrix type="matrix" values="0 0 0 0 0 0 0 0 0 0 0 0 0 0 0 0 0 0 0.25 0"/>
<feBlend mode="normal" in2="BackgroundImageFix" result="effect1_dropShadow_630_1530"/>
<feBlend mode="normal" in="SourceGraphic" in2="effect1_dropShadow_630_1530" result="shape"/>
</filter>
<filter id="filter11_d_630_1530" x="98.7638" y="16.3416" width="32.7902" height="36.4286" filterUnits="userSpaceOnUse" color-interpolation-filters="sRGB">
<feFlood flood-opacity="0" result="BackgroundImageFix"/>
<feColorMatrix in="SourceAlpha" type="matrix" values="0 0 0 0 0 0 0 0 0 0 0 0 0 0 0 0 0 0 127 0" result="hardAlpha"/>
<feOffset dy="1.06873"/>
<feGaussianBlur stdDeviation="2.13746"/>
<feColorMatrix type="matrix" values="0 0 0 0 0 0 0 0 0 0 0 0 0 0 0 0 0 0 0.25 0"/>
<feBlend mode="normal" in2="BackgroundImageFix" result="effect1_dropShadow_630_1530"/>
<feBlend mode="normal" in="SourceGraphic" in2="effect1_dropShadow_630_1530" result="shape"/>
</filter>
<filter id="filter12_d_630_1530" x="112.962" y="25.4876" width="4.64222" height="17.3961" filterUnits="userSpaceOnUse" color-interpolation-filters="sRGB">
<feFlood flood-opacity="0" result="BackgroundImageFix"/>
<feColorMatrix in="SourceAlpha" type="matrix" values="0 0 0 0 0 0 0 0 0 0 0 0 0 0 0 0 0 0 127 0" result="hardAlpha"/>
<feOffset dy="0.267182"/>
<feGaussianBlur stdDeviation="0.534365"/>
<feColorMatrix type="matrix" values="0 0 0 0 0 0 0 0 0 0 0 0 0 0 0 0 0 0 0.25 0"/>
<feBlend mode="normal" in2="BackgroundImageFix" result="effect1_dropShadow_630_1530"/>
<feBlend mode="normal" in="SourceGraphic" in2="effect1_dropShadow_630_1530" result="shape"/>
</filter>
<filter id="filter13_d_630_1530" x="121.844" y="39.4263" width="2.71253" height="4.8834" filterUnits="userSpaceOnUse" color-interpolation-filters="sRGB">
<feFlood flood-opacity="0" result="BackgroundImageFix"/>
<feColorMatrix in="SourceAlpha" type="matrix" values="0 0 0 0 0 0 0 0 0 0 0 0 0 0 0 0 0 0 127 0" result="hardAlpha"/>
<feOffset dy="0.267182"/>
<feGaussianBlur stdDeviation="0.267182"/>
<feColorMatrix type="matrix" values="0 0 0 0 0 0 0 0 0 0 0 0 0 0 0 0 0 0 0.25 0"/>
<feBlend mode="normal" in2="BackgroundImageFix" result="effect1_dropShadow_630_1530"/>
<feBlend mode="normal" in="SourceGraphic" in2="effect1_dropShadow_630_1530" result="shape"/>
</filter>
<filter id="filter14_d_630_1530" x="71.5608" y="16.3416" width="32.7902" height="36.4286" filterUnits="userSpaceOnUse" color-interpolation-filters="sRGB">
<feFlood flood-opacity="0" result="BackgroundImageFix"/>
<feColorMatrix in="SourceAlpha" type="matrix" values="0 0 0 0 0 0 0 0 0 0 0 0 0 0 0 0 0 0 127 0" result="hardAlpha"/>
<feOffset dy="1.06873"/>
<feGaussianBlur stdDeviation="2.13746"/>
<feColorMatrix type="matrix" values="0 0 0 0 0 0 0 0 0 0 0 0 0 0 0 0 0 0 0.25 0"/>
<feBlend mode="normal" in2="BackgroundImageFix" result="effect1_dropShadow_630_1530"/>
<feBlend mode="normal" in="SourceGraphic" in2="effect1_dropShadow_630_1530" result="shape"/>
</filter>
<filter id="filter15_d_630_1530" x="79.9559" y="25.425" width="16.2586" height="17.4587" filterUnits="userSpaceOnUse" color-interpolation-filters="sRGB">
<feFlood flood-opacity="0" result="BackgroundImageFix"/>
<feColorMatrix in="SourceAlpha" type="matrix" values="0 0 0 0 0 0 0 0 0 0 0 0 0 0 0 0 0 0 127 0" result="hardAlpha"/>
<feOffset dy="0.267182"/>
<feGaussianBlur stdDeviation="0.534365"/>
<feColorMatrix type="matrix" values="0 0 0 0 0 0 0 0 0 0 0 0 0 0 0 0 0 0 0.25 0"/>
<feBlend mode="normal" in2="BackgroundImageFix" result="effect1_dropShadow_630_1530"/>
<feBlend mode="normal" in="SourceGraphic" in2="effect1_dropShadow_630_1530" result="shape"/>
</filter>
<filter id="filter16_d_630_1530" x="94.6411" y="39.4263" width="2.71253" height="4.8834" filterUnits="userSpaceOnUse" color-interpolation-filters="sRGB">
<feFlood flood-opacity="0" result="BackgroundImageFix"/>
<feColorMatrix in="SourceAlpha" type="matrix" values="0 0 0 0 0 0 0 0 0 0 0 0 0 0 0 0 0 0 127 0" result="hardAlpha"/>
<feOffset dy="0.267182"/>
<feGaussianBlur stdDeviation="0.267182"/>
<feColorMatrix type="matrix" values="0 0 0 0 0 0 0 0 0 0 0 0 0 0 0 0 0 0 0.25 0"/>
<feBlend mode="normal" in2="BackgroundImageFix" result="effect1_dropShadow_630_1530"/>
<feBlend mode="normal" in="SourceGraphic" in2="effect1_dropShadow_630_1530" result="shape"/>
</filter>
<filter id="filter17_d_630_1530" x="44.3577" y="16.8777" width="32.7902" height="36.4286" filterUnits="userSpaceOnUse" color-interpolation-filters="sRGB">
<feFlood flood-opacity="0" result="BackgroundImageFix"/>
<feColorMatrix in="SourceAlpha" type="matrix" values="0 0 0 0 0 0 0 0 0 0 0 0 0 0 0 0 0 0 127 0" result="hardAlpha"/>
<feOffset dy="1.06873"/>
<feGaussianBlur stdDeviation="2.13746"/>
<feColorMatrix type="matrix" values="0 0 0 0 0 0 0 0 0 0 0 0 0 0 0 0 0 0 0.25 0"/>
<feBlend mode="normal" in2="BackgroundImageFix" result="effect1_dropShadow_630_1530"/>
<feBlend mode="normal" in="SourceGraphic" in2="effect1_dropShadow_630_1530" result="shape"/>
</filter>
<filter id="filter18_d_630_1530" x="54.8622" y="26.0237" width="13.6076" height="17.3961" filterUnits="userSpaceOnUse" color-interpolation-filters="sRGB">
<feFlood flood-opacity="0" result="BackgroundImageFix"/>
<feColorMatrix in="SourceAlpha" type="matrix" values="0 0 0 0 0 0 0 0 0 0 0 0 0 0 0 0 0 0 127 0" result="hardAlpha"/>
<feOffset dy="0.267182"/>
<feGaussianBlur stdDeviation="0.534365"/>
<feColorMatrix type="matrix" values="0 0 0 0 0 0 0 0 0 0 0 0 0 0 0 0 0 0 0.25 0"/>
<feBlend mode="normal" in2="BackgroundImageFix" result="effect1_dropShadow_630_1530"/>
<feBlend mode="normal" in="SourceGraphic" in2="effect1_dropShadow_630_1530" result="shape"/>
</filter>
<filter id="filter19_d_630_1530" x="67.438" y="39.9624" width="2.71253" height="4.8834" filterUnits="userSpaceOnUse" color-interpolation-filters="sRGB">
<feFlood flood-opacity="0" result="BackgroundImageFix"/>
<feColorMatrix in="SourceAlpha" type="matrix" values="0 0 0 0 0 0 0 0 0 0 0 0 0 0 0 0 0 0 127 0" result="hardAlpha"/>
<feOffset dy="0.267182"/>
<feGaussianBlur stdDeviation="0.267182"/>
<feColorMatrix type="matrix" values="0 0 0 0 0 0 0 0 0 0 0 0 0 0 0 0 0 0 0.25 0"/>
<feBlend mode="normal" in2="BackgroundImageFix" result="effect1_dropShadow_630_1530"/>
<feBlend mode="normal" in="SourceGraphic" in2="effect1_dropShadow_630_1530" result="shape"/>
</filter>
<filter id="filter20_dd_630_1530" x="93.5712" y="48.4799" width="95.8612" height="27.3862" filterUnits="userSpaceOnUse" color-interpolation-filters="sRGB">
<feFlood flood-opacity="0" result="BackgroundImageFix"/>
<feColorMatrix in="SourceAlpha" type="matrix" values="0 0 0 0 0 0 0 0 0 0 0 0 0 0 0 0 0 0 127 0" result="hardAlpha"/>
<feOffset dy="0.267182"/>
<feGaussianBlur stdDeviation="2.13746"/>
<feColorMatrix type="matrix" values="0 0 0 0 0 0 0 0 0 0 0 0 0 0 0 0 0 0 0.25 0"/>
<feBlend mode="normal" in2="BackgroundImageFix" result="effect1_dropShadow_630_1530"/>
<feColorMatrix in="SourceAlpha" type="matrix" values="0 0 0 0 0 0 0 0 0 0 0 0 0 0 0 0 0 0 127 0" result="hardAlpha"/>
<feOffset dy="1.06873"/>
<feGaussianBlur stdDeviation="2.13746"/>
<feColorMatrix type="matrix" values="0 0 0 0 0.316667 0 0 0 0 0.316667 0 0 0 0 0.316667 0 0 0 0.25 0"/>
<feBlend mode="normal" in2="effect1_dropShadow_630_1530" result="effect2_dropShadow_630_1530"/>
<feBlend mode="normal" in="SourceGraphic" in2="effect2_dropShadow_630_1530" result="shape"/>
</filter>
<filter id="filter21_dd_630_1530" x="93.3575" y="49.6373" width="96.2097" height="26.2239" filterUnits="userSpaceOnUse" color-interpolation-filters="sRGB">
<feFlood flood-opacity="0" result="BackgroundImageFix"/>
<feColorMatrix in="SourceAlpha" type="matrix" values="0 0 0 0 0 0 0 0 0 0 0 0 0 0 0 0 0 0 127 0" result="hardAlpha"/>
<feOffset dy="1.06873"/>
<feGaussianBlur stdDeviation="2.13746"/>
<feColorMatrix type="matrix" values="0 0 0 0 0 0 0 0 0 0 0 0 0 0 0 0 0 0 0.25 0"/>
<feBlend mode="normal" in2="BackgroundImageFix" result="effect1_dropShadow_630_1530"/>
<feColorMatrix in="SourceAlpha" type="matrix" values="0 0 0 0 0 0 0 0 0 0 0 0 0 0 0 0 0 0 127 0" result="hardAlpha"/>
<feOffset dy="1.06873"/>
<feGaussianBlur stdDeviation="0.534365"/>
<feColorMatrix type="matrix" values="0 0 0 0 0 0 0 0 0 0 0 0 0 0 0 0 0 0 0.25 0"/>
<feBlend mode="normal" in2="effect1_dropShadow_630_1530" result="effect2_dropShadow_630_1530"/>
<feBlend mode="normal" in="SourceGraphic" in2="effect2_dropShadow_630_1530" result="shape"/>
</filter>
</defs>
</svg>
