<svg width="381" height="98" viewBox="0 0 381 98" fill="none" xmlns="http://www.w3.org/2000/svg">
<g filter="url(#filter0_d_5_273)">
<path d="M94.12 4.08C98.52 4.08 100.72 5.88 100.72 9.47999C100.72 10.6 100.48 12 100 13.68L97.12 23.4C96.24 26.36 95.16 28.44 93.88 29.64C92.6 30.84 90.76 31.44 88.36 31.44C86.36 31.44 84.8 30.92 83.68 29.88C82.64 28.84 81.64 27.2 80.68 24.96L78.64 20.04C78 18.52 77.32 17.48 76.6 16.92C75.88 16.36 74.76 16.08 73.24 16.08H70.48L55.24 69.72C55 70.76 54.88 71.68 54.88 72.48C54.88 73.44 55 74.24 55.24 74.88C55.56 75.52 56 76.2 56.56 76.92C57.28 78.04 57.64 78.96 57.64 79.68C57.64 79.84 57.56 80.24 57.4 80.88C57 81.92 56.2 82.68 55 83.16C53.88 83.64 52.24 83.88 50.08 83.88H21.88C20.2 83.88 18.88 83.6 17.92 83.04C17.04 82.48 16.6 81.68 16.6 80.64C16.6 80.16 16.72 79.68 16.96 79.2C17.28 78.48 17.64 77.96 18.04 77.64C18.52 77.24 19.2 76.76 20.08 76.2C21.28 75.48 22.28 74.68 23.08 73.8C23.88 72.92 24.56 71.56 25.12 69.72L40.24 16.08H37.48C35.72 16.08 34.28 16.36 33.16 16.92C32.04 17.48 30.84 18.52 29.56 20.04L25.6 24.96C23.76 27.12 21.96 28.76 20.2 29.88C18.52 30.92 16.68 31.44 14.68 31.44C12.84 31.44 11.4 30.96 10.36 30C9.32 29.04 8.8 27.72 8.8 26.04C8.8 25.24 8.92 24.36 9.16 23.4L12.28 12.48C12.92 10.24 13.64 8.56 14.44 7.44C15.24 6.24 16.36 5.39999 17.8 4.92C19.32 4.36 21.44 4.08 24.16 4.08H94.12ZM147.975 20.52C152.455 20.52 156.015 21.88 158.655 24.6C161.375 27.32 162.735 30.68 162.735 34.68C162.735 36.2 162.575 37.6 162.255 38.88C161.455 42.16 159.935 44.68 157.695 46.44C155.455 48.2 152.775 49.08 149.655 49.08C146.615 49.08 144.295 48.36 142.695 46.92C141.175 45.48 139.815 43.56 138.615 41.16C137.975 39.8 137.375 38.8 136.815 38.16C136.255 37.52 135.615 37.2 134.895 37.2C134.095 37.2 133.375 37.52 132.735 38.16C132.175 38.8 131.655 39.92 131.175 41.52L121.935 71.52C121.775 71.92 121.695 72.52 121.695 73.32C121.695 74.36 121.975 75.24 122.535 75.96C123.175 76.6 124.015 77.24 125.055 77.88C126.015 78.52 126.655 79.04 126.975 79.44C127.295 79.84 127.415 80.36 127.335 81C127.175 82.04 126.575 82.8 125.535 83.28C124.575 83.76 122.895 84 120.495 84H89.7747C87.6947 84 86.2147 83.68 85.3347 83.04C84.3747 82.32 84.0147 81.4 84.2547 80.28C84.5747 79.32 85.4147 78.48 86.7747 77.76C87.9747 77.12 88.9747 76.36 89.7747 75.48C90.5747 74.6 91.2547 73.2 91.8147 71.28L102.495 36.6C102.655 36.2 102.735 35.64 102.735 34.92C102.735 34.04 102.535 33.36 102.135 32.88C101.815 32.4 101.255 31.8 100.455 31.08C99.6547 30.44 99.0947 29.88 98.7747 29.4C98.4547 28.92 98.4147 28.28 98.6547 27.48C99.1347 25.64 101.655 24.04 106.215 22.68C110.775 21.24 115.535 20.52 120.495 20.52C123.775 20.52 126.495 21.28 128.655 22.8C130.815 24.24 132.215 26.32 132.855 29.04C136.695 23.36 141.735 20.52 147.975 20.52ZM231.585 67.44C231.425 68.08 231.345 68.56 231.345 68.88C231.345 69.44 231.465 69.88 231.705 70.2C232.025 70.52 232.425 70.68 232.905 70.68C233.865 70.68 234.665 70.28 235.305 69.48C236.025 68.6 236.505 68.16 236.745 68.16C237.145 68.16 237.465 68.44 237.705 69C238.025 69.48 238.185 70.08 238.185 70.8C238.265 73.04 237.465 75.28 235.785 77.52C234.105 79.68 231.745 81.48 228.705 82.92C225.665 84.36 222.265 85.08 218.505 85.08C213.785 85.08 210.025 84.12 207.225 82.2C204.425 80.28 202.625 77.76 201.825 74.64C198.945 77.84 195.745 80.28 192.225 81.96C188.785 83.56 185.265 84.36 181.665 84.36C176.065 84.36 171.345 83 167.505 80.28C163.745 77.48 161.865 73.6 161.865 68.64C161.865 66.4 162.265 64.08 163.065 61.68L170.745 36.6C170.985 35.88 171.105 35.28 171.105 34.8C171.105 33.92 170.905 33.24 170.505 32.76C170.105 32.2 169.505 31.64 168.705 31.08C167.905 30.44 167.345 29.88 167.025 29.4C166.705 28.92 166.665 28.28 166.905 27.48C167.385 25.64 169.905 24.04 174.465 22.68C179.025 21.24 183.785 20.52 188.745 20.52C193.385 20.52 196.785 21.4 198.945 23.16C201.105 24.92 202.185 27.32 202.185 30.36C202.185 32.2 201.905 33.96 201.345 35.64L193.785 60.6C193.465 61.48 193.305 62.32 193.305 63.12C193.305 64.24 193.625 65.08 194.265 65.64C194.905 66.2 195.745 66.48 196.785 66.48C198.305 66.48 199.545 66.04 200.505 65.16C201.465 64.28 202.425 62.8 203.385 60.72L210.705 36.6C210.945 35.88 211.065 35.28 211.065 34.8C211.065 33.92 210.865 33.24 210.465 32.76C210.065 32.2 209.505 31.64 208.785 31.08C207.985 30.44 207.425 29.88 207.105 29.4C206.785 28.92 206.745 28.28 206.985 27.48C207.385 25.64 209.865 24.04 214.425 22.68C218.985 21.24 223.745 20.52 228.705 20.52C233.345 20.52 236.745 21.4 238.905 23.16C241.145 24.92 242.265 27.28 242.265 30.24C242.265 31.76 241.945 33.56 241.305 35.64L231.585 67.44ZM282.05 19.44C288.69 19.44 294.41 20.04 299.21 21.24C304.09 22.44 307.81 24.12 310.37 26.28C313.01 28.44 314.33 30.88 314.33 33.6C314.33 36.4 313.21 38.68 310.97 40.44C308.81 42.2 305.77 43.08 301.85 43.08C297.85 43.08 294.45 42.08 291.65 40.08C288.93 38.08 287.57 35.56 287.57 32.52C287.57 31.48 287.73 30.48 288.05 29.52C286.61 29.12 285.33 28.92 284.21 28.92C282.21 28.92 280.53 29.4 279.17 30.36C277.89 31.32 277.29 32.68 277.37 34.44C277.37 36.52 278.41 38.28 280.49 39.72C282.57 41.16 285.93 42.96 290.57 45.12C294.57 46.88 297.85 48.52 300.41 50.04C303.05 51.48 305.25 53.32 307.01 55.56C308.85 57.8 309.77 60.44 309.77 63.48C309.77 64.12 309.61 65.32 309.29 67.08C308.01 72.44 304.45 76.68 298.61 79.8C292.77 82.92 285.09 84.48 275.57 84.48C264.85 84.48 256.33 83.04 250.01 80.16C243.77 77.28 240.65 73.32 240.65 68.28C240.65 64.84 241.69 62.24 243.77 60.48C245.85 58.72 248.61 57.84 252.05 57.84C256.05 57.84 259.45 59.08 262.25 61.56C265.13 64.04 266.57 67.2 266.57 71.04C266.57 72.08 266.45 73.16 266.21 74.28C268.13 74.76 269.97 75 271.73 75C273.81 75 275.53 74.44 276.89 73.32C278.25 72.2 278.93 70.64 278.93 68.64C278.85 66.8 277.93 65.24 276.17 63.96C274.41 62.6 271.61 61 267.77 59.16C264.17 57.48 261.21 55.92 258.89 54.48C256.57 52.96 254.57 51.08 252.89 48.84C251.29 46.6 250.49 43.96 250.49 40.92C250.49 34.36 253.21 29.16 258.65 25.32C264.17 21.4 271.97 19.44 282.05 19.44ZM367.343 22.08C368.863 22.08 370.023 22.4 370.823 23.04C371.703 23.68 372.143 24.56 372.143 25.68C372.143 26 372.063 26.56 371.903 27.36C370.863 30.88 368.463 32.64 364.703 32.64H357.743L348.743 62.28C348.343 63.48 348.143 64.72 348.143 66C348.143 67.44 348.543 68.44 349.343 69C350.143 69.56 351.263 69.84 352.703 69.84C353.983 69.84 355.583 69.68 357.503 69.36C358.463 69.12 359.303 69 360.023 69C360.583 69 360.983 69.2 361.223 69.6C361.543 69.92 361.703 70.36 361.703 70.92C361.783 72.52 360.583 74.48 358.103 76.8C355.703 79.04 352.423 81 348.263 82.68C344.103 84.28 339.503 85.08 334.463 85.08C329.023 85.08 324.663 83.84 321.383 81.36C318.103 78.88 316.463 75.48 316.463 71.16C316.463 69.16 316.783 67.24 317.423 65.4L325.103 41.64C325.503 40.28 325.703 39.2 325.703 38.4C325.703 36.8 325.303 35.44 324.503 34.32C323.783 33.2 322.743 32.04 321.383 30.84C320.183 29.72 319.343 28.8 318.863 28.08C318.383 27.28 318.263 26.36 318.503 25.32C318.823 24.28 319.503 23.48 320.543 22.92C321.583 22.36 323.223 22.08 325.463 22.08H332.183L339.743 14.52C342.383 11.88 344.783 10.04 346.943 9C349.183 7.96 352.063 7.44 355.583 7.44C360.623 7.44 363.143 9.36 363.143 13.2C363.143 14.4 362.983 15.52 362.663 16.56L360.983 22.08H367.343Z" fill="#FFC000"/>
<path d="M100 13.68L101.918 14.2482L101.92 14.2388L101.923 14.2294L100 13.68ZM97.12 23.4L99.0371 23.9699L99.0376 23.9682L97.12 23.4ZM93.88 29.64L92.5121 28.1809L92.5121 28.1809L93.88 29.64ZM83.68 29.88L82.2658 31.2942L82.292 31.3204L82.3191 31.3456L83.68 29.88ZM80.68 24.96L78.8325 25.726L78.837 25.737L78.8417 25.7478L80.68 24.96ZM78.64 20.04L80.4875 19.274L80.4833 19.2639L78.64 20.04ZM76.6 16.92L75.3721 18.4987L75.3721 18.4987L76.6 16.92ZM70.48 16.08V14.08H68.9691L68.5561 15.5334L70.48 16.08ZM55.24 69.72L53.3161 69.1734L53.3025 69.2215L53.2912 69.2703L55.24 69.72ZM55.24 74.88L53.3673 75.5822L53.4042 75.6805L53.4511 75.7744L55.24 74.88ZM56.56 76.92L58.2424 75.8385L58.1938 75.763L58.1387 75.6921L56.56 76.92ZM57.4 80.88L59.2667 81.598L59.3106 81.4838L59.3403 81.3651L57.4 80.88ZM55 83.16L54.2572 81.303L54.2346 81.3121L54.2122 81.3217L55 83.16ZM17.92 83.04L16.8463 84.7273L16.8789 84.7481L16.9123 84.7676L17.92 83.04ZM16.96 79.2L18.7489 80.0944L18.7692 80.0538L18.7876 80.0123L16.96 79.2ZM18.04 77.64L19.2894 79.2017L19.305 79.1892L19.3204 79.1764L18.04 77.64ZM20.08 76.2L19.051 74.485L19.0284 74.4986L19.0063 74.5127L20.08 76.2ZM23.08 73.8L21.6001 72.4547L21.6001 72.4547L23.08 73.8ZM25.12 69.72L27.0333 70.3023L27.0394 70.2825L27.045 70.2626L25.12 69.72ZM40.24 16.08L42.165 16.6226L42.8817 14.08H40.24V16.08ZM33.16 16.92L34.0544 18.7089L34.0544 18.7089L33.16 16.92ZM29.56 20.04L28.0302 18.7517L28.0159 18.7687L28.002 18.786L29.56 20.04ZM25.6 24.96L27.1225 26.2569L27.1406 26.2357L27.158 26.214L25.6 24.96ZM20.2 29.88L21.2527 31.5805L21.2633 31.574L21.2738 31.5673L20.2 29.88ZM10.36 30L11.7166 28.5304L11.7166 28.5304L10.36 30ZM9.16 23.4L7.23695 22.8506L7.2278 22.8826L7.21972 22.9149L9.16 23.4ZM12.28 12.48L10.357 11.9306L10.357 11.9306L12.28 12.48ZM14.44 7.44L16.0675 8.60248L16.0862 8.57623L16.1041 8.5494L14.44 7.44ZM17.8 4.92L18.4325 6.81736L18.4621 6.80748L18.4914 6.79668L17.8 4.92ZM94.12 6.08C96.0983 6.08 97.2106 6.49277 97.8035 6.97791C98.3197 7.40021 98.72 8.10606 98.72 9.47999H102.72C102.72 7.25393 102.02 5.25978 100.336 3.88208C98.7294 2.56723 96.5417 2.08 94.12 2.08V6.08ZM98.72 9.47999C98.72 10.3407 98.531 11.5413 98.077 13.1306L101.923 14.2294C102.429 12.4587 102.72 10.8593 102.72 9.47999H98.72ZM98.0824 13.1118L95.2024 22.8318L99.0376 23.9682L101.918 14.2482L98.0824 13.1118ZM95.2029 22.8301C94.3574 25.6741 93.4043 27.3445 92.5121 28.1809L95.2479 31.0991C96.9157 29.5355 98.1226 27.0459 99.0371 23.9699L95.2029 22.8301ZM92.5121 28.1809C91.7211 28.9225 90.4414 29.44 88.36 29.44V33.44C91.0786 33.44 93.4789 32.7575 95.2479 31.0991L92.5121 28.1809ZM88.36 29.44C86.7046 29.44 85.6883 29.0155 85.0409 28.4144L82.3191 31.3456C83.9117 32.8244 86.0154 33.44 88.36 33.44V29.44ZM85.0942 28.4658C84.3142 27.6857 83.4352 26.3117 82.5183 24.1722L78.8417 25.7478C79.8448 28.0883 80.9658 29.9942 82.2658 31.2942L85.0942 28.4658ZM82.5275 24.194L80.4875 19.274L76.7925 20.806L78.8325 25.726L82.5275 24.194ZM80.4833 19.2639C79.802 17.6459 78.9581 16.2203 77.8279 15.3413L75.3721 18.4987C75.6819 18.7396 76.198 19.3941 76.7967 20.8161L80.4833 19.2639ZM77.8279 15.3413C76.5904 14.3788 74.9338 14.08 73.24 14.08V18.08C74.5862 18.08 75.1696 18.3412 75.3721 18.4987L77.8279 15.3413ZM73.24 14.08H70.48V18.08H73.24V14.08ZM68.5561 15.5334L53.3161 69.1734L57.1639 70.2666L72.4039 16.6266L68.5561 15.5334ZM53.2912 69.2703C53.0277 70.4121 52.88 71.488 52.88 72.48H56.88C56.88 71.872 56.9723 71.1079 57.1888 70.1697L53.2912 69.2703ZM52.88 72.48C52.88 73.5902 53.0166 74.6468 53.3673 75.5822L57.1127 74.1778C56.9834 73.8332 56.88 73.2898 56.88 72.48H52.88ZM53.4511 75.7744C53.8435 76.5592 54.3613 77.3507 54.9813 78.1479L58.1387 75.6921C57.6387 75.0493 57.2765 74.4808 57.0289 73.9856L53.4511 75.7744ZM54.8776 78.0015C55.5408 79.0331 55.64 79.5498 55.64 79.68H59.64C59.64 78.3702 59.0192 77.0469 58.2424 75.8385L54.8776 78.0015ZM55.64 79.68C55.64 79.58 55.6502 79.5264 55.6451 79.5622C55.6421 79.5835 55.6345 79.6297 55.6188 79.7078C55.5877 79.8637 55.5361 80.0895 55.4597 80.3949L59.3403 81.3651C59.4239 81.0305 59.4924 80.7363 59.5412 80.4922C59.5793 80.3013 59.64 79.9822 59.64 79.68H55.64ZM55.5333 80.162C55.3656 80.5981 55.0309 80.9936 54.2572 81.303L55.7428 85.017C57.3691 84.3664 58.6344 83.2419 59.2667 81.598L55.5333 80.162ZM54.2122 81.3217C53.4641 81.6423 52.1462 81.88 50.08 81.88V85.88C52.3338 85.88 54.2959 85.6377 55.7878 84.9983L54.2122 81.3217ZM50.08 81.88H21.88V85.88H50.08V81.88ZM21.88 81.88C20.3868 81.88 19.464 81.6253 18.9277 81.3124L16.9123 84.7676C18.296 85.5747 20.0132 85.88 21.88 85.88V81.88ZM18.9938 81.3527C18.6886 81.1585 18.6 80.9937 18.6 80.64H14.6C14.6 82.3663 15.3914 83.8015 16.8463 84.7273L18.9938 81.3527ZM18.6 80.64C18.6 80.5055 18.6311 80.3299 18.7489 80.0944L15.1711 78.3056C14.8089 79.0301 14.6 79.8145 14.6 80.64H18.6ZM18.7876 80.0123C19.0412 79.4417 19.2381 79.2427 19.2894 79.2017L16.7906 76.0783C16.0419 76.6773 15.5188 77.5183 15.1324 78.3877L18.7876 80.0123ZM19.3204 79.1764C19.7059 78.8551 20.305 78.4274 21.1538 77.8873L19.0063 74.5127C18.095 75.0926 17.3341 75.6249 16.7596 76.1036L19.3204 79.1764ZM21.109 77.915C22.4478 77.1117 23.6076 76.1928 24.5599 75.1453L21.6001 72.4547C20.9524 73.1672 20.1122 73.8483 19.051 74.485L21.109 77.915ZM24.5599 75.1453C25.645 73.9518 26.4342 72.2708 27.0333 70.3023L23.2067 69.1377C22.6858 70.8492 22.115 71.8882 21.6001 72.4547L24.5599 75.1453ZM27.045 70.2626L42.165 16.6226L38.315 15.5374L23.195 69.1774L27.045 70.2626ZM40.24 14.08H37.48V18.08H40.24V14.08ZM37.48 14.08C35.5276 14.08 33.7525 14.3877 32.2656 15.1311L34.0544 18.7089C34.8075 18.3323 35.9124 18.08 37.48 18.08V14.08ZM32.2656 15.1311C30.8008 15.8635 29.3943 17.1318 28.0302 18.7517L31.0898 21.3283C32.2857 19.9081 33.2792 19.0965 34.0544 18.7089L32.2656 15.1311ZM28.002 18.786L24.042 23.706L27.158 26.214L31.118 21.294L28.002 18.786ZM24.0775 23.6631C22.3236 25.722 20.6698 27.2104 19.1262 28.1927L21.2738 31.5673C23.2502 30.3096 25.1964 28.518 27.1225 26.2569L24.0775 23.6631ZM19.1473 28.1795C17.7876 29.0212 16.3129 29.44 14.68 29.44V33.44C17.0471 33.44 19.2524 32.8188 21.2527 31.5805L19.1473 28.1795ZM14.68 29.44C13.1874 29.44 12.2869 29.0569 11.7166 28.5304L9.00344 31.4696C10.5131 32.8631 12.4926 33.44 14.68 33.44V29.44ZM11.7166 28.5304C11.1633 28.0197 10.8 27.2754 10.8 26.04H6.8C6.8 28.1646 7.47668 30.0603 9.00344 31.4696L11.7166 28.5304ZM10.8 26.04C10.8 25.4367 10.891 24.7222 11.1003 23.8851L7.21972 22.9149C6.949 23.9978 6.8 25.0433 6.8 26.04H10.8ZM11.083 23.9494L14.203 13.0294L10.357 11.9306L7.23695 22.8506L11.083 23.9494ZM14.203 13.0294C14.8175 10.8789 15.4611 9.45138 16.0675 8.60248L12.8125 6.27752C11.8189 7.66862 11.0225 9.60111 10.357 11.9306L14.203 13.0294ZM16.1041 8.5494C16.6439 7.73976 17.3906 7.16464 18.4325 6.81736L17.1675 3.02263C15.3294 3.63535 13.8361 4.74023 12.7759 6.3306L16.1041 8.5494ZM18.4914 6.79668C19.6898 6.35519 21.5381 6.08 24.16 6.08V2.08C21.3419 2.08 18.9502 2.36481 17.1086 3.04331L18.4914 6.79668ZM24.16 6.08H94.12V2.08H24.16V6.08ZM158.655 24.6L157.22 25.9929L157.23 26.0037L157.24 26.0142L158.655 24.6ZM162.255 38.88L160.314 38.3949L160.312 38.4061L162.255 38.88ZM157.695 46.44L156.459 44.8674L156.459 44.8674L157.695 46.44ZM142.695 46.92L141.319 48.3719L141.338 48.3895L141.357 48.4066L142.695 46.92ZM138.615 41.16L136.805 42.0116L136.815 42.0331L136.826 42.0544L138.615 41.16ZM136.815 38.16L138.32 36.843L138.32 36.843L136.815 38.16ZM132.735 38.16L131.32 36.7458L131.273 36.7929L131.23 36.843L132.735 38.16ZM131.175 41.52L133.086 42.1087L133.088 42.1017L133.09 42.0947L131.175 41.52ZM121.935 71.52L123.792 72.2628L123.822 72.1869L123.846 72.1087L121.935 71.52ZM122.535 75.96L120.956 77.1879L121.032 77.2862L121.12 77.3742L122.535 75.96ZM125.055 77.88L126.164 76.2159L126.134 76.1957L126.103 76.1767L125.055 77.88ZM126.975 79.44L128.536 78.1906L128.536 78.1906L126.975 79.44ZM127.335 81L129.311 81.3041L129.316 81.2761L129.319 81.2481L127.335 81ZM125.535 83.28L124.697 81.4641L124.668 81.4772L124.64 81.4911L125.535 83.28ZM85.3347 83.04L84.1347 84.64L84.1465 84.6488L84.1583 84.6575L85.3347 83.04ZM84.2547 80.28L82.3573 79.6475L82.3223 79.7526L82.2991 79.8609L84.2547 80.28ZM86.7747 77.76L87.7105 79.5276L87.7159 79.5247L86.7747 77.76ZM89.7747 75.48L88.2948 74.1347L88.2948 74.1347L89.7747 75.48ZM91.8147 71.28L89.9033 70.6914L89.8989 70.7056L89.8947 70.72L91.8147 71.28ZM102.495 36.6L100.638 35.8572L100.607 35.9332L100.583 36.0114L102.495 36.6ZM102.135 32.88L100.471 33.9894L100.53 34.0783L100.598 34.1604L102.135 32.88ZM100.455 31.08L101.793 29.5934L101.749 29.5546L101.704 29.5183L100.455 31.08ZM98.7747 29.4L97.1106 30.5094L97.1106 30.5094L98.7747 29.4ZM98.6547 27.48L100.57 28.0547L100.581 28.0199L100.59 27.9848L98.6547 27.48ZM106.215 22.68L106.786 24.5966L106.802 24.592L106.817 24.5872L106.215 22.68ZM128.655 22.8L127.504 24.4356L127.524 24.4501L127.545 24.4641L128.655 22.8ZM132.855 29.04L130.908 29.4981L131.954 33.9435L134.512 30.1601L132.855 29.04ZM147.975 22.52C152.02 22.52 155.024 23.7312 157.22 25.9929L160.09 23.207C157.005 20.0288 152.889 18.52 147.975 18.52V22.52ZM157.24 26.0142C159.569 28.3428 160.735 31.1868 160.735 34.68H164.735C164.735 30.1732 163.18 26.2972 160.069 23.1858L157.24 26.0142ZM160.735 34.68C160.735 36.0607 160.589 37.2954 160.314 38.3949L164.195 39.3651C164.56 37.9046 164.735 36.3393 164.735 34.68H160.735ZM160.312 38.4061C159.597 41.3346 158.285 43.4329 156.459 44.8674L158.93 48.0126C161.585 45.9271 163.312 42.9854 164.198 39.3539L160.312 38.4061ZM156.459 44.8674C154.605 46.3237 152.372 47.08 149.655 47.08V51.08C153.177 51.08 156.304 50.0763 158.93 48.0126L156.459 44.8674ZM149.655 47.08C146.906 47.08 145.138 46.4285 144.033 45.4334L141.357 48.4066C143.451 50.2915 146.323 51.08 149.655 51.08V47.08ZM144.07 45.4681C142.759 44.2264 141.527 42.513 140.404 40.2656L136.826 42.0544C138.102 44.607 139.59 46.7336 141.319 48.3719L144.07 45.4681ZM140.424 40.3084C139.756 38.8878 139.062 37.6911 138.32 36.843L135.31 39.477C135.687 39.9089 136.194 40.7122 136.805 42.0116L140.424 40.3084ZM138.32 36.843C137.456 35.8554 136.297 35.2 134.895 35.2V39.2C134.932 39.2 135.054 39.1846 135.31 39.477L138.32 36.843ZM134.895 35.2C133.493 35.2 132.282 35.7844 131.32 36.7458L134.149 39.5742C134.468 39.2556 134.697 39.2 134.895 39.2V35.2ZM131.23 36.843C130.375 37.8193 129.757 39.2853 129.259 40.9453L133.09 42.0947C133.552 40.5547 133.974 39.7807 134.24 39.477L131.23 36.843ZM129.263 40.9313L120.023 70.9313L123.846 72.1087L133.086 42.1087L129.263 40.9313ZM120.078 70.7772C119.774 71.5371 119.695 72.4456 119.695 73.32H123.695C123.695 72.9821 123.712 72.724 123.737 72.5343C123.763 72.3378 123.792 72.2612 123.792 72.2628L120.078 70.7772ZM119.695 73.32C119.695 74.7393 120.085 76.0685 120.956 77.1879L124.113 74.7321C123.864 74.4115 123.695 73.9807 123.695 73.32H119.695ZM121.12 77.3742C121.901 78.1552 122.876 78.8879 124.006 79.5833L126.103 76.1767C125.153 75.5921 124.448 75.0448 123.949 74.5458L121.12 77.3742ZM123.945 79.5441C124.894 80.1765 125.303 80.5516 125.413 80.6894L128.536 78.1906C128.007 77.5284 127.136 76.8635 126.164 76.2159L123.945 79.5441ZM125.413 80.6894C125.398 80.6708 125.384 80.6487 125.373 80.6254C125.362 80.6024 125.357 80.5857 125.356 80.5797C125.353 80.5689 125.367 80.6177 125.35 80.7519L129.319 81.2481C129.448 80.2192 129.276 79.1153 128.536 78.1906L125.413 80.6894ZM125.358 80.6959C125.31 81.0062 125.191 81.2357 124.697 81.4641L126.373 85.0959C127.958 84.3643 129.039 83.0738 129.311 81.3041L125.358 80.6959ZM124.64 81.4911C124.136 81.7432 122.877 82 120.495 82V86C122.912 86 125.013 85.7768 126.429 85.0689L124.64 81.4911ZM120.495 82H89.7747V86H120.495V82ZM89.7747 82C87.789 82 86.8554 81.6729 86.511 81.4225L84.1583 84.6575C85.574 85.6871 87.6004 86 89.7747 86V82ZM86.5347 81.44C86.2881 81.2551 86.2251 81.1271 86.2072 81.0812C86.1918 81.0418 86.159 80.9382 86.2103 80.6991L82.2991 79.8609C82.1103 80.7418 82.1376 81.6582 82.4822 82.5388C82.8242 83.4129 83.4212 84.1049 84.1347 84.64L86.5347 81.44ZM86.1521 80.9125C86.2422 80.642 86.574 80.1292 87.7105 79.5276L85.8389 75.9924C84.2553 76.8308 82.9072 77.998 82.3573 79.6475L86.1521 80.9125ZM87.7159 79.5247C89.0895 78.7921 90.28 77.8974 91.2546 76.8253L88.2948 74.1347C87.6694 74.8226 86.8599 75.4479 85.8335 75.9953L87.7159 79.5247ZM91.2546 76.8253C92.3533 75.6168 93.1402 73.8783 93.7347 71.84L89.8947 70.72C89.3692 72.5217 88.7961 73.5832 88.2948 74.1347L91.2546 76.8253ZM93.7261 71.8686L104.406 37.1886L100.583 36.0114L89.9033 70.6914L93.7261 71.8686ZM104.352 37.3428C104.649 36.6 104.735 35.7467 104.735 34.92H100.735C100.735 35.5333 100.661 35.8 100.638 35.8572L104.352 37.3428ZM104.735 34.92C104.735 33.7606 104.472 32.5613 103.671 31.5996L100.598 34.1604C100.601 34.1639 100.633 34.2015 100.666 34.3143C100.701 34.4331 100.735 34.627 100.735 34.92H104.735ZM103.799 31.7706C103.338 31.0797 102.629 30.3466 101.793 29.5934L99.1168 32.5666C99.8799 33.2534 100.291 33.7203 100.471 33.9894L103.799 31.7706ZM101.704 29.5183C100.961 28.9235 100.589 28.5156 100.439 28.2906L97.1106 30.5094C97.6006 31.2444 98.3487 31.9565 99.2053 32.6417L101.704 29.5183ZM100.439 28.2906C100.463 28.3275 100.481 28.3654 100.491 28.398C100.501 28.4294 100.501 28.4444 100.501 28.4352C100.499 28.4106 100.499 28.2931 100.57 28.0547L96.739 26.9053C96.407 28.012 96.3326 29.3425 97.1106 30.5094L100.439 28.2906ZM100.59 27.9848C100.646 27.7687 100.91 27.2656 101.977 26.5884C103.017 25.9278 104.591 25.2512 106.786 24.5966L105.643 20.7634C103.278 21.4688 101.312 22.2722 99.8327 23.2116C98.3792 24.1344 97.1431 25.3513 96.7195 26.9752L100.59 27.9848ZM106.817 24.5872C111.175 23.211 115.731 22.52 120.495 22.52V18.52C115.338 18.52 110.374 19.269 105.612 20.7728L106.817 24.5872ZM120.495 22.52C123.463 22.52 125.755 23.2047 127.504 24.4356L129.806 21.1644C127.235 19.3553 124.086 18.52 120.495 18.52V22.52ZM127.545 24.4641C129.249 25.6001 130.374 27.2305 130.908 29.4981L134.802 28.5819C134.055 25.4095 132.38 22.8799 129.764 21.1359L127.545 24.4641ZM134.512 30.1601C138.023 24.9664 142.472 22.52 147.975 22.52V18.52C140.997 18.52 135.367 21.7536 131.198 27.9198L134.512 30.1601ZM231.585 67.44L229.672 66.8554L229.657 66.9048L229.644 66.9549L231.585 67.44ZM231.705 70.2L230.105 71.4L230.19 71.5137L230.29 71.6142L231.705 70.2ZM235.305 69.48L233.757 68.2135L233.75 68.222L233.743 68.2306L235.305 69.48ZM237.705 69L235.866 69.7878L235.939 69.9566L236.041 70.1094L237.705 69ZM238.185 70.8H236.185V70.8357L236.186 70.8714L238.185 70.8ZM235.785 77.52L237.363 78.7479L237.374 78.734L237.385 78.72L235.785 77.52ZM228.705 82.92L229.561 84.7275L229.561 84.7275L228.705 82.92ZM207.225 82.2L208.356 80.5505L208.356 80.5505L207.225 82.2ZM201.825 74.64L203.762 74.1432L202.835 70.5278L200.338 73.3021L201.825 74.64ZM192.225 81.96L193.068 83.7734L193.077 83.7692L193.086 83.765L192.225 81.96ZM167.505 80.28L166.31 81.8841L166.329 81.8983L166.349 81.912L167.505 80.28ZM163.065 61.68L164.962 62.3125L164.97 62.2891L164.977 62.2656L163.065 61.68ZM170.745 36.6L168.847 35.9675L168.84 35.9909L168.832 36.0144L170.745 36.6ZM170.505 32.76L168.877 33.9225L168.921 33.9831L168.968 34.0404L170.505 32.76ZM168.705 31.08L167.455 32.6417L167.505 32.6817L167.558 32.7185L168.705 31.08ZM167.025 29.4L165.361 30.5094L165.361 30.5094L167.025 29.4ZM166.905 27.48L168.82 28.0547L168.831 28.0199L168.84 27.9848L166.905 27.48ZM174.465 22.68L175.036 24.5966L175.052 24.592L175.067 24.5872L174.465 22.68ZM198.945 23.16L200.208 21.6095L200.208 21.6095L198.945 23.16ZM201.345 35.64L199.447 35.0075L199.439 35.0338L199.431 35.0602L201.345 35.64ZM193.785 60.6L195.664 61.2835L195.683 61.2321L195.699 61.1798L193.785 60.6ZM194.265 65.64L195.582 64.1348L195.582 64.1348L194.265 65.64ZM200.505 65.16L201.856 66.6343L201.856 66.6343L200.505 65.16ZM203.385 60.72L205.201 61.5581L205.258 61.4328L205.298 61.3008L203.385 60.72ZM210.705 36.6L208.807 35.9675L208.799 35.9933L208.791 36.0192L210.705 36.6ZM210.465 32.76L208.837 33.9225L208.881 33.9831L208.928 34.0404L210.465 32.76ZM208.785 31.08L207.535 32.6417L207.546 32.6503L207.557 32.6587L208.785 31.08ZM207.105 29.4L205.441 30.5094L205.441 30.5094L207.105 29.4ZM206.985 27.48L208.9 28.0547L208.923 27.9805L208.939 27.9049L206.985 27.48ZM214.425 22.68L214.996 24.5966L215.012 24.592L215.027 24.5872L214.425 22.68ZM238.905 23.16L237.641 24.7105L237.655 24.7217L237.669 24.7326L238.905 23.16ZM241.305 35.64L239.393 35.0518L239.392 35.0554L241.305 35.64ZM229.644 66.9549C229.477 67.6231 229.345 68.3017 229.345 68.88H233.345C233.345 68.8807 233.345 68.8588 233.35 68.809C233.355 68.7603 233.363 68.6943 233.377 68.6088C233.406 68.436 233.454 68.2102 233.525 67.9251L229.644 66.9549ZM229.345 68.88C229.345 69.7038 229.519 70.6195 230.105 71.4L233.305 69C233.356 69.0681 233.367 69.1142 233.364 69.1038C233.36 69.089 233.345 69.021 233.345 68.88H229.345ZM230.29 71.6142C231.01 72.3338 231.93 72.68 232.905 72.68V68.68C232.89 68.68 232.926 68.6783 232.987 68.703C233.052 68.7287 233.097 68.7641 233.119 68.7858L230.29 71.6142ZM232.905 72.68C234.518 72.68 235.876 71.9671 236.866 70.7294L233.743 68.2306C233.453 68.5929 233.212 68.68 232.905 68.68V72.68ZM236.853 70.7465C237.19 70.3346 237.42 70.0894 237.556 69.9643C237.626 69.9 237.625 69.9109 237.563 69.9491C237.529 69.9698 237.45 70.0151 237.332 70.0584C237.218 70.1003 237.013 70.16 236.745 70.16V66.16C236.132 66.16 235.674 66.4157 235.477 66.5359C235.234 66.6841 235.023 66.86 234.853 67.0157C234.51 67.3306 234.14 67.7454 233.757 68.2135L236.853 70.7465ZM236.745 70.16C236.606 70.16 236.454 70.1346 236.305 70.0765C236.157 70.0191 236.045 69.9429 235.968 69.8752C235.827 69.7518 235.817 69.6723 235.866 69.7878L239.543 68.2122C239.176 67.3555 238.333 66.16 236.745 66.16V70.16ZM236.041 70.1094C236.093 70.1877 236.185 70.3767 236.185 70.8H240.185C240.185 69.7833 239.957 68.7723 239.369 67.8906L236.041 70.1094ZM236.186 70.8714C236.246 72.55 235.66 74.3524 234.185 76.32L237.385 78.72C239.269 76.2076 240.283 73.53 240.183 70.7286L236.186 70.8714ZM234.206 76.2921C232.757 78.1548 230.669 79.7763 227.849 81.1125L229.561 84.7275C232.82 83.1837 235.452 81.2052 237.363 78.7479L234.206 76.2921ZM227.849 81.1125C225.106 82.4115 222.004 83.08 218.505 83.08V87.08C222.526 87.08 226.223 86.3085 229.561 84.7275L227.849 81.1125ZM218.505 83.08C214.036 83.08 210.716 82.1689 208.356 80.5505L206.094 83.8495C209.333 86.0711 213.534 87.08 218.505 87.08V83.08ZM208.356 80.5505C205.932 78.8883 204.435 76.7671 203.762 74.1432L199.887 75.1368C200.815 78.7529 202.918 81.6717 206.094 83.8495L208.356 80.5505ZM200.338 73.3021C197.616 76.3272 194.623 78.5994 191.363 80.155L193.086 83.765C196.867 81.9606 200.274 79.3528 203.311 75.9779L200.338 73.3021ZM191.381 80.1466C188.191 81.6304 184.958 82.36 181.665 82.36V86.36C185.572 86.36 189.378 85.4896 193.068 83.7734L191.381 80.1466ZM181.665 82.36C176.398 82.36 172.102 81.0858 168.661 78.648L166.349 81.912C170.587 84.9142 175.731 86.36 181.665 86.36V82.36ZM168.699 78.6759C165.479 76.2782 163.865 73.0109 163.865 68.64H159.865C159.865 74.1891 162.01 78.6818 166.31 81.8841L168.699 78.6759ZM163.865 68.64C163.865 66.6408 164.221 64.5346 164.962 62.3125L161.167 61.0475C160.308 63.6254 159.865 66.1592 159.865 68.64H163.865ZM164.977 62.2656L172.657 37.1856L168.832 36.0144L161.152 61.0944L164.977 62.2656ZM172.642 37.2325C172.915 36.4126 173.105 35.5825 173.105 34.8H169.105C169.105 34.9775 169.054 35.3474 168.847 35.9675L172.642 37.2325ZM173.105 34.8C173.105 33.6406 172.842 32.4413 172.041 31.4796L168.968 34.0404C168.971 34.0439 169.003 34.0815 169.036 34.1943C169.071 34.3131 169.105 34.507 169.105 34.8H173.105ZM172.132 31.5975C171.557 30.793 170.766 30.0817 169.852 29.4415L167.558 32.7185C168.243 33.1983 168.652 33.607 168.877 33.9225L172.132 31.5975ZM169.954 29.5183C169.211 28.9235 168.839 28.5156 168.689 28.2906L165.361 30.5094C165.851 31.2444 166.599 31.9565 167.455 32.6417L169.954 29.5183ZM168.689 28.2906C168.713 28.3275 168.731 28.3654 168.741 28.398C168.751 28.4294 168.751 28.4444 168.751 28.4352C168.749 28.4106 168.749 28.2931 168.82 28.0547L164.989 26.9053C164.657 28.012 164.583 29.3425 165.361 30.5094L168.689 28.2906ZM168.84 27.9848C168.896 27.7687 169.16 27.2656 170.227 26.5884C171.267 25.9278 172.841 25.2512 175.036 24.5966L173.893 20.7634C171.528 21.4688 169.562 22.2722 168.083 23.2116C166.629 24.1344 165.393 25.3513 164.969 26.9752L168.84 27.9848ZM175.067 24.5872C179.425 23.211 183.981 22.52 188.745 22.52V18.52C183.588 18.52 178.624 19.269 173.862 20.7728L175.067 24.5872ZM188.745 22.52C193.206 22.52 196.048 23.3797 197.681 24.7105L200.208 21.6095C197.521 19.4203 193.563 18.52 188.745 18.52V22.52ZM197.681 24.7105C199.329 26.0529 200.185 27.8589 200.185 30.36H204.185C204.185 26.7811 202.88 23.7871 200.208 21.6095L197.681 24.7105ZM200.185 30.36C200.185 31.9935 199.937 33.5394 199.447 35.0075L203.242 36.2725C203.873 34.3806 204.185 32.4065 204.185 30.36H200.185ZM199.431 35.0602L191.871 60.0202L195.699 61.1798L203.259 36.2198L199.431 35.0602ZM191.905 59.9165C191.519 60.979 191.305 62.0509 191.305 63.12H195.305C195.305 62.5891 195.411 61.981 195.664 61.2835L191.905 59.9165ZM191.305 63.12C191.305 64.6229 191.746 66.0941 192.948 67.1452L195.582 64.1348C195.503 64.0659 195.305 63.8571 195.305 63.12H191.305ZM192.948 67.1452C194.029 68.0913 195.373 68.48 196.785 68.48V64.48C196.116 64.48 195.78 64.3087 195.582 64.1348L192.948 67.1452ZM196.785 68.48C198.716 68.48 200.466 67.9082 201.856 66.6343L199.153 63.6857C198.623 64.1718 197.893 64.48 196.785 64.48V68.48ZM201.856 66.6343C203.107 65.4877 204.201 63.7239 205.201 61.5581L201.569 59.8819C200.648 61.8761 199.822 63.0723 199.153 63.6857L201.856 66.6343ZM205.298 61.3008L212.618 37.1808L208.791 36.0192L201.471 60.1392L205.298 61.3008ZM212.602 37.2325C212.875 36.4126 213.065 35.5825 213.065 34.8H209.065C209.065 34.9775 209.014 35.3474 208.807 35.9675L212.602 37.2325ZM213.065 34.8C213.065 33.6406 212.802 32.4413 212.001 31.4796L208.928 34.0404C208.931 34.0439 208.963 34.0815 208.996 34.1943C209.031 34.3131 209.065 34.507 209.065 34.8H213.065ZM212.092 31.5975C211.55 30.8386 210.839 30.1439 210.013 29.5013L207.557 32.6587C208.171 33.1361 208.579 33.5614 208.837 33.9225L212.092 31.5975ZM210.034 29.5183C209.291 28.9235 208.919 28.5156 208.769 28.2906L205.441 30.5094C205.931 31.2444 206.679 31.9565 207.535 32.6417L210.034 29.5183ZM208.769 28.2906C208.793 28.3275 208.811 28.3654 208.821 28.398C208.831 28.4294 208.831 28.4444 208.831 28.4352C208.829 28.4106 208.829 28.2931 208.9 28.0547L205.069 26.9053C204.737 28.012 204.663 29.3425 205.441 30.5094L208.769 28.2906ZM208.939 27.9049C208.977 27.7302 209.189 27.2516 210.229 26.5806C211.243 25.9261 212.801 25.2513 214.996 24.5966L213.853 20.7634C211.488 21.4687 209.526 22.2739 208.06 23.2194C206.62 24.1484 205.392 25.3898 205.03 27.0551L208.939 27.9049ZM215.027 24.5872C219.385 23.211 223.941 22.52 228.705 22.52V18.52C223.548 18.52 218.584 19.269 213.822 20.7728L215.027 24.5872ZM228.705 22.52C233.166 22.52 236.008 23.3797 237.641 24.7105L240.168 21.6095C237.481 19.4203 233.523 18.52 228.705 18.52V22.52ZM237.669 24.7326C239.405 26.0966 240.265 27.8658 240.265 30.24H244.265C244.265 26.6941 242.884 23.7434 240.14 21.5874L237.669 24.7326ZM240.265 30.24C240.265 31.495 239.998 33.0875 239.393 35.0518L243.216 36.2282C243.892 34.0325 244.265 32.0249 244.265 30.24H240.265ZM239.392 35.0554L229.672 66.8554L233.497 68.0246L243.217 36.2246L239.392 35.0554ZM299.21 21.24L298.725 23.1803L298.733 23.1821L299.21 21.24ZM310.37 26.28L309.081 27.8086L309.092 27.8183L309.104 27.8279L310.37 26.28ZM310.97 40.44L309.735 38.8674L309.721 38.8783L309.707 38.8895L310.97 40.44ZM291.65 40.08L290.466 41.6913L290.477 41.6995L290.488 41.7075L291.65 40.08ZM288.05 29.52L289.948 30.1524L290.613 28.1562L288.586 27.593L288.05 29.52ZM279.17 30.36L278.017 28.7261L277.993 28.7427L277.97 28.76L279.17 30.36ZM277.37 34.44H279.37V34.3946L279.368 34.3492L277.37 34.44ZM290.57 45.12L289.726 46.9332L289.745 46.9421L289.765 46.9506L290.57 45.12ZM300.41 50.04L299.389 51.7597L299.421 51.7783L299.453 51.7958L300.41 50.04ZM307.01 55.56L305.438 56.7956L305.451 56.8127L305.465 56.8295L307.01 55.56ZM309.29 67.08L311.236 67.5445L311.248 67.4915L311.258 67.4378L309.29 67.08ZM298.61 79.8L297.668 78.036L297.668 78.036L298.61 79.8ZM250.01 80.16L249.172 81.9759L249.181 81.9799L250.01 80.16ZM262.25 61.56L260.924 63.0572L260.935 63.0664L260.945 63.0755L262.25 61.56ZM266.21 74.28L264.255 73.8609L263.85 75.7514L265.725 76.2203L266.21 74.28ZM276.89 73.32L278.162 74.8639L278.162 74.8639L276.89 73.32ZM278.93 68.64H280.93V68.5965L280.928 68.5531L278.93 68.64ZM276.17 63.96L274.947 65.5426L274.97 65.5604L274.994 65.5775L276.17 63.96ZM267.77 59.16L268.635 57.3564L268.625 57.352L268.616 57.3476L267.77 59.16ZM258.89 54.48L257.794 56.1529L257.815 56.1664L257.836 56.1793L258.89 54.48ZM252.89 48.84L251.263 50.0025L251.276 50.0214L251.29 50.04L252.89 48.84ZM258.65 25.32L259.804 26.9539L259.808 26.9507L258.65 25.32ZM282.05 21.44C288.579 21.44 294.127 22.0308 298.725 23.1803L299.695 19.2997C294.693 18.0492 288.802 17.44 282.05 17.44V21.44ZM298.733 23.1821C303.451 24.3423 306.844 25.9215 309.081 27.8086L311.66 24.7514C308.777 22.3185 304.73 20.5377 299.688 19.2979L298.733 23.1821ZM309.104 27.8279C311.408 29.7133 312.33 31.6284 312.33 33.6H316.33C316.33 30.1316 314.612 27.1667 311.637 24.7321L309.104 27.8279ZM312.33 33.6C312.33 35.7739 311.502 37.4788 309.735 38.8674L312.206 42.0126C314.919 39.8812 316.33 37.0261 316.33 33.6H312.33ZM309.707 38.8895C308.024 40.2605 305.494 41.08 301.85 41.08V45.08C306.046 45.08 309.596 44.1395 312.234 41.9905L309.707 38.8895ZM301.85 41.08C298.197 41.08 295.221 40.1725 292.813 38.4525L290.488 41.7075C293.68 43.9875 297.503 45.08 301.85 45.08V41.08ZM292.835 38.4687C290.562 36.7974 289.57 34.8467 289.57 32.52H285.57C285.57 36.2733 287.298 39.3626 290.466 41.6913L292.835 38.4687ZM289.57 32.52C289.57 31.6889 289.698 30.9029 289.948 30.1524L286.153 28.8875C285.763 30.0571 285.57 31.2711 285.57 32.52H289.57ZM288.586 27.593C287.026 27.1596 285.56 26.92 284.21 26.92V30.92C285.101 30.92 286.195 31.0804 287.515 31.447L288.586 27.593ZM284.21 26.92C281.882 26.92 279.778 27.4832 278.017 28.7261L280.324 31.9939C281.283 31.3168 282.538 30.92 284.21 30.92V26.92ZM277.97 28.76C276.101 30.1619 275.266 32.1884 275.372 34.5308L279.368 34.3492C279.315 33.1716 279.679 32.4781 280.37 31.96L277.97 28.76ZM275.37 34.44C275.37 37.3225 276.865 39.6426 279.352 41.3644L281.629 38.0756C279.956 36.9174 279.37 35.7175 279.37 34.44H275.37ZM279.352 41.3644C281.578 42.9053 285.065 44.7634 289.726 46.9332L291.414 43.3068C286.795 41.1566 283.563 39.4147 281.629 38.0756L279.352 41.3644ZM289.765 46.9506C293.722 48.6916 296.923 50.2952 299.389 51.7597L301.431 48.3203C298.778 46.7448 295.419 45.0684 291.376 43.2894L289.765 46.9506ZM299.453 51.7958C301.868 53.1133 303.854 54.7807 305.438 56.7956L308.583 54.3244C306.646 51.8593 304.233 49.8467 301.368 48.2842L299.453 51.7958ZM305.465 56.8295C306.996 58.6933 307.77 60.8786 307.77 63.48H311.77C311.77 60.0014 310.705 56.9067 308.556 54.2905L305.465 56.8295ZM307.77 63.48C307.77 63.9129 307.646 64.9415 307.323 66.7222L311.258 67.4378C311.574 65.6985 311.77 64.3271 311.77 63.48H307.77ZM307.345 66.6154C306.225 71.307 303.114 75.1264 297.668 78.036L299.553 81.564C305.787 78.2336 309.796 73.573 311.236 67.5445L307.345 66.6154ZM297.668 78.036C292.217 80.9481 284.896 82.48 275.57 82.48V86.48C285.285 86.48 293.324 84.8919 299.553 81.564L297.668 78.036ZM275.57 82.48C264.996 82.48 256.796 81.0546 250.84 78.3401L249.181 81.9799C255.864 85.0254 264.704 86.48 275.57 86.48V82.48ZM250.848 78.3441C245.014 75.6511 242.65 72.2536 242.65 68.28H238.65C238.65 74.3864 242.527 78.9089 249.172 81.9759L250.848 78.3441ZM242.65 68.28C242.65 65.2612 243.545 63.2906 245.062 62.0068L242.478 58.9532C239.836 61.1894 238.65 64.4188 238.65 68.28H242.65ZM245.062 62.0068C246.694 60.6257 248.956 59.84 252.05 59.84V55.84C248.265 55.84 245.006 56.8143 242.478 58.9532L245.062 62.0068ZM252.05 59.84C255.599 59.84 258.517 60.9248 260.924 63.0572L263.576 60.0628C260.384 57.2352 256.502 55.84 252.05 55.84V59.84ZM260.945 63.0755C263.379 65.1711 264.57 67.7753 264.57 71.04H268.57C268.57 66.6247 266.882 62.9089 263.555 60.0445L260.945 63.0755ZM264.57 71.04C264.57 71.9258 264.468 72.865 264.255 73.8609L268.166 74.6991C268.432 73.455 268.57 72.2342 268.57 71.04H264.57ZM265.725 76.2203C267.785 76.7351 269.788 77 271.73 77V73C270.153 73 268.476 72.7849 266.695 72.3397L265.725 76.2203ZM271.73 77C274.187 77 276.381 76.33 278.162 74.8639L275.619 71.7761C274.679 72.55 273.434 73 271.73 73V77ZM278.162 74.8639C280.049 73.3097 280.93 71.1468 280.93 68.64H276.93C276.93 70.1332 276.452 71.0903 275.619 71.7761L278.162 74.8639ZM280.928 68.5531C280.817 65.9907 279.499 63.9082 277.347 62.3425L274.994 65.5775C276.361 66.5718 276.884 67.6093 276.932 68.7269L280.928 68.5531ZM277.393 62.3774C275.462 60.8854 272.509 59.2127 268.635 57.3564L266.906 60.9636C270.712 62.7873 273.358 64.3146 274.947 65.5426L277.393 62.3774ZM268.616 57.3476C265.059 55.6875 262.175 54.1648 259.945 52.7807L257.836 56.1793C260.246 57.6752 263.282 59.2725 266.925 60.9724L268.616 57.3476ZM259.986 52.8071C257.862 51.4155 256.032 49.6961 254.49 47.64L251.29 50.04C253.108 52.4639 255.278 54.5045 257.794 56.1529L259.986 52.8071ZM254.518 47.6775C253.185 45.812 252.49 43.5888 252.49 40.92H248.49C248.49 44.3312 249.395 47.388 251.263 50.0025L254.518 47.6775ZM252.49 40.92C252.49 35.0214 254.885 30.4259 259.804 26.9539L257.497 23.6861C251.536 27.8941 248.49 33.6986 248.49 40.92H252.49ZM259.808 26.9507C264.861 23.3623 272.193 21.44 282.05 21.44V17.44C271.748 17.44 263.479 19.4377 257.492 23.6893L259.808 26.9507ZM370.823 23.04L369.574 24.6017L369.61 24.6304L369.647 24.6575L370.823 23.04ZM371.903 27.36L373.821 27.9267L373.847 27.8404L373.864 27.7522L371.903 27.36ZM357.743 32.64V30.64H356.26L355.829 32.0589L357.743 32.64ZM348.743 62.28L350.64 62.9125L350.649 62.8869L350.657 62.8611L348.743 62.28ZM349.343 69L350.49 67.3615L350.49 67.3615L349.343 69ZM357.503 69.36L357.832 71.3328L357.911 71.3197L357.988 71.3003L357.503 69.36ZM361.223 69.6L359.508 70.629L359.635 70.8401L359.809 71.0142L361.223 69.6ZM361.703 70.92H359.703V70.97L359.706 71.0199L361.703 70.92ZM358.103 76.8L359.468 78.2621L359.469 78.2605L358.103 76.8ZM348.263 82.68L348.981 84.5467L348.997 84.5407L349.012 84.5345L348.263 82.68ZM321.383 81.36L322.589 79.7647L321.383 81.36ZM317.423 65.4L319.312 66.057L319.319 66.0362L319.326 66.0151L317.423 65.4ZM325.103 41.64L327.006 42.2551L327.014 42.2298L327.022 42.2043L325.103 41.64ZM324.503 34.32L322.821 35.4015L322.847 35.4427L322.876 35.4825L324.503 34.32ZM321.383 30.84L320.018 32.3021L320.039 32.3212L320.06 32.3397L321.383 30.84ZM318.863 28.08L317.148 29.109L317.173 29.1498L317.199 29.1894L318.863 28.08ZM318.503 25.32L316.592 24.7318L316.57 24.8004L316.554 24.8703L318.503 25.32ZM320.543 22.92L321.491 24.6809L321.491 24.6809L320.543 22.92ZM332.183 22.08V24.08H333.012L333.597 23.4942L332.183 22.08ZM339.743 14.52L338.329 13.1058L338.329 13.1058L339.743 14.52ZM346.943 9L346.101 7.18598L346.088 7.1919L346.075 7.198L346.943 9ZM362.663 16.56L360.752 15.9718L360.75 15.9777L362.663 16.56ZM360.983 22.08L359.07 21.4977L358.284 24.08H360.983V22.08ZM367.343 24.08C368.62 24.08 369.264 24.354 369.574 24.6017L372.073 21.4783C370.782 20.4459 369.106 20.08 367.343 20.08V24.08ZM369.647 24.6575C369.992 24.9083 370.143 25.1777 370.143 25.68H374.143C374.143 23.9423 373.415 22.4517 371.999 21.4225L369.647 24.6575ZM370.143 25.68C370.143 25.6791 370.143 25.6873 370.142 25.7061C370.141 25.7246 370.139 25.7503 370.136 25.7839C370.13 25.8521 370.12 25.9421 370.103 26.0572C370.07 26.2885 370.018 26.5897 369.942 26.9678L373.864 27.7522C374.022 26.9613 374.143 26.2222 374.143 25.68H370.143ZM369.985 26.7933C369.56 28.2335 368.912 29.1416 368.14 29.7072C367.365 30.2761 366.271 30.64 364.703 30.64V34.64C366.895 34.64 368.882 34.1239 370.506 32.9328C372.135 31.7384 373.207 30.0064 373.821 27.9267L369.985 26.7933ZM364.703 30.64H357.743V34.64H364.703V30.64ZM355.829 32.0589L346.829 61.6989L350.657 62.8611L359.657 33.2211L355.829 32.0589ZM346.846 61.6475C346.377 63.0539 346.143 64.5076 346.143 66H350.143C350.143 64.9324 350.309 63.9061 350.64 62.9125L346.846 61.6475ZM346.143 66C346.143 67.7653 346.64 69.5493 348.196 70.6385L350.49 67.3615C350.446 67.3307 350.143 67.1147 350.143 66H346.143ZM348.196 70.6385C349.457 71.5213 351.038 71.84 352.703 71.84V67.84C351.489 67.84 350.829 67.5987 350.49 67.3615L348.196 70.6385ZM352.703 71.84C354.134 71.84 355.853 71.6626 357.832 71.3328L357.174 67.3872C355.313 67.6974 353.832 67.84 352.703 67.84V71.84ZM357.988 71.3003C358.844 71.0863 359.515 71 360.023 71V67C359.092 67 358.082 67.1537 357.018 67.4197L357.988 71.3003ZM360.023 71C360.069 71 359.988 71.0083 359.849 70.9389C359.693 70.8612 359.575 70.7404 359.508 70.629L362.938 68.571C362.259 67.4394 361.121 67 360.023 67V71ZM359.809 71.0142C359.785 70.9901 359.762 70.9617 359.742 70.9305C359.723 70.8995 359.71 70.8724 359.704 70.8535C359.69 70.8162 359.703 70.8286 359.703 70.92H363.703C363.703 69.963 363.417 68.9657 362.637 68.1858L359.809 71.0142ZM359.706 71.0199C359.719 71.278 359.635 71.7663 359.157 72.5457C358.684 73.3182 357.902 74.2497 356.737 75.3395L359.469 78.2605C360.785 77.0303 361.842 75.8218 362.569 74.6343C363.292 73.4537 363.768 72.162 363.701 70.8201L359.706 71.0199ZM356.738 75.3379C354.57 77.3614 351.525 79.206 347.514 80.8255L349.012 84.5345C353.322 82.794 356.836 80.7186 359.468 78.2621L356.738 75.3379ZM347.545 80.8133C343.642 82.3144 339.29 83.08 334.463 83.08V87.08C339.717 87.08 344.564 86.2456 348.981 84.5467L347.545 80.8133ZM334.463 83.08C329.318 83.08 325.425 81.9085 322.589 79.7647L320.177 82.9553C323.901 85.7715 328.728 87.08 334.463 87.08V83.08ZM322.589 79.7647C319.838 77.6845 318.463 74.8902 318.463 71.16H314.463C314.463 76.0698 316.368 80.0755 320.177 82.9553L322.589 79.7647ZM318.463 71.16C318.463 69.3776 318.748 67.6801 319.312 66.057L315.534 64.743C314.819 66.7999 314.463 68.9424 314.463 71.16H318.463ZM319.326 66.0151L327.006 42.2551L323.2 41.0249L315.52 64.7849L319.326 66.0151ZM327.022 42.2043C327.441 40.7791 327.703 39.484 327.703 38.4H323.703C323.703 38.916 323.565 39.7809 323.184 41.0757L327.022 42.2043ZM327.703 38.4C327.703 36.4531 327.211 34.6695 326.131 33.1575L322.876 35.4825C323.396 36.2105 323.703 37.1469 323.703 38.4H327.703ZM326.185 33.2385C325.337 31.9186 324.158 30.6216 322.706 29.3403L320.06 32.3397C321.328 33.4584 322.229 34.4814 322.821 35.4015L326.185 33.2385ZM322.748 29.3779C321.579 28.2873 320.876 27.4938 320.527 26.9706L317.199 29.1894C317.81 30.1062 318.787 31.1527 320.018 32.3021L322.748 29.3779ZM320.578 27.051C320.403 26.7596 320.31 26.3836 320.452 25.7697L316.554 24.8703C316.216 26.3364 316.363 27.8004 317.148 29.109L320.578 27.051ZM320.415 25.9082C320.566 25.4159 320.871 25.0152 321.491 24.6809L319.595 21.1591C318.136 21.9448 317.08 23.1441 316.592 24.7318L320.415 25.9082ZM321.491 24.6809C322.081 24.3636 323.307 24.08 325.463 24.08V20.08C323.139 20.08 321.086 20.3564 319.595 21.1591L321.491 24.6809ZM325.463 24.08H332.183V20.08H325.463V24.08ZM333.597 23.4942L341.157 15.9342L338.329 13.1058L330.769 20.6658L333.597 23.4942ZM341.157 15.9342C343.717 13.3748 345.934 11.7057 347.811 10.802L346.075 7.198C343.632 8.37429 341.049 10.3852 338.329 13.1058L341.157 15.9342ZM347.785 10.814C349.674 9.93713 352.239 9.44 355.583 9.44V5.44C351.887 5.44 348.692 5.98287 346.101 7.18598L347.785 10.814ZM355.583 9.44C357.906 9.44 359.282 9.89227 360.041 10.4709C360.698 10.9711 361.143 11.7563 361.143 13.2H365.143C365.143 10.8037 364.329 8.70886 362.465 7.28913C360.705 5.94772 358.3 5.44 355.583 5.44V9.44ZM361.143 13.2C361.143 14.2209 361.007 15.1409 360.752 15.9718L364.575 17.1482C364.959 15.8991 365.143 14.5791 365.143 13.2H361.143ZM360.75 15.9777L359.07 21.4977L362.896 22.6623L364.576 17.1423L360.75 15.9777ZM360.983 24.08H367.343V20.08H360.983V24.08Z" fill="white"/>
</g>
<defs>
<filter id="filter0_d_5_273" x="0.800049" y="0.0800018" width="379.343" height="97" filterUnits="userSpaceOnUse" color-interpolation-filters="sRGB">
<feFlood flood-opacity="0" result="BackgroundImageFix"/>
<feColorMatrix in="SourceAlpha" type="matrix" values="0 0 0 0 0 0 0 0 0 0 0 0 0 0 0 0 0 0 127 0" result="hardAlpha"/>
<feOffset dy="4"/>
<feGaussianBlur stdDeviation="4"/>
<feColorMatrix type="matrix" values="0 0 0 0 0 0 0 0 0 0 0 0 0 0 0 0 0 0 0.25 0"/>
<feBlend mode="normal" in2="BackgroundImageFix" result="effect1_dropShadow_5_273"/>
<feBlend mode="normal" in="SourceGraphic" in2="effect1_dropShadow_5_273" result="shape"/>
</filter>
</defs>
</svg>
